<svg width="250" height="250" viewBox="0 0 250 250" fill="none" xmlns="http://www.w3.org/2000/svg">
<path d="M48 33.33H71.25C72.518 33.33 73.7735 33.5804 74.9445 34.0668C76.1155 34.5533 77.1789 35.2662 78.0736 36.1647C78.9684 37.0632 79.6769 38.1295 80.1585 39.3025C80.6401 40.4755 80.8853 41.732 80.88 43V53.74H38.38V43C38.3747 41.7328 38.6196 40.4771 39.1006 39.3048C39.5815 38.1325 40.2892 37.0666 41.1828 36.1682C42.0765 35.2699 43.1387 34.5568 44.3086 34.0697C45.4784 33.5827 46.7328 33.3313 48 33.33Z" stroke="#49AADA" stroke-width="7" stroke-miterlimit="10"/>
<path d="M174.11 188.91C196.212 188.91 214.13 170.992 214.13 148.89C214.13 126.788 196.212 108.87 174.11 108.87C152.008 108.87 134.09 126.788 134.09 148.89C134.09 170.992 152.008 188.91 174.11 188.91Z" stroke="#49AADA" stroke-width="7" stroke-miterlimit="10" stroke-linecap="round"/>
<path d="M33.44 210.52H29.55C26.3759 210.508 23.2353 209.871 20.3074 208.646C17.3794 207.42 14.7216 205.63 12.4855 203.377C10.2495 201.124 8.47906 198.453 7.27533 195.516C6.0716 192.579 5.45815 189.434 5.46999 186.26V78.8C5.45815 75.6259 6.0716 72.4806 7.27533 69.5437C8.47906 66.6067 10.2495 63.9356 12.4855 61.6828C14.7216 59.4301 17.3794 57.6398 20.3074 56.4142C23.2353 55.1887 26.3759 54.5518 29.55 54.54H222.16C228.569 54.5665 234.704 57.137 239.218 61.6863C243.732 66.2357 246.254 72.3914 246.23 78.8V186.26C246.254 192.669 243.732 198.824 239.218 203.374C234.704 207.923 228.569 210.494 222.16 210.52H33.44V210.52Z" stroke="#49AADA" stroke-width="7" stroke-miterlimit="10"/>
<path d="M174.11 177.19C189.74 177.19 202.41 164.52 202.41 148.89C202.41 133.26 189.74 120.59 174.11 120.59C158.48 120.59 145.81 133.26 145.81 148.89C145.81 164.52 158.48 177.19 174.11 177.19Z" stroke="#49AADA" stroke-width="7" stroke-miterlimit="10" stroke-linecap="round"/>
<path d="M246.23 87.03H5.47M101.92 130.86H37.58M37.58 153.35H64.75" stroke="#49AADA" stroke-width="7" stroke-miterlimit="10" stroke-linecap="round"/>
</svg>
