<svg width="250" height="250" viewBox="0 0 250 250" fill="none" xmlns="http://www.w3.org/2000/svg">
<path d="M32.27 88.52V60.12C32.27 55.48 37.07 51.71 42.98 51.71H206.75C212.67 51.71 217.47 55.48 217.47 60.12V88.32" stroke="#49AADA" stroke-width="7" stroke-linecap="round" stroke-linejoin="round"/>
<path d="M5.63 114.28H5.7C22.17 104.95 48.87 104.95 65.33 114.28C81.8 123.6 108.5 123.6 124.97 114.28L125.26 114.12C141.73 104.79 168.43 104.79 184.9 114.12L185.26 114.32C201.73 123.65 228.43 123.65 244.9 114.32M12.17 154.05C28.73 146.55 52.96 147.14 68.3 155.83C84.77 165.15 111.47 165.15 127.94 155.83L128.23 155.67C144.69 146.34 171.39 146.34 187.86 155.67L188.23 155.87C201.03 163.12 220.02 164.74 235.57 160.71M32 194.68C45 191.75 55.11 191.31 68.3 197.55C84.77 206.88 111.47 206.88 127.94 197.55L128.23 197.39C144.69 188.07 171.39 188.07 187.86 197.39L188.23 197.6C193.6 200.428 199.614 201.807 205.68 201.6C205.68 201.6 216.63 201.73 220.05 200.32" stroke="#49AADA" stroke-width="7" stroke-miterlimit="10" stroke-linecap="round"/>
<path d="M65.34 114.24C81.8 123.56 108.5 123.56 124.97 114.24L125.26 114.08C141.73 104.75 168.43 104.75 184.9 114.08L185.26 114.28C198.12 121.56 217.26 123.13 232.8 119.04L243.39 90.76L18.31 89.62L18.58 109.27C34 105.44 52.69 107.08 65.34 114.24V114.24ZM52.05 73.93H88.31L88.3 67.11H52.05V73.93ZM107.9 73.52H144.15L144.14 66.71H107.89L107.9 73.52V73.52ZM162.01 73.52H198.27L198.26 66.71H162L162.01 73.52Z" stroke="#49AADA" stroke-width="7" stroke-linecap="round" stroke-linejoin="round"/>
</svg>
