<svg viewBox="0 0 36 38" xmlns="http://www.w3.org/2000/svg">
  <path d="M30.65 18.707a1.13 1.13 0 00-1.316-.002c-.393.281-.56.78-.414 1.238.563 1.767.143 3.523-.308 4.685-.582 1.498-1.582 2.947-2.745 3.974-1.212 1.07-2.471 1.55-3.208 1.221-.39-.173-1.297-.909-1.297-3.989V14.216h2.827a2.29 2.29 0 002.297-2.277V9.523a2.29 2.29 0 00-2.297-2.278h-3.417a4.12 4.12 0 001.41-3.1C22.182 1.86 20.307 0 18.002 0c-2.305 0-4.18 1.86-4.18 4.145a4.12 4.12 0 001.41 3.1h-3.417a2.29 2.29 0 00-2.298 2.279v2.415a2.29 2.29 0 002.298 2.277h2.82l.003 11.583v.035c0 3.08-.907 3.816-1.297 3.989-.737.328-1.996-.152-3.208-1.221-1.163-1.027-2.163-2.476-2.745-3.974-.451-1.162-.87-2.919-.308-4.685a1.108 1.108 0 00-.414-1.238 1.13 1.13 0 00-1.316.002C1.881 21.2.132 24.49 0 28.762a1.11 1.11 0 00.533.981c.341.21.769.222 1.122.033l1.308-.698c2.955 5.455 8.732 8.92 15.035 8.921h.003c6.304-.001 12.08-3.466 15.036-8.921l1.308.698c.353.189.781.176 1.123-.033a1.11 1.11 0 00.531-.98c-.13-4.274-1.88-7.564-5.35-10.057zm-7.72-9.235h1.26c.027 0 .05.023.05.052v2.415a.051.051 0 01-.05.05h-1.26V9.473zm-9.857 2.518h-1.258a.051.051 0 01-.052-.052V9.524c0-.029.023-.052.052-.052h1.258v2.518zm4.929-9.763c1.067 0 1.934.86 1.934 1.918a1.929 1.929 0 01-1.934 1.919 1.929 1.929 0 01-1.935-1.919c0-1.058.868-1.918 1.935-1.918zm-2.683 7.245h5.366v2.518h-5.366V9.472zm17.758 17.1a1.131 1.131 0 00-.894-.075 1.12 1.12 0 00-.663.599c-2.388 5.27-7.695 8.677-13.52 8.677-5.825 0-11.132-3.406-13.52-8.678a1.12 1.12 0 00-.663-.598 1.132 1.132 0 00-.894.074l-.46.246c.33-1.696 1.028-3.153 2.124-4.427.072.992.307 2.013.705 3.038.716 1.845 1.905 3.563 3.347 4.836 1.958 1.729 4.007 2.308 5.621 1.59 2.168-.963 2.623-3.805 2.623-6.02l-.002-11.618h2.235v11.618c0 2.215.456 5.057 2.623 6.02 1.615.719 3.664.139 5.621-1.59 1.442-1.273 2.631-2.99 3.348-4.836a10.54 10.54 0 00.705-3.038c1.096 1.274 1.794 2.731 2.124 4.427l-.46-.245z" />
</svg>