<svg width="27" height="27" viewBox="0 0 27 27" fill="none" xmlns="http://www.w3.org/2000/svg">
  <path d="M22.7993 14.6199C21.5202 17.4295 19.0118 19.5662 15.965 20.3382C15.2816 20.5115 14.6194 19.9873 14.6194 19.2827V12.44C14.6194 12.1367 14.8657 11.8906 15.1694 11.8906H17.3984C18.0262 11.8906 18.5355 11.3812 18.5355 10.753C18.5355 10.125 18.0257 9.61594 17.3984 9.61594H15.1694C14.8657 9.61594 14.6194 9.36968 14.6194 9.06656V6.83797C14.6194 6.55401 14.7659 6.29137 15.0041 6.13765C15.8365 5.6 16.3738 4.64631 16.3213 3.57025C16.2493 2.08911 15.0398 0.891465 13.5582 0.832911C11.912 0.767406 10.5569 2.08277 10.5569 3.7147C10.5569 4.73607 11.0881 5.63229 11.8887 6.1446C12.124 6.29554 12.263 6.55849 12.263 6.83797V9.06656C12.263 9.36968 12.0168 9.61594 11.713 9.61594H9.50422C8.88439 9.61594 8.37873 10.1126 8.36714 10.7326V10.7535C8.36714 11.3803 8.87543 11.8906 9.50422 11.8906H11.713C12.0168 11.8906 12.263 12.1367 12.263 12.44V19.2827C12.263 19.9873 11.6004 20.5115 10.9169 20.3382C7.86997 19.566 5.36144 17.4294 4.08253 14.6199C3.43242 13.1903 1.25064 14.1776 1.89875 15.6074C3.56189 19.2728 6.99445 22.1093 11.229 22.8503C11.8252 22.955 12.263 23.4696 12.263 24.0757V24.9339C12.263 25.5746 12.7602 26.1209 13.401 26.1424C14.07 26.1646 14.6194 25.6287 14.6194 24.9641V24.0757C14.6194 23.4696 15.0566 22.955 15.6534 22.8503C19.8679 22.1129 23.312 19.2912 24.9831 15.6074C25.6367 14.1666 23.4451 13.2015 22.7993 14.6199ZM14.1857 3.89129C14.1857 4.30225 13.8522 4.6358 13.4412 4.6358C13.0296 4.6358 12.6967 4.30225 12.6967 3.89129V3.53796C12.6967 3.127 13.0296 2.79345 13.4412 2.79345C13.8522 2.79345 14.1857 3.127 14.1857 3.53796V3.89129Z" fill="#49AADA"></path>
</svg>