<svg width="12" height="6" viewBox="0 0 12 6" fill="none" xmlns="http://www.w3.org/2000/svg">
  <path d="M6.00254 3.6535L1.51317 0.551324C1.38985 0.465905 1.22498 0.418915 1.04917 0.418915C0.873268 0.418915 0.708487 0.465905 0.584975 0.551324L0.191805 0.823153C0.0680973 0.908437 -2.68073e-07 1.02244 -2.60443e-07 1.14393C-2.52812e-07 1.26542 0.0680973 1.37928 0.191805 1.46464L5.53678 5.15827C5.66068 5.24395 5.82624 5.29088 6.00224 5.29054C6.17902 5.29088 6.34439 5.24402 6.46839 5.15827L11.8082 1.46807C11.9319 1.38272 12 1.26885 12 1.1473C12 1.02581 11.9319 0.911943 11.8082 0.826524L11.415 0.554762C11.1591 0.377925 10.7425 0.377925 10.4867 0.554762L6.00254 3.6535Z" fill="#49AADA"></path>
</svg>