<svg class="faq__h1-svg" height="48" width="48" fill="none" xmlns="http://www.w3.org/2000/svg" viewBox="0 0 48 48">
  <g clip-path="url(#clip0)">
    <path d="M.094 36.685l8.904-2.463a18.358 18.358 0 008.458 2.512c1.877 6.654 8.01 11.366 15.028 11.366a15.56 15.56 0 007.91-2.15l7.512 2.079.17.047-.047-.17-2.078-7.513a15.56 15.56 0 002.149-7.909c0-7.017-4.711-13.15-11.365-15.028C36.278 7.698 28.197-.1 18.328-.1 8.167-.1-.1 8.167-.1 18.328c0 3.297.874 6.508 2.534 9.33L-.03 36.562l-.047.17.17-.047zm9.416-5.696l-.038-.024-.043.012-5.184 1.435 1.434-5.185.012-.043-.024-.038-.338-.528a15.364 15.364 0 01-2.416-8.29c0-8.5 6.915-15.415 15.415-15.415s15.416 6.915 15.416 15.415-6.916 15.416-15.416 15.416c-2.95 0-5.816-.836-8.29-2.417 0 0 0 0 0 0l-.528-.338zm34.245 12.766l-3.803-1.052-.043-.012-.038.025-.53.345a12.555 12.555 0 01-6.857 2.026c-5.413 0-10.176-3.473-11.908-8.469 8.368-1.022 15.02-7.674 16.043-16.043 4.995 1.733 8.468 6.496 8.468 11.91 0 2.444-.7 4.815-2.026 6.855l-.345.53-.025.039.012.043 1.052 3.803z" fill="#727272" stroke="#727272" stroke-width=".2"/>
    <path d="M16.922 25.406h2.812v2.813h-2.812v-2.813zM21.14 14.063c0 .798-.325 1.535-.915 2.075l-3.303 3.024v3.432h2.812V20.4l2.39-2.186a5.64 5.64 0 001.83-4.151 5.631 5.631 0 00-5.626-5.626 5.631 5.631 0 00-5.625 5.626h2.813a2.816 2.816 0 012.812-2.813 2.816 2.816 0 012.813 2.813z" fill="#727272"/>
    <path d="M19.667 20.327l-.033.03v2.137h-2.612v-3.288l3.27-2.994s0 0 0 0a2.883 2.883 0 00.949-2.15 2.916 2.916 0 00-2.913-2.912 2.916 2.916 0 00-2.91 2.813h-2.614c.053-3.001 2.51-5.425 5.524-5.425a5.531 5.531 0 015.525 5.524 5.54 5.54 0 01-1.797 4.078l-2.39 2.187z" stroke="#1D96D4" stroke-opacity=".3" stroke-width=".2"/>
  </g>
  <defs>
    <clipPath id="clip0"><path fill="#fff" d="M0 0h48v48H0z"/></clipPath>
  </defs>
</svg>