<svg xmlns="http://www.w3.org/2000/svg" viewBox="0 0 37 36">
  <path d="M35.916 33.133c-1.196 0-1.736-.269-2.42-.61-.281-.14-.577-.287-.919-.418l3.662-9.631a2.832 2.832 0 00-1.93-3.742l-2.52-.659v-7.56a2.881 2.881 0 00-2.878-2.878h-4.976V4.837a4.044 4.044 0 00-4.039-4.04h-2.792a4.044 4.044 0 00-4.04 4.04v2.797H8.09a2.881 2.881 0 00-2.878 2.878v7.561l-2.52.659a2.832 2.832 0 00-1.93 3.742l3.662 9.632a10.23 10.23 0 00-.92.418c-.683.34-1.223.609-2.419.609a1.084 1.084 0 100 2.168c1.706 0 2.599-.444 3.386-.836.683-.34 1.223-.61 2.42-.61 1.196 0 1.736.27 2.42.61.787.392 1.679.836 3.385.836 1.706 0 2.599-.444 3.386-.836.683-.34 1.223-.61 2.42-.61 1.196 0 1.735.27 2.419.61.787.392 1.68.836 3.386.836 1.706 0 2.598-.444 3.385-.836.684-.34 1.224-.61 2.42-.61s1.736.27 2.42.61c.787.392 1.679.836 3.385.836a1.084 1.084 0 100-2.168zM15.233 4.837c0-1.032.84-1.871 1.87-1.871h2.793c1.032 0 1.871.839 1.871 1.87v2.798h-6.534V4.837zm-7.854 5.675a.71.71 0 01.71-.71h20.822a.71.71 0 01.71.71v6.995l-10.847-2.834a1.085 1.085 0 00-.548 0L7.379 17.507v-6.995zm19.346 22.012c-.683.34-1.223.609-2.42.609-1.196 0-1.735-.269-2.419-.61-.787-.391-1.68-.835-3.386-.835-1.706 0-2.598.444-3.385.836-.684.34-1.223.609-2.42.609-1.196 0-1.736-.269-2.42-.61-.787-.391-1.679-.835-3.385-.835-.105 0-.206.001-.305.005l-3.797-9.99a.654.654 0 01.03-.537.654.654 0 01.42-.337L18.5 16.843l15.262 3.988c.248.064.37.238.42.336.05.098.121.298.03.537l-3.797 9.99a9.364 9.364 0 00-.304-.005c-1.707 0-2.599.444-3.386.836z"></path>
  <path d="M28.522 22.39l-9.748-2.548a1.085 1.085 0 00-.548 0L8.478 22.39a1.084 1.084 0 10.549 2.098L18.5 22.01l9.474 2.476a1.081 1.081 0 001.322-.775 1.084 1.084 0 00-.774-1.323z"></path>
</svg>