<svg width="36" height="36" viewBox="0 0 36 36" fill="none" xmlns="http://www.w3.org/2000/svg">
<circle cx="18" cy="18" r="17.5" stroke="white"/>
<path d="M24.148 20.259C23.4977 19.6138 22.685 19.619 22.04 20.259C21.547 20.7468 21.0541 21.2346 20.5664 21.7381C20.4353 21.8745 20.3252 21.9007 20.1574 21.8116C19.8375 21.6385 19.5019 21.4968 19.1925 21.308C17.761 20.4111 16.5654 19.2519 15.5061 17.951C14.9765 17.3006 14.5098 16.6135 14.1847 15.832C14.1165 15.6746 14.127 15.5697 14.2581 15.4438C14.751 14.9665 15.2334 14.4787 15.7159 13.9909C16.3923 13.3142 16.3871 12.517 15.7106 11.8298C15.3278 11.4417 14.9398 11.0588 14.5517 10.6706C14.1532 10.272 13.7599 9.87334 13.3561 9.47994C12.7059 8.84002 11.8931 8.84002 11.2481 9.47994C10.7552 9.96775 10.2728 10.4713 9.76936 10.9486C9.30265 11.3945 9.06144 11.9347 9.01424 12.5694C8.93558 13.5975 9.19253 14.5731 9.54387 15.5225C10.2728 17.4895 11.3845 19.2309 12.7269 20.8307C14.5465 22.997 16.7175 24.707 19.2555 25.9396C20.3986 26.4956 21.5837 26.9205 22.8737 26.9939C23.7599 27.0411 24.5308 26.8208 25.1496 26.1284C25.5743 25.6563 26.0463 25.2262 26.4972 24.7699C27.1632 24.0985 27.1684 23.2855 26.5077 22.6246C25.7316 21.8378 24.9398 21.0458 24.148 20.259Z" fill="white"/>
</svg>
