<svg width="30" height="30" viewBox="0 0 30 30" fill="none" xmlns="http://www.w3.org/2000/svg">
  <g clip-path="url(#clip340)" fill="#747474">
    <path d="M26.723 15.007h-.241c-1.328-4.95-5.768-8.636-11.081-8.813-1.04-.298-1.759-1.331-1.759-2.542 0-1.044.848-1.894 1.89-1.894a1.34 1.34 0 011.336 1.34.879.879 0 001.758 0A3.1 3.1 0 0015.532 0a3.654 3.654 0 00-3.648 3.652c0 1.031.33 1.988.897 2.744-4.488.852-8.09 4.238-9.263 8.61h-.241A3.28 3.28 0 000 18.282a3.28 3.28 0 003.277 3.275h.348C5.11 26.438 9.647 30 15 30s9.89-3.562 11.375-8.444h.348A3.28 3.28 0 0030 18.281a3.28 3.28 0 00-3.277-3.274zM1.758 18.28a1.52 1.52 0 011.428-1.514 11.995 11.995 0 00.048 3.03 1.52 1.52 0 01-1.476-1.516zM15 28.242c-5.586 0-10.13-4.553-10.13-10.149C4.87 12.497 9.414 7.945 15 7.945c5.586 0 10.13 4.552 10.13 10.148S20.586 28.243 15 28.243zm11.766-8.445a11.971 11.971 0 00.048-3.03 1.52 1.52 0 011.428 1.514 1.52 1.52 0 01-1.476 1.516z"></path>
    <path d="M12.79 18.083c.002-.78-.305-1.472-.866-1.948a2.778 2.778 0 00-1.794-.637h-.009c-.673 0-1.308.222-1.79.627-.562.472-.874 1.163-.876 1.943a.879.879 0 001.758.005c0-.137.046-.817.907-.817h.005c.865.002.907.685.907.822a.879.879 0 00.876.882h.003a.88.88 0 00.879-.877zM21.31 15.874a2.9 2.9 0 00-2.853-.008c-.79.453-1.244 1.256-1.247 2.202 0 .485.391.88.877.881h.002a.879.879 0 00.88-.876c0-.319.12-.542.363-.682a1.16 1.16 0 011.095.003c.243.142.361.365.36.684a.879.879 0 00.877.882h.002a.879.879 0 00.879-.877c.003-.946-.447-1.751-1.234-2.209zM16.936 22.849a.879.879 0 00-.88.878 1.057 1.057 0 01-2.113 0 .879.879 0 00-1.758 0A2.817 2.817 0 0015 26.54a2.817 2.817 0 002.814-2.813.879.879 0 00-.878-.878z"></path>
  </g>
  <defs>
    <clipPath id="clip340">
      <path fill="#fff" d="M0 0h30v30H0z"></path>
    </clipPath>
  </defs>
</svg>