<svg width="23" height="23" viewBox="0 0 23 23" fill="none" xmlns="http://www.w3.org/2000/svg">
  <path d="M11.366 18.193a.905.905 0 01-.857-.621l-1.411-3.67-3.715-1.429a.898.898 0 01-.038-1.662l9.973-4.357a.899.899 0 011.185 1.179L12.19 17.65a.899.899 0 01-.821.543h-.003zM8.07 11.582l2.046.786a.899.899 0 01.516.516l.78 2.03 2.541-5.903-5.883 2.57zm9.38 9.76a.899.899 0 00-.93-1.536 9.684 9.684 0 01-5.02 1.397c-5.35 0-9.703-4.353-9.703-9.703S6.15 1.797 11.5 1.797s9.703 4.353 9.703 9.703a9.664 9.664 0 01-1.645 5.385.898.898 0 001.494 1A11.455 11.455 0 0023 11.5c0-3.072-1.196-5.96-3.368-8.132A11.425 11.425 0 0011.5 0C8.428 0 5.54 1.196 3.368 3.368A11.425 11.425 0 000 11.5c0 3.072 1.196 5.96 3.368 8.132A11.425 11.425 0 0011.5 23c2.103 0 4.16-.573 5.95-1.657z" fill="#49AADA"></path>
</svg>