<svg width="20" height="21" viewBox="0 0 20 21" fill="none" xmlns="http://www.w3.org/2000/svg">
<path d="M17.0741 3.91744C13.1735 0.0158026 6.82686 0.0158026 2.92623 3.91744C-0.975408 7.81907 -0.975408 14.1647 2.92623 18.0654C6.82786 21.967 13.1735 21.966 17.0741 18.0654C20.9748 14.1647 20.9758 7.81807 17.0741 3.91744V3.91744ZM4.02268 16.9699C0.726304 13.6735 0.725304 8.31028 4.02268 5.0139C7.31906 1.71651 12.6823 1.71751 15.9777 5.0139C19.2741 8.30928 19.2751 13.6735 15.9777 16.9689C12.6823 20.2663 7.31906 20.2663 4.02268 16.9689V16.9699Z" fill="#777777"/>
<path d="M13.3374 13.1348L11.1455 10.9428L13.3364 8.75092C13.4084 8.679 13.4655 8.59359 13.5045 8.49958C13.5435 8.40558 13.5636 8.30482 13.5637 8.20305C13.5637 8.10128 13.5437 8.0005 13.5048 7.90646C13.4659 7.81242 13.4088 7.72696 13.3369 7.65497C13.265 7.58297 13.1796 7.52585 13.0856 7.48686C12.9916 7.44787 12.8908 7.42778 12.789 7.42773C12.6873 7.42769 12.5865 7.44769 12.4925 7.48659C12.3984 7.52549 12.313 7.58254 12.241 7.65446L10.05 9.84638L7.85713 7.65547C7.7852 7.58347 7.69979 7.52635 7.60579 7.48736C7.51178 7.44837 7.41102 7.42828 7.30925 7.42823C7.20748 7.42819 7.1067 7.44819 7.01266 7.48709C6.91862 7.52599 6.83316 7.58304 6.76117 7.65497C6.68917 7.72689 6.63205 7.8123 6.59306 7.9063C6.55407 8.00031 6.53398 8.10107 6.53394 8.20284C6.53389 8.30461 6.55389 8.40539 6.59279 8.49943C6.63169 8.59347 6.68874 8.67893 6.76067 8.75092L8.95158 10.9418L6.76067 13.1348C6.68874 13.2068 6.63169 13.2922 6.59279 13.3863C6.55389 13.4803 6.53389 13.5811 6.53394 13.6828C6.53398 13.7846 6.55407 13.8854 6.59306 13.9794C6.63205 14.0734 6.68917 14.1588 6.76117 14.2307C6.83316 14.3026 6.91862 14.3597 7.01266 14.3986C7.1067 14.4375 7.20748 14.4575 7.30925 14.4574C7.41102 14.4574 7.51178 14.4373 7.60579 14.3983C7.69979 14.3593 7.7852 14.3022 7.85713 14.2302L10.048 12.0393L12.24 14.2302C12.3119 14.3022 12.3973 14.3593 12.4913 14.3983C12.5853 14.4373 12.6861 14.4574 12.7878 14.4574C12.8896 14.4575 12.9904 14.4375 13.0844 14.3986C13.1785 14.3597 13.2639 14.3026 13.3359 14.2307C13.4079 14.1588 13.465 14.0734 13.504 13.9794C13.543 13.8854 13.5631 13.7846 13.5632 13.6828C13.5632 13.5811 13.5432 13.4803 13.5043 13.3863C13.4654 13.2922 13.4083 13.2068 13.3364 13.1348H13.3374Z" fill="#777777"/>
</svg>
