<svg width="11" height="11" viewBox="0 0 11 11" fill="none" xmlns="http://www.w3.org/2000/svg">
  <path d="M6.71152 5.50114L10.8243 1.38821C10.9374 1.27499 10.9998 1.12394 11 0.962878C11 0.801723 10.9376 0.650496 10.8243 0.537455L10.4639 0.177138C10.3506 0.0636499 10.1995 0.00149536 10.0383 0.00149536C9.87728 0.00149536 9.72624 0.0636499 9.61293 0.177138L5.50018 4.2898L1.38725 0.177138C1.27412 0.0636499 1.12298 0.00149536 0.961829 0.00149536C0.800854 0.00149536 0.649715 0.0636499 0.536585 0.177138L0.176 0.537455C-0.0586667 0.772122 -0.0586667 1.15381 0.176 1.38821L4.28884 5.50114L0.176 9.61389C0.0627805 9.72729 0.000447154 9.87834 0.000447154 10.0394C0.000447154 10.2005 0.0627805 10.3515 0.176 10.4648L0.536496 10.8251C0.649626 10.9385 0.800854 11.0008 0.96174 11.0008C1.12289 11.0008 1.27403 10.9385 1.38716 10.8251L5.50009 6.71239L9.61284 10.8251C9.72615 10.9385 9.8772 11.0008 10.0382 11.0008H10.0383C10.1994 11.0008 10.3505 10.9385 10.4638 10.8251L10.8242 10.4648C10.9373 10.3516 10.9997 10.2005 10.9997 10.0394C10.9997 9.87834 10.9373 9.72729 10.8242 9.61398L6.71152 5.50114Z" fill="#49AADA"></path>
</svg>