<svg width="30" height="30" viewBox="0 0 30 30" fill="none" xmlns="http://www.w3.org/2000/svg">
  <g clip-path="url(#clip556)">
    <path d="M17.11 22.266a1.758 1.758 0 113.515 0 1.758 1.758 0 01-3.516 0zm6.835-13.222C22.908 7.582 22.09 6.427 22.09 5.04c0-.647-.583-1.172-1.23-1.172-.272 0-.593.094-.802.266-.308.252-1.642 1.522-3.052 3.41-1.08-1.512-1.537-3.468-1.537-6.371 0-.647-.642-1.172-1.29-1.172-.221 0-.55.063-.738.182-1.15.727-3.705 2.719-5.985 5.57-1.365 1.708-2.449 3.492-3.22 5.302-.944 2.218-1.423 4.486-1.423 6.741C2.813 24.525 8.28 30 15 30c3.083 0 5.887-1.056 8.108-3.055a1.172 1.172 0 00-1.568-1.742c-1.783 1.605-4.045 2.453-6.54 2.453-5.428 0-9.844-4.423-9.844-9.86 0-3.592 1.39-7.152 4.131-10.58a27 27 0 013.919-3.954c.212 2.436.928 4.964 3.097 7.022a1.172 1.172 0 001.785-.206 24.868 24.868 0 012.109-2.747c.432 1.087 1.122 2.06 1.835 3.068 1.343 1.894 2.732 4.004 2.811 7.218v.02c.006.91-.166 1.995-.423 2.902a1.172 1.172 0 102.254.64c.286-1.007.514-2.37.514-3.425 0-4.133-1.799-6.67-3.243-8.71zM10.387 23.756a1.17 1.17 0 001.65-.158l7.734-9.376a1.172 1.172 0 00-1.808-1.491l-7.734 9.375c-.412.499-.341 1.238.158 1.65zm2.504-9.694a1.758 1.758 0 10-3.516 0 1.758 1.758 0 003.516 0z" fill="#F08929"></path>
  </g>
  <defs>
    <clipPath id="clip556">
      <path fill="#fff" d="M0 0h30v30H0z"></path>
    </clipPath>
  </defs>
</svg>