<svg viewBox="0 0 22.1 24" fill="none" xmlns="http://www.w3.org/2000/svg">
  <path d="M19.302 22.25a1.016 1.016 0 01-.215 1.42A11.891 11.891 0 0111.984 26c-3.2 0-6.21-1.247-8.474-3.51A11.906 11.906 0 010 14.016c0-2.13.566-4.222 1.637-6.05a12.05 12.05 0 012.6-3.091H2.69a1.016 1.016 0 110-2.031h2.641c1.4 0 2.54 1.139 2.54 2.539v2.64a1.016 1.016 0 11-2.032 0V6.187a10.002 10.002 0 00-3.809 7.829c0 5.488 4.465 9.953 9.953 9.953 2.14 0 4.18-.67 5.898-1.935a1.016 1.016 0 011.42.215zM20.459 5.54A11.894 11.894 0 0013 2.074V1.016a1.016 1.016 0 10-2.031 0v2.03c0 .562.454 1.017 1.015 1.017 5.489 0 9.954 4.464 9.954 9.953a9.962 9.962 0 01-1.227 4.791 1.015 1.015 0 101.78.98 12 12 0 001.478-5.771c0-3.202-1.247-6.211-3.51-8.475zm-8.475 10.506a2.034 2.034 0 001.896-2.76l3.203-3.957a1.015 1.015 0 10-1.579-1.278l-3.202 3.957a2.034 2.034 0 00-2.348 2.006c0 1.12.91 2.032 2.03 2.032zM18.85 2.456l2.79 2.326a1.012 1.012 0 001.43-.13c.36-.431.302-1.072-.13-1.431L20.15.896a1.016 1.016 0 10-1.3 1.56z" fill="#000"></path>
</svg>