<svg width="18" height="14" viewBox="0 0 18 14" fill="none" xmlns="http://www.w3.org/2000/svg">
<path d="M16.2851 0.015625H1.56923C0.705038 0.015625 0 0.719896 0 1.58486V12.0464C0 12.9084 0.701899 13.6156 1.56923 13.6156H16.2851C17.1472 13.6156 17.8544 12.9137 17.8544 12.0464V1.58486C17.8544 0.722825 17.1525 0.015625 16.2851 0.015625ZM16.0684 1.06178L8.96045 8.1698L1.79098 1.06178H16.0684ZM1.04615 11.8298V1.79649L6.0844 6.79153L1.04615 11.8298ZM1.78589 12.5695L6.8273 7.52806L8.59381 9.27939C8.79829 9.48213 9.12828 9.48147 9.33194 9.27778L11.0544 7.55536L16.0685 12.5695H1.78589ZM16.8082 11.8297L11.7941 6.81562L16.8082 1.80148V11.8297Z" fill="#DCDCDC"/>
</svg>
