<svg width="252" height="313" viewBox="0 0 252 313" fill="none" xmlns="http://www.w3.org/2000/svg">
  <path d="M124.645 19.5649V125.214C124.645 131.927 122.692 138.035 118.785 143.538C114.878 149.04 109.789 152.892 103.516 155.093V283.688C103.516 289.411 101.425 294.363 97.2434 298.545C93.0616 302.727 88.1095 304.818 82.387 304.818H61.258C55.5356 304.818 50.5835 302.727 46.4017 298.545C42.2199 294.363 40.129 289.411 40.129 283.688V155.093C33.8563 152.892 28.7667 149.04 24.86 143.538C20.9533 138.035 19 131.927 19 125.214V19.5649C19 16.7036 20.0454 14.2274 22.1363 12.1365C24.2272 10.0455 26.7033 9 29.5645 9C32.4257 9 34.9018 10.0455 36.9927 12.1365C39.0836 14.2274 40.129 16.7036 40.129 19.5649V88.237C40.129 91.0984 41.1745 93.5745 43.2653 95.6655C45.3562 97.7565 47.8323 98.802 50.6935 98.802C53.5547 98.802 56.0308 97.7565 58.1217 95.6655C60.2126 93.5745 61.258 91.0984 61.258 88.237V19.5649C61.258 16.7036 62.3035 14.2274 64.3944 12.1365C66.4853 10.0455 68.9613 9 71.8225 9C74.6837 9 77.1598 10.0455 79.2507 12.1365C81.3416 14.2274 82.387 16.7036 82.387 19.5649V88.237C82.387 91.0984 83.4325 93.5745 85.5234 95.6655C87.6143 97.7565 90.0903 98.802 92.9515 98.802C95.8128 98.802 98.2888 97.7565 100.38 95.6655C102.471 93.5745 103.516 91.0984 103.516 88.237V19.5649C103.516 16.7036 104.561 14.2274 106.652 12.1365C108.743 10.0455 111.219 9 114.081 9C116.942 9 119.418 10.0455 121.509 12.1365C123.6 14.2274 124.645 16.7036 124.645 19.5649ZM251.419 19.5649V283.688C251.419 289.411 249.328 294.363 245.146 298.545C240.965 302.727 236.013 304.818 230.29 304.818H209.161C203.439 304.818 198.487 302.727 194.305 298.545C190.123 294.363 188.032 289.411 188.032 283.688V199.169H151.056C149.626 199.169 148.388 198.646 147.342 197.601C146.297 196.555 145.774 195.317 145.774 193.886V61.8247C145.774 47.2979 150.946 34.8621 161.291 24.5173C171.635 14.1724 184.07 9 198.597 9H240.855C243.716 9 246.192 10.0455 248.283 12.1365C250.374 14.2274 251.419 16.7036 251.419 19.5649Z" fill="#312D2D" />
</svg>