<svg width="224" height="19" viewBox="0 0 224 19" fill="none" xmlns="http://www.w3.org/2000/svg">
<g clip-path="url(#clip0_7_2)">
<path d="M69.195 8.33936C68.6892 8.33936 68.3016 8.50189 68.3016 8.50189L68.1945 9.13769C68.1945 9.13769 68.5143 9.00766 68.9985 9.00766C69.2734 9.00766 69.4742 9.03826 69.4742 9.2615C69.4742 9.39727 69.4498 9.44746 69.4498 9.44746C69.4498 9.44746 69.2333 9.42978 69.1329 9.42978C68.4947 9.42978 67.8245 9.70131 67.8245 10.5231C67.8245 11.1703 68.2638 11.3181 68.5368 11.3181C69.0573 11.3181 69.282 10.9806 69.2935 10.9796L69.2691 11.2616H69.9188L70.2085 9.22995C70.208 8.36708 69.456 8.33936 69.195 8.33936V8.33936ZM68.8307 10.6999C68.6018 10.6999 68.542 10.5255 68.542 10.4212C68.542 10.2195 68.6515 9.97666 69.1922 9.97666C69.3184 9.97714 69.3317 9.99005 69.3528 9.99387C69.3671 10.1182 69.2753 10.6999 68.8307 10.6999ZM71.5415 9.02056C71.6452 9.02056 72.0453 9.05355 72.0453 9.05355L72.1385 8.40245C72.1385 8.40245 71.8794 8.3446 71.4578 8.3446C70.9119 8.3446 70.3583 8.56259 70.3583 9.30787C70.3583 10.153 71.2819 10.067 71.2819 10.4236C71.2819 10.6607 71.0237 10.6803 70.8249 10.6803C70.4802 10.6803 70.1704 10.5627 70.1695 10.5675L70.071 11.2134C70.0887 11.2181 70.2799 11.3032 70.899 11.3032C71.0648 11.3032 72.0147 11.3463 72.0147 10.3658C72.0147 9.44889 71.1356 9.63007 71.1356 9.2615C71.1356 9.07793 71.2785 9.02056 71.5415 9.02056ZM73.0936 9.10361H73.4842L73.5783 8.40949H73.2103L73.2853 7.97925H72.5477C72.5314 7.99502 72.1122 10.4058 72.1122 10.6984C72.1122 11.1339 72.3565 11.327 72.7002 11.3237C72.9693 11.3217 73.1792 11.2472 73.2533 11.2266L73.3455 10.5994C73.2949 10.5994 73.2208 10.6214 73.1553 10.6214C72.8986 10.6214 72.8704 10.4842 72.8866 10.3833L73.0936 9.10361ZM76.1849 5.07666H74.8683C74.6915 5.31568 74.5251 5.57 74.3745 5.81859H76.7231C76.5601 5.55949 76.3799 5.31186 76.1849 5.07666V5.07666ZM86.4574 13.4224C86.443 13.4008 86.4311 13.3846 86.4215 13.3746C86.4162 13.3698 86.4095 13.3645 86.4009 13.3621C86.4215 13.3607 86.4387 13.353 86.4511 13.3401C86.4631 13.3272 86.4698 13.3119 86.4698 13.2942C86.4698 13.2818 86.466 13.2699 86.4588 13.2589C86.4516 13.2479 86.4411 13.2397 86.4282 13.2354C86.4162 13.2307 86.3957 13.2283 86.3675 13.2283H86.2843V13.4697H86.3235V13.3674H86.346C86.3594 13.3674 86.3704 13.3702 86.3766 13.376C86.3866 13.3841 86.4009 13.4028 86.4177 13.4319L86.4387 13.4702H86.487L86.4574 13.4224V13.4224ZM86.3704 13.3354H86.3225V13.2627H86.3675C86.3861 13.2627 86.3986 13.2641 86.4057 13.267C86.4134 13.2699 86.4182 13.2742 86.4225 13.2794C86.4263 13.2852 86.4282 13.2914 86.4282 13.2981C86.4282 13.3091 86.4244 13.3186 86.4162 13.3253C86.4081 13.3315 86.3923 13.3354 86.3704 13.3354V13.3354ZM77.1224 6.54663H73.964C73.7623 6.92859 73.6284 7.21733 73.5906 7.28904H77.4217C77.3352 7.03376 77.2357 6.78661 77.1224 6.54663ZM66.9205 7.75183L66.1934 9.90782L66.1556 7.75183H65.079L64.4891 11.265H65.2009L65.6498 8.61661L65.7158 11.265H66.224L67.1719 8.61661L66.7517 11.265H67.507L68.0888 7.75183H66.9205ZM81.1547 8.33936C80.648 8.33936 80.2608 8.50189 80.2608 8.50189L80.1532 9.13769C80.1532 9.13769 80.4735 9.00766 80.9573 9.00766C81.2322 9.00766 81.4334 9.03826 81.4334 9.2615C81.4334 9.39727 81.4081 9.44746 81.4081 9.44746C81.4081 9.44746 81.192 9.42978 81.0907 9.42978C80.4529 9.42978 79.7832 9.70131 79.7832 10.5231C79.7832 11.1703 80.223 11.3181 80.4955 11.3181C81.0156 11.3181 81.2403 10.9806 81.2522 10.9796L81.2279 11.2616H81.877L82.1667 9.22995C82.1682 8.36708 81.4157 8.33936 81.1547 8.33936V8.33936ZM80.7914 10.6999C80.5619 10.6999 80.5027 10.5255 80.5027 10.4212C80.5027 10.2195 80.6121 9.97666 81.1528 9.97666C81.2785 9.97714 81.2919 9.99005 81.3134 9.99387C81.3273 10.1182 81.235 10.6999 80.7914 10.6999V10.6999ZM86.4807 10.9413C86.4611 10.905 86.4325 10.8773 86.3966 10.8581C86.3612 10.8385 86.3249 10.829 86.2867 10.829C86.2498 10.8295 86.213 10.839 86.1767 10.8581C86.1409 10.8773 86.1131 10.905 86.093 10.9413C86.073 10.9772 86.0629 11.0145 86.0629 11.0532C86.0629 11.0919 86.073 11.1287 86.093 11.1641C86.1126 11.1995 86.1404 11.2277 86.1757 11.2477C86.2116 11.2673 86.2484 11.2774 86.2867 11.2774C86.3259 11.2774 86.3631 11.2673 86.398 11.2477C86.4334 11.2277 86.4611 11.1995 86.4807 11.1641C86.5013 11.1287 86.5104 11.0919 86.5104 11.0532C86.5104 11.0135 86.5008 10.9762 86.4807 10.9413V10.9413ZM86.4497 11.1454C86.4334 11.1751 86.4105 11.1976 86.3804 11.2152C86.3507 11.2315 86.3201 11.2401 86.2881 11.2401C86.2556 11.2401 86.2245 11.2315 86.1953 11.2152C86.1652 11.1985 86.1428 11.1756 86.1256 11.1454C86.1083 11.1153 86.1007 11.0847 86.1007 11.0527C86.1007 11.0207 86.1088 10.9896 86.1265 10.9595C86.1432 10.9298 86.1657 10.9069 86.1963 10.8902C86.2269 10.8734 86.257 10.8663 86.2881 10.8663C86.3192 10.8663 86.3498 10.8739 86.3789 10.8902C86.4095 10.9069 86.432 10.9294 86.4487 10.9595C86.4654 10.9896 86.4745 11.0207 86.4745 11.0527C86.4745 11.0847 86.4664 11.1158 86.4497 11.1454V11.1454Z" fill="#D8D8D8"/>
<path d="M86.3626 11.1293C86.3487 11.1068 86.3363 11.091 86.3272 11.0815C86.3214 11.0762 86.3152 11.0719 86.3066 11.069C86.3272 11.0676 86.3439 11.0599 86.3563 11.047C86.3683 11.0346 86.3755 11.0184 86.3755 11.0012C86.3755 10.9892 86.3716 10.9768 86.364 10.9658C86.3563 10.9553 86.3463 10.9471 86.3344 10.9424C86.3224 10.9376 86.3014 10.9352 86.2732 10.9352H86.189V11.1761H86.2282V11.0738H86.2507C86.2646 11.0738 86.2756 11.0767 86.2822 11.0819C86.2923 11.0905 86.3057 11.1087 86.3234 11.1388L86.3439 11.1766H86.3922L86.3626 11.1293V11.1293ZM86.2765 11.0408H86.2292V10.9677H86.2732C86.2923 10.9677 86.3047 10.9691 86.3124 10.9715C86.3186 10.9749 86.3243 10.9782 86.3281 10.9844C86.3324 10.9906 86.3344 10.9959 86.3344 11.004C86.3344 11.0145 86.3301 11.0236 86.3229 11.0303C86.3138 11.0384 86.299 11.0408 86.2765 11.0408V11.0408ZM83.6615 8.37427C83.3312 8.37427 83.086 8.82506 83.086 8.82506L83.1519 8.4106H82.4645L82.0042 11.2703H82.7614C82.977 10.0484 83.0162 9.05739 83.5282 9.23857C83.6185 8.76627 83.7055 8.58317 83.8035 8.38383C83.8035 8.38431 83.7576 8.37427 83.6615 8.37427ZM85.5643 7.75571L85.4051 8.74287C85.4051 8.74287 85.1278 8.359 84.6928 8.359C84.0164 8.35948 83.4532 9.17454 83.4532 10.1106C83.4532 10.7153 83.7539 11.3076 84.3677 11.3076C84.8099 11.3076 85.0547 10.9992 85.0547 10.9992L85.0227 11.2626H85.7402L86.3043 7.75427L85.5643 7.75571V7.75571ZM84.6288 10.5905C84.363 10.5905 84.2387 10.3677 84.2387 10.0178C84.2387 9.4456 84.4954 9.06842 84.82 9.06842C85.0848 9.0689 85.2211 9.25103 85.2211 9.68032C85.2211 10.0699 85.0284 10.5905 84.6288 10.5905V10.5905ZM74.7892 13.8817C75.0086 14.1504 75.2409 14.4066 75.4976 14.6389C75.5034 14.6337 75.5096 14.6289 75.5153 14.6241C75.5153 14.6241 75.5149 14.6241 75.5149 14.6236H75.5163C75.7687 14.3937 76.0044 14.1461 76.22 13.8817H74.7892ZM75.7329 10.0785C75.7329 10.0785 75.83 9.60042 75.83 9.40585C75.83 8.91968 75.5881 8.3269 74.7783 8.3269C74.0363 8.32738 73.4871 9.12667 73.4871 10.0302C73.4871 11.0728 74.175 11.3204 74.7615 11.3204C75.3027 11.3204 75.5407 11.199 75.5407 11.199L75.6708 10.4877C75.6708 10.4877 75.2592 10.6693 74.8873 10.6693C74.0951 10.6693 74.2338 10.0785 74.2338 10.0785H75.7329V10.0785ZM74.7807 8.989C75.197 8.989 75.1201 9.457 75.1201 9.49429H74.3012C74.3012 9.44601 74.3786 8.989 74.7807 8.989ZM79.193 8.42495C79.5683 8.42495 79.8699 8.63577 79.8699 8.63577L79.9904 7.85416C79.9904 7.85416 79.5439 7.67346 79.1595 7.67346C78.3081 7.67346 77.4797 8.41252 77.4797 9.80029C77.4797 10.7205 77.9266 11.3281 78.8072 11.3281C79.0558 11.3281 79.4526 11.2273 79.4526 11.2273L79.5845 10.4222C79.5845 10.4222 79.2231 10.6034 78.9745 10.6034C78.4506 10.6029 78.2407 10.2033 78.2407 9.77495C78.2407 8.90347 78.691 8.42495 79.193 8.42495V8.42495ZM73.8642 12.426C73.9842 12.6837 74.1238 12.9289 74.2734 13.1679H76.732C76.8811 12.9299 77.0155 12.6823 77.1355 12.426H73.8642ZM77.4661 8.37507C77.1358 8.37507 76.891 8.82586 76.891 8.82586L76.9575 8.4114H76.2705L75.8102 11.2711H76.5674C76.782 10.0497 76.8222 9.05819 77.3342 9.23937C77.4241 8.76659 77.5106 8.5835 77.6086 8.38367C77.6086 8.38367 77.5627 8.37411 77.4661 8.37507Z" fill="#D8D8D8"/>
<path d="M88.3049 0.751343H62.6951C62.3107 0.751343 62 1.07148 62 1.46637V18.0363C62 18.4312 62.3107 18.7513 62.6951 18.7513H88.3049C88.6893 18.7513 89 18.4312 89 18.0363V1.46637C89 1.07148 88.6893 0.751343 88.3049 0.751343ZM86.5758 13.8219C86.5558 13.8593 86.5285 13.8878 86.4931 13.908C86.4578 13.9281 86.4205 13.9385 86.3822 13.9385C86.343 13.9385 86.3057 13.9281 86.2704 13.908C86.2355 13.8878 86.2077 13.8593 86.1872 13.8219C86.1676 13.786 86.1575 13.7477 86.1575 13.7078C86.1575 13.668 86.1676 13.6301 86.1877 13.5927C86.2073 13.5554 86.2359 13.5273 86.2713 13.5072C86.3072 13.488 86.3435 13.4777 86.3817 13.4777C86.4195 13.4777 86.4558 13.488 86.4912 13.5072C86.5271 13.5273 86.5553 13.5554 86.5749 13.5927C86.595 13.6301 86.6045 13.6685 86.6045 13.7078C86.6045 13.7472 86.5959 13.787 86.5758 13.8219V13.8219ZM87.0768 9.75159C87.0778 13.6882 83.9772 16.8807 80.1499 16.8817C78.3601 16.8822 76.7281 16.1843 75.4986 15.038C74.269 16.1824 72.6403 16.8797 70.8534 16.8797C67.0286 16.8797 63.9241 13.6867 63.9241 9.75159C63.9241 5.83224 67.0042 2.64856 70.8089 2.62299H70.8534C72.6403 2.62299 74.2695 3.32031 75.499 4.46464C76.7281 3.31982 78.3582 2.62201 80.1466 2.62152C83.9738 2.62004 87.0768 5.81109 87.0778 9.74815C87.0768 9.74913 87.0768 9.74962 87.0768 9.75159V9.75159ZM132.757 1.00708H106.243C105.556 1.00708 105 1.56241 105 2.24741V17.2546C105 17.9396 105.556 18.4949 106.243 18.4949H132.757C133.444 18.4949 134 17.9396 134 17.2546V2.24741C134 1.56241 133.444 1.00708 132.757 1.00708ZM131.95 16.4483H107.05V3.05369H131.95V16.4483Z" fill="#D8D8D8"/>
<path d="M123.752 12.8455C123.788 12.9003 123.848 12.9332 123.914 12.9332H125.304C125.384 12.9332 125.456 12.8836 125.485 12.8085C125.656 12.3587 125.765 12.0721 125.802 11.9796C125.894 11.9796 126.321 11.9801 126.778 11.9808H126.804C127.33 11.9814 127.889 11.9822 128.022 11.9822C128.062 12.1507 128.16 12.597 128.2 12.781C128.219 12.8699 128.298 12.9331 128.389 12.9331H129.601C129.66 12.9331 129.715 12.9066 129.752 12.8609C129.789 12.8152 129.803 12.7553 129.79 12.6982L128.472 6.73838C128.453 6.64976 128.374 6.58667 128.283 6.58667H127.099C126.626 6.58667 126.354 6.74424 126.191 7.11345L123.737 12.6617C123.71 12.7217 123.716 12.7907 123.752 12.8455ZM127.223 8.29868L127.34 8.84724L127.741 10.6799H126.301L127.223 8.29868V8.29868ZM119.035 12.6417C119.492 12.8018 120.13 12.9014 120.743 12.9079H120.745C122.5 12.9075 123.642 12.0864 123.655 10.8158C123.662 10.1172 123.215 9.5889 122.255 9.15544C121.668 8.87052 121.308 8.68131 121.311 8.39156C121.311 8.13107 121.64 7.86742 122.273 7.86735C122.288 7.8671 122.306 7.86697 122.324 7.86697C122.849 7.86697 123.22 7.9858 123.453 8.07519C123.507 8.09594 123.568 8.09137 123.618 8.06269C123.669 8.03401 123.704 7.98426 123.714 7.92709L123.87 7.007C123.886 6.91207 123.83 6.81978 123.738 6.79046C123.45 6.69843 122.984 6.58875 122.4 6.58875C120.746 6.58875 119.584 7.41958 119.575 8.60842C119.564 9.48875 120.405 9.97989 121.04 10.2728C121.69 10.5722 121.908 10.7638 121.905 11.032C121.901 11.4427 121.384 11.6296 120.906 11.6296C120.225 11.6296 119.858 11.5272 119.339 11.3117C119.285 11.2891 119.223 11.2925 119.171 11.321C119.12 11.3493 119.084 11.3997 119.074 11.4577L118.908 12.4265C118.892 12.5196 118.945 12.6105 119.035 12.6417V12.6417ZM109.333 6.94387C110.443 7.34246 111.35 7.97494 111.958 8.77297C111.995 8.82234 112.053 8.84934 112.112 8.84934C112.139 8.84934 112.167 8.84367 112.193 8.83188C112.275 8.79424 112.32 8.70453 112.302 8.61605L111.979 7.09222C111.978 7.08893 111.977 7.08571 111.976 7.08249C111.86 6.64729 111.493 6.58258 111.226 6.57182C111.224 6.57175 111.221 6.57169 111.219 6.57169L109.399 6.56873C109.305 6.56873 109.224 6.6362 109.208 6.72868C109.192 6.82116 109.245 6.91203 109.333 6.94387ZM116.05 12.8619C116.087 12.9054 116.141 12.9305 116.198 12.9305H117.539C117.633 12.9305 117.714 12.8626 117.73 12.7697L118.748 6.80602C118.758 6.74989 118.742 6.69234 118.706 6.64884C118.669 6.60533 118.615 6.5802 118.558 6.5802H117.216C117.121 6.5802 117.041 6.64819 117.025 6.74106L116.007 12.7047C115.998 12.7609 116.013 12.8185 116.05 12.8619V12.8619Z" fill="#D8D8D8"/>
<path d="M110.694 7.9537C110.627 7.90266 110.535 7.90021 110.466 7.94745C110.397 7.99469 110.366 8.08098 110.39 8.16128L111.746 12.787C111.77 12.8695 111.846 12.9261 111.932 12.9261L113.494 12.9238C113.571 12.9238 113.641 12.8778 113.672 12.8069L116.236 6.85528C116.261 6.79554 116.255 6.72684 116.219 6.67257C116.184 6.61824 116.123 6.58557 116.058 6.58557L114.647 6.58628C114.568 6.58628 114.496 6.63507 114.467 6.70911L112.817 10.9167L112.639 10.2754C112.637 10.2669 112.634 10.2585 112.631 10.2504C112.37 9.64702 111.67 8.70282 110.694 7.9537V7.9537Z" fill="#D8D8D8"/>
<path d="M9.03469 4.47903C8.86969 4.13853 8.60869 3.8577 8.28469 3.64682C7.94669 3.43388 7.54769 3.28472 7.09169 3.19625C6.62769 3.10984 6.09169 3.07075 5.47069 3.06458L2.60369 3.06663C2.30569 3.07075 2.01369 3.3094 1.94369 3.60567L0.0146916 12.2488C-0.0553084 12.5409 0.131692 12.7857 0.429692 12.7857H1.80269C2.10069 12.7857 2.39569 12.5481 2.46169 12.2488L2.93269 10.1502C2.99569 9.85808 3.28969 9.61427 3.59069 9.61427H3.98369C5.66269 9.61221 6.96269 9.25938 7.89669 8.55266C8.83569 7.84492 9.29869 6.90984 9.29869 5.75153C9.29769 5.24438 9.21669 4.8185 9.03469 4.47903V4.47903ZM6.07369 7.3028C5.65869 7.61552 5.08169 7.77188 4.33769 7.77188H4.00169C3.70269 7.77188 3.51969 7.52911 3.58469 7.23285L3.99769 5.39766C4.05569 5.10345 4.35669 4.85965 4.65169 4.86171L5.10169 4.85862C5.62669 4.85862 6.02769 4.95223 6.29569 5.13328C6.56069 5.31227 6.69369 5.59722 6.69169 5.97475C6.69969 6.54877 6.48669 6.99008 6.07369 7.3028ZM15.6557 5.71436C15.1377 5.41398 14.3197 5.26379 13.2017 5.26379C12.6487 5.26379 12.0977 5.30803 11.5407 5.3965C11.1297 5.4613 11.0897 5.47365 10.8367 5.53022C10.3147 5.6475 10.2327 6.18345 10.2327 6.18345L10.0647 6.89427C9.96968 7.34793 10.2237 7.33044 10.3297 7.29238C10.5577 7.22243 10.6847 7.15042 11.1507 7.04344C11.5957 6.93954 12.0647 6.86136 12.4367 6.8665C12.9857 6.8665 13.4057 6.92616 13.6857 7.04755C13.9617 7.17099 14.0997 7.38291 14.0997 7.68946L14.0757 7.88902L13.8777 8.01451C13.0987 8.06492 12.5357 8.139 11.8527 8.24084C11.1847 8.33651 10.5987 8.50417 10.1117 8.73357C9.58868 8.97017 9.20068 9.28805 8.92968 9.69233C8.66768 10.0987 8.53668 10.5914 8.53668 11.1695C8.53668 11.7137 8.72668 12.1633 9.09568 12.511C9.46668 12.8525 9.95668 13.0191 10.5427 13.0191C10.9137 13.0171 11.2007 12.9872 11.4047 12.9368L12.0697 12.7013L12.6327 12.3803L13.1507 12.0285L13.1577 12.0388L13.1057 12.2651L13.1027 12.2743V12.2764C13.0467 12.5521 13.2087 12.7784 13.4697 12.8052L13.4747 12.8113H14.7497L14.7677 12.8031C15.0417 12.7702 15.2987 12.5439 15.3587 12.2743L16.3597 7.81702L16.4117 7.45389L16.4357 7.11339C16.4397 6.48177 16.1747 6.01371 15.6557 5.71436V5.71436ZM13.4417 10.7262L13.2277 11.0163L12.6877 11.3033C12.4337 11.4092 12.1927 11.4627 11.9697 11.4627C11.6317 11.4627 11.3667 11.4123 11.1877 11.3094L10.9227 10.7797C10.9227 10.4927 10.9867 10.2653 11.1237 10.0904L11.7057 9.68307C11.9547 9.59666 12.2587 9.52362 12.6107 9.47321C12.9247 9.43309 13.5447 9.36006 13.6257 9.358L13.7207 9.52979C13.7017 9.62752 13.5257 10.3846 13.4417 10.7262V10.7262ZM40.5937 5.72052C40.0727 5.42014 39.2557 5.26892 38.1407 5.26892C37.5877 5.26892 37.0357 5.31315 36.4807 5.40471C36.0687 5.46643 36.0277 5.4798 35.7737 5.53535C35.2527 5.6516 35.1717 6.1896 35.1717 6.1896L35.0037 6.8994C34.9097 7.35306 35.1577 7.33248 35.2737 7.29751C35.5027 7.22756 35.6257 7.15863 36.0877 7.04753C36.5307 6.94467 37.0037 6.86854 37.3767 6.8706C37.9237 6.8706 38.3437 6.93129 38.6227 7.05268C38.9007 7.17612 39.0367 7.39009 39.0367 7.69356L39.0157 7.89209L38.8197 8.02068C38.0327 8.06903 37.4687 8.14309 36.7927 8.24494C36.1267 8.3406 35.5387 8.50725 35.0507 8.73768C34.5297 8.97531 34.1367 9.29317 33.8687 9.69847C33.6037 10.1048 33.4747 10.5965 33.4747 11.1695C33.4747 11.7178 33.6627 12.1674 34.0367 12.513C34.4097 12.8535 34.8947 13.0243 35.4807 13.0243C35.8497 13.0201 36.1367 12.9955 36.3417 12.9409L37.0047 12.7084L37.5727 12.3875L38.0867 12.0316L38.0957 12.0429L38.0487 12.2712L38.0437 12.2754L38.0457 12.2795C37.9837 12.5552 38.1467 12.7835 38.4107 12.8082L38.4127 12.8134H39.6867L39.7077 12.8062C39.9787 12.7722 40.2347 12.5459 40.2917 12.2733L41.2957 7.82214L41.3487 7.45696L41.3777 7.11543C41.3787 6.48587 41.1167 6.01987 40.5937 5.72052V5.72052ZM38.3847 10.7323L38.1617 11.0255L37.6267 11.3104C37.3727 11.4154 37.1307 11.4699 36.9117 11.4699C36.5627 11.4699 36.3047 11.4185 36.1307 11.3156L35.8627 10.7879C35.8627 10.4998 35.9277 10.2746 36.0587 10.0966C36.1917 9.9289 36.3947 9.79106 36.6467 9.69025C36.8927 9.60384 37.1967 9.53389 37.5507 9.48143C37.8627 9.44131 38.4807 9.3662 38.5607 9.36518L38.6577 9.53697C38.6437 9.63469 38.4667 10.3887 38.3847 10.7323V10.7323ZM33.9687 4.51009C33.7967 4.16753 33.5387 3.89081 33.2127 3.67479C32.8787 3.46082 32.4827 3.31063 32.0197 3.22422C31.5647 3.1409 31.0217 3.09563 30.4047 3.0946L27.5337 3.09666C27.2347 3.1018 26.9477 3.34046 26.8787 3.63364L24.9477 12.2809C24.8777 12.574 25.0697 12.8168 25.3617 12.8168L26.7367 12.8147C27.0287 12.8168 27.3277 12.5761 27.3967 12.2798L27.8617 10.1803C27.9297 9.88811 28.2247 9.64225 28.5217 9.6443H28.9147C30.5957 9.6443 31.8987 9.28838 32.8367 8.58372C33.7637 7.87083 34.2327 6.93781 34.2327 5.77847C34.2277 5.27338 34.1427 4.84647 33.9687 4.51009ZM31.0077 7.33797C30.5937 7.64452 30.0157 7.80088 29.2757 7.80088H28.9337C28.6387 7.80397 28.4477 7.55708 28.5137 7.26288L28.9297 5.43077C28.9907 5.13759 29.2887 4.89173 29.5857 4.89482L30.0307 4.89173C30.5587 4.89482 30.9547 4.98432 31.2247 5.16537C31.4937 5.34642 31.6207 5.63034 31.6237 6.00684C31.6267 6.58085 31.4197 7.02319 31.0077 7.33797ZM45.7417 3.70335C45.8047 3.40811 45.6247 3.16842 45.3297 3.17254H44.0997C43.8477 3.17254 43.6207 3.3649 43.5097 3.6015L43.4417 3.71055L43.3797 3.99035L41.6607 12.0286L41.6047 12.2755L41.6067 12.2816C41.5497 12.546 41.7077 12.7456 41.9517 12.7836L41.9727 12.8135H43.2497C43.4997 12.8135 43.7347 12.618 43.8417 12.3773L43.9077 12.2744L45.7457 3.70437L45.7417 3.70335V3.70335ZM24.9857 5.37194C24.6607 5.37606 23.3397 5.37194 23.3397 5.37194C23.0437 5.37194 22.6637 5.6178 22.4757 5.91098C22.4757 5.91098 20.5097 9.3818 20.3187 9.73052L20.0907 9.72744L19.4787 5.93464C19.4107 5.63632 19.1077 5.3812 18.7307 5.3812L17.5007 5.38326C17.2047 5.38326 17.0227 5.62603 17.0897 5.92229C17.0897 5.92229 18.0237 11.3898 18.2107 12.6767C18.2977 13.3865 18.1997 13.513 18.1997 13.513L16.9837 15.6918C16.8037 15.9881 16.9007 16.2298 17.1957 16.2298L18.6177 16.2278C18.9137 16.2278 19.3027 15.9881 19.4787 15.6908L24.9487 6.1733C24.9487 6.17432 25.4747 5.36063 24.9857 5.37194V5.37194Z" fill="#DADADA"/>
<path d="M224 6.12888L219.67 15.8797H218.331L219.94 12.4675L217.089 6.12784H218.498L220.561 10.9871H220.588L222.585 6.12784L224 6.12888V6.12888ZM206.011 9.14408V13.0944H204.65V3.34353H208.251C209.109 3.32159 209.941 3.62144 210.584 4.18666C211.221 4.71427 211.571 5.46023 211.561 6.24903C211.571 7.04932 211.21 7.81618 210.584 8.31663C209.957 8.8714 209.18 9.14408 208.251 9.14408H206.011V9.14408ZM206.006 4.54606V7.94678H208.284C208.786 7.9635 209.277 7.77857 209.629 7.44633C209.98 7.13082 210.174 6.70037 210.174 6.25425C210.174 5.80291 209.979 5.37247 209.629 5.06217C209.267 4.71427 208.781 4.52934 208.284 4.54501L206.006 4.54606V4.54606ZM214.287 6.12888C215.151 6.12888 215.837 6.37336 216.339 6.85813C216.84 7.3429 217.089 8.00633 217.089 8.84946V12.8812H215.966V11.9723H215.918C215.432 12.7182 214.789 13.0933 213.985 13.0933C213.293 13.0933 212.721 12.8812 212.257 12.4508C211.803 12.0485 211.55 11.4603 211.56 10.8512C211.56 10.1763 211.803 9.63826 212.294 9.23498C212.78 8.83797 213.433 8.63633 214.248 8.63633C214.944 8.63633 215.517 8.77215 215.964 9.03856V8.75543C215.97 8.3417 215.791 7.94469 215.483 7.66678C215.176 7.37843 214.77 7.21544 214.349 7.22067C213.696 7.22067 213.178 7.50902 212.795 8.08573L211.763 7.41081C212.33 6.55619 213.172 6.12679 214.284 6.12679L214.287 6.12888V6.12888ZM212.771 10.8794C212.765 11.195 212.911 11.4885 213.159 11.6797C213.419 11.8918 213.743 12.0067 214.072 12.0004C214.563 12.0004 215.038 11.7936 215.389 11.429C215.761 11.0811 215.973 10.5911 215.973 10.0792C215.606 9.77408 215.098 9.62154 214.445 9.62154C213.964 9.62154 213.57 9.74169 213.252 9.98094C212.933 10.2254 212.771 10.52 212.771 10.8784V10.8794V10.8794ZM196.471 3.34353C197.865 3.32682 199.214 3.84398 200.246 4.7968L198.637 6.3859C198.048 5.83635 197.271 5.5365 196.471 5.55321C195.036 5.55844 193.767 6.4841 193.303 7.84962C193.065 8.54021 193.065 9.2914 193.303 9.98303C193.767 11.3485 195.036 12.2742 196.471 12.2794C197.232 12.2794 197.886 12.0893 198.393 11.7518C198.982 11.36 199.393 10.7509 199.516 10.0541H196.47V7.91021H201.788C201.853 8.28528 201.885 8.6614 201.885 9.0417C201.885 10.7394 201.27 12.176 200.206 13.1445C199.272 13.9939 197.993 14.4881 196.47 14.4881C194.349 14.4985 192.405 13.3127 191.427 11.4185C190.628 9.84617 190.628 7.98544 191.427 6.41201C192.405 4.51785 194.349 3.33204 196.464 3.34249L196.471 3.34353V3.34353Z" fill="#DADADA"/>
<path d="M161.915 1.00708H171.151C172.3 1.00708 173.135 1.54294 173.59 2.62317C173.73 2.94639 173.797 3.33765 173.797 3.69489C173.813 7.7266 173.805 11.7583 173.805 15.79C173.805 17.3381 172.606 18.5034 171.109 18.4949C165.371 18.4778 159.633 18.4863 153.894 18.4863C153.456 18.4863 153.01 18.4949 152.571 18.4863C151.1 18.4608 150.008 17.3211 150 15.7985V10.9758V3.72891C150 2.47857 150.711 1.46639 151.844 1.12616C152.125 1.0411 152.431 1.01559 152.72 1.01559C155.788 1.00708 158.847 1.00708 161.915 1.00708V1.00708ZM161.898 16.7427H170.539C170.787 16.7427 171.035 16.7512 171.283 16.7427C171.738 16.7257 172.052 16.4109 172.102 15.9516C172.11 15.8581 172.11 15.7645 172.11 15.6795V3.83949C172.11 3.7119 172.11 3.58431 172.085 3.45673C172.027 3.14202 171.845 2.91236 171.548 2.8188C171.399 2.77627 171.233 2.75926 171.076 2.75926H152.745C152.654 2.75926 152.563 2.75926 152.481 2.76777C152.075 2.80179 151.778 3.09949 151.728 3.51627C151.712 3.63535 151.712 3.75443 151.712 3.87351V15.6539C151.712 15.7815 151.712 15.9091 151.736 16.0367C151.786 16.3599 151.96 16.5896 152.257 16.6916C152.406 16.7427 152.571 16.7512 152.72 16.7512C155.78 16.7512 158.839 16.7427 161.898 16.7427V16.7427Z" fill="#D8D8D8"/>
<path d="M153.415 9.53828C153.407 9.01944 153.531 8.54311 153.853 8.13484C154.242 7.64151 154.854 7.44588 155.424 7.69254C155.804 7.85415 156.152 7.87967 156.532 7.71806C157.02 7.51392 157.516 7.52243 157.971 7.82863C158.029 7.87116 158.086 7.91369 158.136 7.95622C158.351 8.15185 158.351 8.17737 158.136 8.36449C157.425 8.98541 157.499 10.0401 158.293 10.559C158.467 10.6695 158.508 10.7716 158.401 10.9417C158.169 11.316 157.954 11.7072 157.69 12.0475C157.425 12.3877 157.053 12.4472 156.664 12.2516C156.276 12.056 155.879 12.0475 155.49 12.2431C155.085 12.4472 154.754 12.3452 154.432 12.0475C153.845 11.4946 153.423 10.4739 153.415 9.53828V9.53828ZM159.36 9.75095C159.36 8.95992 159.368 8.16038 159.36 7.36935C159.36 7.18222 159.41 7.12268 159.592 7.12268C160.187 7.13969 160.79 7.11417 161.386 7.13969C162.337 7.17371 162.957 7.87969 162.948 8.85785C162.94 9.819 162.304 10.5165 161.377 10.559C161.055 10.576 160.733 10.576 160.41 10.559C160.22 10.5505 160.145 10.6015 160.154 10.8142C160.17 11.265 160.154 11.7243 160.162 12.1751C160.162 12.3112 160.121 12.3707 159.988 12.3622C159.848 12.3537 159.716 12.3537 159.575 12.3622C159.41 12.3792 159.368 12.3027 159.368 12.1411C159.368 11.35 159.36 10.5505 159.36 9.75095ZM160.154 9.91256C160.6 9.88704 161.038 9.91256 161.444 9.83601C161.948 9.74244 162.196 9.27463 162.138 8.69624C162.089 8.1944 161.741 7.85417 161.229 7.82866C160.923 7.81164 160.625 7.82866 160.319 7.81164C160.179 7.80314 160.145 7.86268 160.145 7.99877C160.154 8.37302 160.145 8.74727 160.145 9.12153C160.154 9.3767 160.154 9.62336 160.154 9.91256V9.91256ZM165.57 11.7412C165.115 12.3451 164.544 12.4812 163.891 12.2856C163.469 12.158 163.188 11.7667 163.172 11.3244C163.147 10.8226 163.345 10.4739 163.808 10.3037C164.065 10.2102 164.338 10.1676 164.61 10.1336C164.875 10.0996 165.148 10.0911 165.412 10.0741C165.52 10.0656 165.57 10.0316 165.57 9.90397C165.586 9.49569 165.429 9.24052 165.107 9.14696C164.685 9.02788 164.28 9.16397 164.114 9.49569C164.065 9.59776 164.007 9.64029 163.891 9.63178C163.717 9.62328 163.552 9.63178 163.354 9.63178C163.354 9.34259 163.453 9.12144 163.627 8.93431C164.007 8.53455 164.495 8.42397 165.016 8.47501C165.222 8.49202 165.437 8.55156 165.627 8.63661C166.049 8.83225 166.297 9.17247 166.305 9.66581C166.314 10.4909 166.305 11.3244 166.314 12.1495C166.314 12.2856 166.272 12.3451 166.132 12.3366C165.958 12.3196 165.727 12.3791 165.619 12.2856C165.537 12.2005 165.586 11.9538 165.57 11.7412V11.7412ZM164.991 10.644V10.627C164.751 10.6695 164.503 10.695 164.263 10.763C164.073 10.8141 163.949 10.9672 163.941 11.1798C163.932 11.3755 163.99 11.5286 164.164 11.6221C164.503 11.8007 164.842 11.7752 165.164 11.5881C165.47 11.4095 165.57 11.1118 165.57 10.763C165.57 10.6525 165.528 10.6099 165.421 10.6184C165.28 10.627 165.131 10.6355 164.991 10.644ZM166.653 8.50909C166.917 8.50909 167.141 8.49208 167.356 8.5176C167.422 8.52611 167.504 8.61967 167.529 8.69622C167.81 9.58932 168.075 10.4909 168.348 11.3925C168.364 11.4436 168.389 11.4946 168.43 11.6052C168.579 11.1204 168.703 10.7036 168.827 10.2868C168.984 9.75093 169.15 9.22358 169.307 8.68772C169.34 8.56864 169.398 8.5091 169.522 8.5176C169.72 8.52611 169.919 8.5176 170.159 8.5176C170.068 8.78128 169.993 9.01093 169.91 9.24059C169.505 10.3974 169.117 11.5626 168.703 12.7194C168.554 13.1447 168.339 13.5445 167.868 13.6806C167.645 13.7401 167.405 13.7486 167.174 13.7656C167.05 13.7741 167 13.7061 167.008 13.587V13.4849C167.008 13.1532 167.008 13.1532 167.322 13.1277C167.744 13.0937 168.058 12.6003 167.91 12.1836C167.521 11.0693 167.132 9.96357 166.744 8.84932C166.727 8.73875 166.702 8.64519 166.653 8.50909V8.50909ZM157.632 5.4046C157.731 6.16161 157.012 7.07172 156.309 7.12275C156.193 7.13126 156.135 7.09723 156.127 6.96114C156.061 6.22965 156.904 5.35356 157.632 5.4046Z" fill="#D8D8D8"/>
</g>
<defs>
<clipPath id="clip0_7_2">
<rect width="224" height="19" fill="white"/>
</clipPath>
</defs>
</svg>
