<svg viewBox="0 0 24 23" fill="none" xmlns="http://www.w3.org/2000/svg">
  <path d="M12.9994 5.48C13.0194 3.526 14.5664 2 16.5394 2C17.4645 2.0095 18.3482 2.38532 18.9967 3.04511C19.6452 3.7049 20.0058 4.59486 19.9994 5.52C19.9994 7.454 18.4124 9 16.4994 9C14.5254 9 12.9994 7.433 12.9994 5.48ZM4.99941 4.288C4.77541 4.881 4.57241 5.424 4.34841 6C3.88041 5.78 3.24941 5.864 3.06641 5.407C2.88341 4.949 3.08641 4.475 3.51441 4.152C4.02341 3.762 4.42941 4.237 4.99941 4.288V4.288Z" fill="#312D2D" />
  <path d="M23.9813 21.7949C23.8213 20.7149 23.6803 19.6359 23.4993 18.5569C23.1583 16.4599 22.7563 14.3629 22.1143 12.3269C21.6523 10.8609 20.6893 10.0259 19.2843 9.61794C17.6983 9.17094 16.1123 9.12994 14.5063 9.41494C12.3183 9.78094 10.9933 11.0029 10.6323 13.2429C10.6123 13.4059 10.5723 13.5479 10.5523 13.7109C10.5123 13.9349 10.4513 14.1799 10.4113 14.4029C10.3713 14.4029 10.3513 14.4029 10.3113 14.3829C10.2513 14.1999 10.1903 14.0169 10.1303 13.8129C9.82933 12.7539 9.54833 11.6749 9.18633 10.6369C8.98633 10.0869 9.10633 9.67994 9.36633 9.25194C9.46733 9.06894 9.56833 9.00794 9.80833 9.04794C10.2903 9.14994 10.7523 9.12994 11.1943 8.84494C11.8763 8.39694 12.1973 7.76493 12.1573 6.93093C12.1173 6.15693 11.5553 5.87193 10.9333 5.66793C10.2903 5.44393 9.62833 5.24093 8.98633 4.97593C7.80033 4.48693 6.61533 3.99993 5.67233 3.08193C5.43757 2.85631 5.29471 2.55171 5.27133 2.22694C5.23764 1.78863 5.14307 1.35715 4.99033 0.944935C4.60833 0.0489348 3.74533 -0.257065 2.90233 0.231935C2.54133 0.455935 2.17933 0.740935 1.91833 1.06693C0.795333 2.44993 0.273333 4.03893 0.0533333 5.74993C-0.0466667 6.58493 -0.0266666 7.41994 0.293333 8.23394C0.695333 9.19094 1.51833 9.53694 2.42133 9.04794C2.84333 8.82394 3.16433 8.41794 3.54533 8.11194C3.74633 7.94894 3.98733 7.76594 4.24833 7.72494C5.25233 7.60294 6.23533 7.70493 7.19833 7.96893C7.46033 8.05093 7.70133 8.17293 7.92233 8.31493C8.22233 8.51893 8.18233 8.88494 7.86233 9.00794C7.31933 9.21094 7.17933 9.61793 7.17933 10.1479C7.17933 10.4529 7.09933 10.7789 7.01933 11.0849C6.91833 11.4509 6.85833 11.8379 7.13933 12.0819C7.47933 12.3669 7.52033 12.7129 7.60033 13.0799C7.74033 13.6699 7.88133 14.2599 8.04233 14.8509C8.28233 15.6659 8.66433 16.3989 9.22633 17.0309C9.70833 17.5799 10.3103 17.7429 10.9733 17.4579C11.3543 17.2949 11.7163 17.0709 12.0773 16.8679C12.1973 16.8059 12.3173 16.7039 12.4983 16.5819C12.5183 16.8059 12.5383 16.9689 12.5383 17.1119C12.4983 19.0049 12.4783 20.8989 12.4383 22.7919H20.4083C20.3683 21.2239 20.3483 19.6359 20.3083 18.0679V16.7859C20.3683 16.7859 20.4083 16.7659 20.4683 16.7659C20.5683 17.0299 20.6683 17.3159 20.7483 17.5999C21.1103 19.1069 21.4723 20.6339 21.8333 22.1399C21.9733 22.7519 22.5363 23.0979 23.1383 22.9759C23.7603 22.8939 24.0813 22.4459 23.9813 21.7949V21.7949ZM2.88333 7.96893C2.64333 8.23393 2.34133 8.47893 2.04033 8.64093C1.51833 8.90593 1.01633 8.76294 0.755333 8.23394C0.575333 7.86694 0.434333 7.43993 0.414333 7.03293C0.294333 5.07793 0.815333 3.28593 1.91933 1.69793C2.212 1.29922 2.57208 0.954708 2.98333 0.679935C3.58633 0.272935 4.20833 0.475935 4.46933 1.14793C4.66933 1.67793 4.74933 2.26793 4.83033 2.57293C4.63033 4.73193 4.12833 6.50293 2.88333 7.96893V7.96893Z" fill="#312D2D" />
</svg>