<svg
  fill="none"
  xmlns="http://www.w3.org/2000/svg"
  viewBox="0 0 26 27"
>
  <path
    d="M13 26.74h.01c7.171 0 12.99-5.819 12.99-12.99v-.01c0-7.181-5.819-13-13-13s-13 5.819-13 13v.01c.01 7.181 5.819 12.99 13 12.99Z"
    fill="#59B8E9"
  ></path>
  <path
    d="M13.065 7.797c1.87 0 2.085.01 2.827.043.677.032 1.053.14 1.3.236.322.129.559.28.806.526.247.247.398.473.527.806.096.247.215.612.236 1.3.032.74.043.955.043 2.824 0 1.869-.01 2.084-.043 2.825-.032.676-.14 1.052-.236 1.3a2.23 2.23 0 0 1-.527.805 2.142 2.142 0 0 1-.806.526c-.247.096-.613.215-1.3.236-.742.032-.957.043-2.827.043s-2.085-.01-2.826-.043c-.677-.032-1.054-.14-1.3-.236a2.23 2.23 0 0 1-.807-.526 2.143 2.143 0 0 1-.526-.806c-.097-.247-.215-.612-.237-1.3-.032-.74-.043-.955-.043-2.824 0-1.869.011-2.084.043-2.825.032-.676.14-1.052.237-1.3a2.23 2.23 0 0 1 .526-.805c.247-.247.473-.397.806-.526.247-.097.613-.215 1.3-.236.742-.032.968-.043 2.827-.043Zm0-1.257c-1.902 0-2.138.011-2.88.043s-1.257.15-1.698.322a3.46 3.46 0 0 0-1.236.806 3.456 3.456 0 0 0-.806 1.235c-.172.44-.29.956-.322 1.697-.033.741-.043.988-.043 2.878 0 1.901.01 2.137.043 2.878.032.742.15 1.257.322 1.697.183.462.42.849.806 1.235.387.387.774.623 1.236.806.44.172.956.29 1.698.322.742.032.989.043 2.88.043 1.902 0 2.139-.01 2.88-.043.742-.032 1.258-.15 1.698-.322a3.459 3.459 0 0 0 1.236-.806c.387-.386.623-.773.806-1.235.172-.44.29-.955.323-1.697.032-.74.043-.988.043-2.878 0-1.89-.011-2.137-.043-2.878-.033-.741-.15-1.257-.323-1.697a3.456 3.456 0 0 0-.806-1.235 3.46 3.46 0 0 0-1.236-.806c-.44-.171-.956-.29-1.698-.322-.741-.032-.978-.043-2.88-.043Z"
    fill="#fff"
  ></path>
  <path
    d="M13.065 9.945a3.588 3.588 0 0 0-3.59 3.587 3.595 3.595 0 0 0 3.59 3.587 3.588 3.588 0 1 0 0-7.174Zm0 5.918a2.33 2.33 0 0 1-2.332-2.33 2.33 2.33 0 0 1 2.332-2.331 2.33 2.33 0 0 1 2.332 2.33 2.33 2.33 0 0 1-2.332 2.33ZM16.805 10.632a.838.838 0 1 0 0-1.676.838.838 0 0 0 0 1.676Z"
    fill="#fff"
  ></path>
</svg>