<svg width="26" height="27" viewBox="0 0 26 27" fill="none" xmlns="http://www.w3.org/2000/svg">
<g clip-path="url(#clip0_22_2)">
<path d="M13 26.74H13.01C20.181 26.74 26 20.921 26 13.75V13.74C26 6.55899 20.181 0.73999 13 0.73999C5.819 0.73999 0 6.55899 0 13.74V13.75C0.01 20.931 5.819 26.74 13 26.74Z" fill="#312D2D"/>
<path d="M13.065 7.79701C14.935 7.79701 15.15 7.80701 15.892 7.84001C16.569 7.87201 16.945 7.98001 17.192 8.07601C17.514 8.20501 17.751 8.35601 17.998 8.60201C18.245 8.84901 18.396 9.07501 18.525 9.40801C18.621 9.65501 18.74 10.02 18.761 10.708C18.793 11.448 18.804 11.663 18.804 13.532C18.804 15.401 18.794 15.616 18.761 16.357C18.729 17.033 18.621 17.409 18.525 17.657C18.41 17.9605 18.2302 18.2352 17.998 18.462C17.7727 18.6962 17.4971 18.8761 17.192 18.988C16.945 19.084 16.579 19.203 15.892 19.224C15.15 19.256 14.935 19.267 13.065 19.267C11.195 19.267 10.98 19.257 10.239 19.224C9.56202 19.192 9.18502 19.084 8.93902 18.988C8.63491 18.8736 8.35948 18.694 8.13202 18.462C7.89784 18.2367 7.71797 17.9611 7.60602 17.656C7.50902 17.409 7.39102 17.044 7.36902 16.356C7.33702 15.616 7.32602 15.401 7.32602 13.532C7.32602 11.663 7.33702 11.448 7.36902 10.707C7.40102 10.031 7.50902 9.65501 7.60602 9.40701C7.72072 9.10361 7.90023 8.8289 8.13202 8.60201C8.37902 8.35501 8.60502 8.20501 8.93802 8.07601C9.18502 7.97901 9.55102 7.86101 10.238 7.84001C10.98 7.80801 11.206 7.79701 13.065 7.79701V7.79701ZM13.065 6.54001C11.163 6.54001 10.927 6.55101 10.185 6.58301C9.44302 6.61501 8.92802 6.73301 8.48702 6.90501C8.02186 7.08168 7.60027 7.35659 7.25102 7.71101C6.89662 8.05989 6.6217 8.48115 6.44502 8.94601C6.27302 9.38601 6.15502 9.90201 6.12302 10.643C6.09002 11.384 6.08002 11.631 6.08002 13.521C6.08002 15.422 6.09002 15.658 6.12302 16.399C6.15502 17.141 6.27302 17.656 6.44502 18.096C6.62802 18.558 6.86502 18.945 7.25102 19.331C7.63802 19.718 8.02502 19.954 8.48702 20.137C8.92702 20.309 9.44302 20.427 10.185 20.459C10.927 20.491 11.174 20.502 13.065 20.502C14.967 20.502 15.204 20.492 15.945 20.459C16.687 20.427 17.203 20.309 17.643 20.137C18.1082 19.9604 18.5298 19.6854 18.879 19.331C19.266 18.945 19.502 18.558 19.685 18.096C19.857 17.656 19.975 17.141 20.008 16.399C20.04 15.659 20.051 15.411 20.051 13.521C20.051 11.631 20.04 11.384 20.008 10.643C19.975 9.90201 19.858 9.38601 19.685 8.94601C19.5083 8.48115 19.2334 8.05989 18.879 7.71101C18.5298 7.35659 18.1082 7.08168 17.643 6.90501C17.203 6.73401 16.687 6.61501 15.945 6.58301C15.204 6.55101 14.967 6.54001 13.065 6.54001V6.54001Z" fill="white"/>
<path d="M13.065 9.94499C12.5937 9.94473 12.127 10.0373 11.6915 10.2174C11.256 10.3976 10.8603 10.6617 10.5269 10.9948C10.1936 11.3279 9.92907 11.7234 9.74857 12.1588C9.56808 12.5941 9.47511 13.0607 9.47498 13.532C9.47709 14.4832 9.8561 15.3948 10.529 16.0671C11.2019 16.7394 12.1138 17.1177 13.065 17.119C13.5432 17.1303 14.0188 17.0459 14.4638 16.8707C14.9089 16.6955 15.3145 16.4331 15.6567 16.0989C15.9988 15.7647 16.2708 15.3654 16.4564 14.9246C16.642 14.4838 16.7377 14.0103 16.7377 13.532C16.7377 13.0537 16.642 12.5802 16.4564 12.1394C16.2708 11.6986 15.9988 11.2993 15.6567 10.9651C15.3145 10.6309 14.9089 10.3685 14.4638 10.1933C14.0188 10.0181 13.5432 9.9337 13.065 9.94499ZM13.065 15.863C12.7588 15.8633 12.4556 15.8032 12.1727 15.6862C11.8898 15.5692 11.6327 15.3976 11.4161 15.1813C11.1996 14.9649 11.0277 14.7079 10.9105 14.4251C10.7933 14.1423 10.733 13.8391 10.733 13.533C10.7328 13.2268 10.7931 12.9235 10.9102 12.6406C11.0274 12.3576 11.1992 12.1006 11.4158 11.8841C11.6324 11.6676 11.8895 11.4959 12.1725 11.3789C12.4555 11.2618 12.7587 11.2017 13.065 11.202C13.3711 11.2017 13.6743 11.2618 13.9572 11.3788C14.2402 11.4958 14.4973 11.6673 14.7138 11.8837C14.9304 12.1001 15.1022 12.3571 15.2194 12.6399C15.3366 12.9227 15.397 13.2258 15.397 13.532C15.397 13.8381 15.3366 14.1413 15.2194 14.4241C15.1022 14.7069 14.9304 14.9639 14.7138 15.1803C14.4973 15.3966 14.2402 15.5682 13.9572 15.6852C13.6743 15.8022 13.3711 15.8623 13.065 15.862V15.863ZM16.805 10.632C17.0272 10.632 17.2404 10.5437 17.3975 10.3865C17.5547 10.2294 17.643 10.0162 17.643 9.79399C17.643 9.57174 17.5547 9.35859 17.3975 9.20144C17.2404 9.04428 17.0272 8.95599 16.805 8.95599C16.5827 8.95599 16.3696 9.04428 16.2124 9.20144C16.0553 9.35859 15.967 9.57174 15.967 9.79399C15.967 10.0162 16.0553 10.2294 16.2124 10.3865C16.3696 10.5437 16.5827 10.632 16.805 10.632V10.632Z" fill="white"/>
</g>
<defs>
<clipPath id="clip0_22_2">
<rect width="26" height="27" fill="white"/>
</clipPath>
</defs>
</svg>
