<svg width="28" height="28" fill="none" xmlns="http://www.w3.org/2000/svg" viewBox="0 0 27 27">
  <path d="M13.5 27h.01C20.958 27 27 20.957 27 13.51v-.01C27 6.043 20.957 0 13.5 0S0 6.043 0 13.5v.01C.01 20.969 6.043 27 13.5 27z" fill="#312d2d"></path>
  <path d="M13.696 7.891c1.865 0 2.08.011 2.82.043.675.032 1.05.14 1.297.236.321.128.557.278.803.525.247.246.397.471.526.803.096.247.214.611.236 1.297.032.739.043.953.043 2.817 0 1.864-.011 2.079-.043 2.818-.032.675-.14 1.05-.236 1.296a2.223 2.223 0 01-.526.804 2.14 2.14 0 01-.803.525c-.247.096-.612.214-1.298.235-.74.032-.954.043-2.82.043-1.864 0-2.079-.01-2.819-.043-.675-.032-1.05-.139-1.297-.235a2.227 2.227 0 01-.804-.525 2.137 2.137 0 01-.525-.804c-.096-.246-.214-.61-.236-1.296-.032-.74-.043-.954-.043-2.818s.011-2.078.043-2.817c.032-.675.14-1.05.236-1.297.129-.321.279-.557.525-.803.247-.247.472-.397.804-.525.247-.096.611-.214 1.297-.236.74-.032.965-.043 2.82-.043zm0-1.253c-1.898 0-2.133.01-2.873.043-.74.032-1.254.15-1.694.321a3.45 3.45 0 00-1.233.804 3.448 3.448 0 00-.804 1.232c-.171.439-.29.953-.321 1.692-.032.74-.043.986-.043 2.871 0 1.897.01 2.132.043 2.872.032.739.15 1.253.321 1.692.183.461.418.847.804 1.232.386.386.772.622 1.233.804.44.171.954.29 1.694.321.74.032.986.043 2.873.043 1.897 0 2.133-.01 2.873-.043.74-.032 1.254-.15 1.694-.321a3.452 3.452 0 001.233-.804 3.45 3.45 0 00.804-1.232c.171-.439.289-.953.321-1.692.032-.74.043-.986.043-2.871 0-1.886-.01-2.132-.043-2.872-.032-.739-.15-1.253-.321-1.692a3.449 3.449 0 00-.804-1.232 3.45 3.45 0 00-1.233-.804c-.44-.171-.954-.29-1.694-.321-.74-.032-.976-.043-2.873-.043z" fill="#fff"></path>
  <path d="M13.696 10.034a3.579 3.579 0 00-3.58 3.578 3.586 3.586 0 003.58 3.579 3.579 3.579 0 100-7.157zm0 5.903a2.323 2.323 0 01-2.326-2.325 2.323 2.323 0 012.326-2.325 2.323 2.323 0 012.326 2.325 2.323 2.323 0 01-2.326 2.325zM17.427 10.72a.836.836 0 100-1.672.836.836 0 000 1.672z" fill="#fff"></path>
</svg>