<svg xmlns="http://www.w3.org/2000/svg" viewBox="0 0 33 33">
  <path d="M16.5 0C7.402 0 0 7.402 0 16.5 0 25.598 7.402 33 16.5 33 25.598 33 33 25.598 33 16.5 33 7.402 25.598 0 16.5 0zm0 30.848c-7.911 0-14.348-6.437-14.348-14.348C2.152 8.589 8.59 2.152 16.5 2.152c7.911 0 14.348 6.437 14.348 14.348 0 7.911-6.437 14.348-14.348 14.348z"></path>
  <path d="M16.5 7.174c-5.142 0-9.326 4.184-9.326 9.326 0 5.143 4.184 9.326 9.326 9.326 5.143 0 9.326-4.183 9.326-9.326 0-5.142-4.183-9.326-9.326-9.326zm0 16.5c-3.956 0-7.174-3.218-7.174-7.174 0-3.956 3.218-7.174 7.174-7.174 3.956 0 7.174 3.218 7.174 7.174 0 3.956-3.218 7.174-7.174 7.174z"></path>
  <path d="M19.948 23.486l-1.522 1.521 5.309 5.31 1.521-1.522-5.308-5.31zM25.008 18.432l-1.522 1.521 5.309 5.31 1.521-1.522-5.308-5.31zM4.202 7.773L2.686 9.3l5.344 5.308 1.517-1.527-5.345-5.308zM9.3 2.686L7.773 4.202l5.309 5.345 1.527-1.517L9.3 2.686zM7.78 18.426l-5.344 5.308 1.517 1.527 5.344-5.308-1.517-1.527zM12.836 23.484l-5.308 5.31 1.522 1.521 5.308-5.31-1.522-1.52zM23.735 2.435L18.427 7.78l1.527 1.516 5.308-5.344-1.527-1.517zM28.795 7.527l-5.31 5.308 1.522 1.522 5.31-5.308-1.522-1.522z"></path>
</svg>