<svg width="30" height="30" viewBox="0 0 34 34" fill="none" xmlns="http://www.w3.org/2000/svg">
  <g fill="#313131">
    <path d="M26.063 23.933c0 1.56.015 3.073 0 4.587 0 .439-.045.878-.136 1.317-.499 2.407-2.63 4.163-5.095 4.163-5.17.015-10.325.015-15.495 0C2.494 33.985.15 31.623.15 28.777c-.015-4.677-.015-9.355 0-14.033 0-2.86 2.343-5.207 5.186-5.252.62-.016 1.254 0 1.935 0v-.47-5.904C7.287 1.544 8.209.424 9.69.136c.212-.045.424-.045.635-.045h18.248c3.084 0 5.412 2.316 5.412 5.404v6.51c0 .696-.499 1.24-1.164 1.332a1.33 1.33 0 01-1.436-1.015c-.046-.151-.046-.318-.046-.484V5.6c0-1.74-1.103-2.846-2.842-2.846H10.431c-.075 0-.166-.03-.226 0-.106.06-.197.151-.288.227.076.076.151.197.242.227.816.212 1.633.394 2.464.59 3.78.909 7.56 1.817 11.354 2.725 1.24.303 2.056 1.363 2.056 2.65 0 3.89 0 7.765.015 11.656v.378c1.104 0 2.192.106 3.25-.03 1.195-.151 1.966-1.241 2.041-2.528.03-.575.288-1.014.832-1.241.514-.212.998-.106 1.406.272.287.273.408.62.408 1.014 0 2.513-1.92 4.784-4.415 5.147-.68.106-1.375.076-2.07.091-.454.015-.908 0-1.437 0zm-2.645-11.807H5.623c-1.724 0-2.842 1.12-2.842 2.846v13.503c0 1.756 1.103 2.86 2.857 2.86H20.53c1.784 0 2.872-1.09 2.872-2.876V12.565c.015-.122.015-.258.015-.44zM9.963 5.889v3.603h.393c4.187 0 8.39 0 12.578-.016.181 0 .363-.12.56-.181-.167-.106-.318-.273-.5-.318a1241.05 1241.05 0 00-8.012-1.892c-1.648-.394-3.296-.788-5.02-1.196z"></path><path d="M19.275 20.573v4.647c.121.015.242.045.363.06.65.122 1.089.682 1.073 1.363-.03.65-.513 1.18-1.148 1.241-.378.03-.756.015-1.134.015H6.985c-.862 0-1.422-.424-1.527-1.15-.091-.681.393-1.423 1.179-1.499.03 0 .06-.03.106-.06v-4.617a3.027 3.027 0 01-.227-.046c-.575-.09-.968-.484-1.058-1.03a1.202 1.202 0 01.695-1.27c1.436-.682 2.872-1.363 4.309-2.03.483-.226.982-.469 1.481-.68.696-.303 1.406-.318 2.086-.016 1.996.894 3.991 1.817 5.972 2.74.514.242.74.788.635 1.332-.106.53-.514.878-1.088.954-.091.03-.167.03-.273.046zm-4.958 0v4.647h2.267v-4.647h-2.267zm-2.706-.03c-.62 0-1.21.014-1.8 0-.317-.016-.438.075-.438.408.015 1.317.015 2.619.015 3.936 0 .106.015.212.03.348h2.178c.015-1.56.015-3.088.015-4.693z"></path>
  </g>
</svg>