<svg xmlns="http://www.w3.org/2000/svg" width="25" height="25" viewBox="0 0 25 25" fill="none">
  <g clip-path="url(#clip0)">
    <path d="M17.819 19.26c.864 1.19 1.728 2.364 2.577 3.539.15.193.298.387.418.595.357.535.283 1.115-.18 1.428-.476.327-1.012.223-1.415-.298-1.058-1.443-2.13-2.855-3.143-4.328-.432-.624-.864-.922-1.669-.877-1.445.09-2.905 0-4.35.044-.254 0-.552.179-.715.372-.358.402-.641.848-1.028 1.383.283.015.461.045.655.045h5.14c.164 0 .343 0 .507.015.58.06.938.46.923.996-.014.536-.387.922-.983.937-1.43.015-2.86.015-4.306.015-.983 0-1.981-.03-2.965.015-.253.015-.536.178-.715.372-.313.312-.536.714-.804 1.056-.402.505-.954.595-1.416.253-.432-.328-.521-.893-.163-1.398.879-1.25 1.773-2.454 2.666-3.659.12-.164.239-.327.373-.52a4.193 4.193 0 01-.373-.209c-1.028-.565-1.624-1.413-1.638-2.602-.015-2.544-.03-5.087 0-7.645a3.837 3.837 0 013.829-3.792c2.309-.03 4.618-.03 6.927 0 2.22.03 3.874 1.68 3.904 3.896.03 2.514.015 5.012 0 7.526 0 1.19-.596 2.037-1.624 2.602-.12.09-.253.15-.432.238zm.09-5.816h-2.34c-2.607 0-5.2 0-7.807-.014-.462 0-.61.133-.596.594.03.759 0 1.517.015 2.276.015.699.388 1.085 1.073 1.085 2.875.015 5.766.015 8.641 0 .581 0 .983-.357.998-.907.045-.981.015-1.963.015-3.034zm-2.265-6.469c-.045 1.532-1.252 1.1-2.101 1.22v3.286c1.386 0 2.726.015 4.052-.015.105 0 .313-.208.313-.327.03-.803.045-1.606-.015-2.394-.089-1.16-.998-1.874-2.25-1.77zM9.237 6.96c-1.177.03-1.952.7-2.026 1.785-.06.758-.015 1.517-.045 2.275-.015.372.134.476.492.461 1.073-.015 2.16 0 3.233-.015.194 0 .387-.014.581-.03V8.18c-.894-.134-2.16.401-2.235-1.22z" fill="#39A3D9" />
    <path d="M1.848 12.462c.104 2.32.775 4.402 2.145 6.262.105.133.21.267.298.401.298.476.224 1.041-.178 1.353-.417.328-1.013.253-1.386-.208a11.68 11.68 0 01-2.28-4.491C-1.473 8.49 3.1 1.442 10.55.163 17.477-1.012 24.18 4.06 24.926 11.035c.358 3.271-.417 6.231-2.354 8.878-.491.684-1.043.833-1.55.461-.491-.357-.506-.966-.03-1.62 3.457-4.76 2.489-11.244-2.219-14.724C12.858-.343 4.5 2.498 2.37 9.637c-.284.907-.358 1.888-.522 2.825z" fill="#39A3D9" />
    <path d="M17.908 13.444c0 1.071.03 2.053-.015 3.034-.015.565-.417.907-.998.907a840.89 840.89 0 01-8.641 0c-.685 0-1.058-.386-1.073-1.085-.015-.759.015-1.517-.015-2.276-.015-.46.134-.61.596-.594 2.608.014 5.2.014 7.807.014h2.34zm-8.82 2.975a.995.995 0 00.954-1.026.97.97 0 00-.984-.923.956.956 0 00-.938 1.027c.015.52.447.922.968.922zm7.807-.982a.954.954 0 00-.998-.966.963.963 0 00-.939.981c0 .52.432.952.939.967a.985.985 0 00.998-.982zM15.644 6.975c1.236-.104 2.16.61 2.25 1.77.059.788.03 1.591.014 2.394 0 .12-.194.327-.313.327-1.34.03-2.666.015-4.052.015V8.195c.85-.12 2.056.327 2.1-1.22zM9.237 6.96c.075 1.621 1.341 1.086 2.235 1.25v3.256c-.194.015-.387.03-.581.03-1.073 0-2.16-.015-3.233.015-.358 0-.507-.09-.492-.461.03-.759-.015-1.517.045-2.275.074-1.116.85-1.785 2.026-1.815z" fill="white" />
    <path d="M9.088 16.419a.96.96 0 01-.983-.922.956.956 0 01.939-1.027.95.95 0 01.983.923c.045.535-.402 1.01-.939 1.026zM16.895 15.437c0 .55-.447.997-.983.982a.97.97 0 01-.939-.967c0-.535.402-.952.939-.982.536-.014.968.402.983.967z" fill="#39A3D9" />
  </g>
  <defs>
    <clipPath id="clip0">
      <path fill="white" d="M0 0h25v25H0z" />
    </clipPath>
  </defs>
</svg>