<svg fill="#312d2d" xmlns="http://www.w3.org/2000/svg" viewBox="0 0 1024 1024">
  <path d="M946.108 346.467c-77.706-13.856-151.266-50.6-209.858-109.1-58.529-58.559-95.231-132.078-109.038-209.801 78.679-49.291 192.735-31.833 271.735 47.141 78.947 78.973 96.395 193.050 47.16 271.761zM891.816 400.77c-74.631-20.858-144.591-59.556-202.030-116.937-57.376-57.439-96.083-127.397-116.837-201.998-49.223 78.711-31.768 192.729 47.143 271.698 79.002 78.939 192.985 96.425 271.724 47.236zM579.333 750.549c-98.157 0-168.338 61.342-230.265 115.444-68.417 59.814-127.72 111.677-214.97 84.786-17.263-12.712-17.775-23.101-17.967-26.629-1.222-23.626 27.401-55.324 41.459-67.007 1.734-1.415 2.72-3.337 4.076-5.067 23.038 8.020 49.507 3.387 67.965-15.020l446.938-367.908c-36.966-15.692-72.193-38.408-102.898-69.154-30.755-30.742-53.404-66.008-69.070-102.905l-367.872 446.979c-16.366 16.364-21.114 39.010-16.654 60.057-1.38 0.841-2.923 1.222-4.206 2.256-7.030 5.775-68.446 58.015-65.397 120.842 1.092 22.089 10.721 53.978 50.606 80.679l7.864 3.842c25.578 8.536 49.416 12.257 71.82 12.257 87.41 0 152.616-56.982 211.565-108.522 58.369-51.027 113.526-99.218 187.008-99.218 169.378 0 300.488 181.497 301.831 183.287 10.458 14.957 31.072 18.286 45.767 7.778 14.827-10.469 18.286-30.948 7.828-45.756-6.1-8.608-151.844-211.019-355.428-211.019z"></path>
</svg>