<svg width="1536" height="1664" viewBox="0 0 1536 1664" fill="none" xmlns="http://www.w3.org/2000/svg">
<path d="M1536 96V1216C1536 1249.33 1524.67 1279 1502 1305C1479.33 1331 1450.67 1351.17 1416 1365.5C1381.33 1379.83 1346.83 1390.5 1312.5 1397.5C1278.17 1404.5 1246 1408 1216 1408C1186 1408 1153.83 1404.5 1119.5 1397.5C1085.17 1390.5 1050.67 1379.83 1016 1365.5C981.333 1351.17 952.667 1331 930 1305C907.333 1279 896 1249.33 896 1216C896 1182.67 907.333 1153 930 1127C952.667 1101 981.333 1080.83 1016 1066.5C1050.67 1052.17 1085.17 1041.5 1119.5 1034.5C1153.83 1027.5 1186 1024 1216 1024C1286 1024 1350 1037 1408 1063V526L640 763V1472C640 1505.33 628.667 1535 606 1561C583.333 1587 554.667 1607.17 520 1621.5C485.333 1635.83 450.833 1646.5 416.5 1653.5C382.167 1660.5 350 1664 320 1664C290 1664 257.833 1660.5 223.5 1653.5C189.167 1646.5 154.667 1635.83 120 1621.5C85.3333 1607.17 56.6667 1587 34 1561C11.3333 1535 0 1505.33 0 1472C0 1438.67 11.3333 1409 34 1383C56.6667 1357 85.3333 1336.83 120 1322.5C154.667 1308.17 189.167 1297.5 223.5 1290.5C257.833 1283.5 290 1280 320 1280C390 1280 454 1293 512 1319V352C512 331.333 518.333 312.5 531 295.5C543.667 278.5 560 266.667 580 260L1412 4C1420 1.33333 1429.33 0 1440 0C1466.67 0 1489.33 9.33333 1508 28C1526.67 46.6667 1536 69.3333 1536 96Z" fill="#312D2D"/>
</svg>
