<svg viewBox="0 0 19.6 18.2" fill="none" xmlns="http://www.w3.org/2000/svg">
  <path d="M14.829 10.1341C14.349 10.1341 13.949 10.5331 13.949 11.0131V17.3481C13.949 17.8281 14.349 18.2281 14.829 18.2281C15.309 18.2281 15.709 17.8281 15.709 17.3481V11.0321C15.729 10.5321 15.329 10.1331 14.829 10.1331V10.1341Z" fill="#312D2D" />
  <path d="M19.586 10.573C19.586 9.413 19.386 8.275 18.986 7.215C18.6393 6.26537 18.1471 5.3754 17.527 4.577C17.607 4.397 17.667 4.197 17.667 4.017C17.667 3.678 17.547 3.358 17.287 3.099C16.3052 2.11222 15.1369 1.3307 13.85 0.8C12.55 0.26 11.172 0 9.793 0C8.414 0 7.035 0.26 5.736 0.8C4.44913 1.33068 3.28077 2.1122 2.299 3.099C2.039 3.359 1.919 3.679 1.919 4.018C1.919 4.218 1.959 4.398 2.059 4.578C1.43903 5.37576 0.946818 6.26505 0.6 7.214C0.208769 8.29061 0.00580526 9.42653 0 10.572V14.189C0 15.089 0.36 15.908 0.96 16.507C1.44 16.987 2.059 17.307 2.758 17.427V10.952C2.078 11.052 1.479 11.372 1.02 11.811V10.551C1.02 9.513 1.2 8.493 1.56 7.534C1.859 6.694 2.299 5.915 2.838 5.216C2.978 5.256 3.118 5.276 3.258 5.276C3.578 5.276 3.898 5.156 4.138 4.936L4.178 4.896C4.91754 4.15645 5.79243 3.56605 6.755 3.157C8.71515 2.35681 10.9109 2.35681 12.871 3.157C13.81 3.537 14.689 4.117 15.449 4.897L15.469 4.917C15.6433 5.08493 15.8595 5.20309 16.095 5.25919C16.3305 5.31529 16.5767 5.30728 16.808 5.236C17.348 5.936 17.767 6.735 18.087 7.554C18.427 8.514 18.627 9.533 18.627 10.572V11.831C18.147 11.391 17.547 11.071 16.887 10.971V17.429C17.587 17.329 18.207 16.989 18.687 16.509C19.286 15.909 19.646 15.111 19.646 14.191V10.574H19.586V10.573Z" fill="#312D2D" />
  <path d="M4.75701 10.1341C4.27701 10.1341 3.87701 10.5331 3.87701 11.0131V17.3481C3.87701 17.8281 4.27701 18.2281 4.75701 18.2281C5.23701 18.2281 5.63701 17.8281 5.63701 17.3481V11.0321C5.63701 10.5321 5.23701 10.1331 4.75701 10.1331V10.1341Z" fill="#312D2D" />
</svg>