<svg width="21" height="26" viewBox="0 0 21 26" fill="none" xmlns="http://www.w3.org/2000/svg">
  <path d="M10.41 16.758a6.355 6.355 0 01-6.348-6.348c0-3.5 2.848-6.348 6.348-6.348a6.355 6.355 0 016.08 8.174 1.016 1.016 0 01-1.945-.584 4.321 4.321 0 00-4.135-5.558 4.321 4.321 0 00-4.316 4.316 4.321 4.321 0 005.5 4.152 1.016 1.016 0 11.557 1.954c-.564.16-1.15.242-1.741.242zm1.163 8.769c1.113-1.761 2.507-3.288 3.855-4.764 1.375-1.506 2.674-2.928 3.674-4.558 1.154-1.882 1.716-3.781 1.718-5.807a10.342 10.342 0 00-3.053-7.353A10.342 10.342 0 0010.41 0a10.342 10.342 0 00-7.357 3.045A10.344 10.344 0 000 10.4c.002 2.024.564 3.923 1.718 5.805 1 1.63 2.299 3.052 3.674 4.558 1.348 1.476 2.742 3.003 3.855 4.764.186.294.51.473.858.473h.61c.348 0 .672-.178.858-.473zm7.216-15.129c-.004 3.677-2.255 6.141-4.86 8.995-1.2 1.313-2.433 2.664-3.519 4.217-1.086-1.553-2.32-2.904-3.518-4.217-2.606-2.854-4.857-5.319-4.86-8.993.005-4.614 3.763-8.369 8.378-8.369s8.373 3.755 8.379 8.367z" fill="#49AADA"></path>
</svg>