<svg width="208" height="37" viewBox="0 0 208 37" fill="none" xmlns="http://www.w3.org/2000/svg">
<path d="M181.054 8.01502C180.918 7.90634 180.728 7.82483 180.565 7.82483H177.332C177.114 7.82483 176.951 7.87918 176.816 7.98786C176.68 8.09653 176.598 8.25954 176.598 8.42256V26.3816C176.598 26.5174 176.68 26.6804 176.816 26.7891C176.951 26.8978 177.142 26.9793 177.305 26.9793H180.538C180.728 26.9793 180.891 26.925 181.027 26.8163C181.163 26.7076 181.244 26.5446 181.244 26.3816V8.42256C181.271 8.28671 181.19 8.1237 181.054 8.01502Z" fill="#3A4145"/>
<path d="M135.273 9.04736C134.92 8.09643 134.377 7.30852 133.698 6.73796C132.312 5.51533 130.274 4.9176 127.503 4.9176C126.362 4.9176 125.112 5.05345 123.59 5.37949C122.585 5.56967 121.607 5.92288 120.792 6.24891C120.52 6.35759 120.303 6.57495 120.194 6.84664C120.086 7.11834 120.086 7.44438 120.221 7.71607L120.792 8.99302C120.901 9.26472 121.118 9.45491 121.39 9.59075C121.661 9.69943 121.96 9.69943 122.205 9.59075C122.83 9.3734 123.482 9.12888 124.188 8.88435C125.248 8.58549 126.307 8.42247 127.34 8.42247C128.019 8.42247 128.59 8.50398 129.079 8.667C129.595 8.83002 129.975 9.07454 130.301 9.42774C130.926 10.107 131.225 11.0851 131.225 12.4979V13.639L127.503 13.7477C124.161 13.8564 121.634 14.4813 119.977 15.6224C118.347 16.7363 117.532 18.4208 117.532 20.6487C117.532 21.6812 117.695 22.6049 117.994 23.42C118.292 24.2079 118.754 24.9143 119.352 25.5121C119.977 26.0826 120.683 26.4902 121.498 26.789C122.341 27.0879 123.264 27.2237 124.324 27.2237C125.954 27.2237 127.313 26.9792 128.345 26.5173C128.861 26.3 129.378 25.9468 129.921 25.4849C130.437 25.0502 130.953 24.4796 131.497 23.8276H131.66L132.366 26.0283C132.475 26.4902 132.937 26.789 133.426 26.789H134.703C135.002 26.789 135.301 26.6803 135.518 26.4358C135.708 26.2185 135.844 25.9468 135.844 25.6479V12.362C135.79 11.0851 135.627 9.97113 135.273 9.04736ZM123.237 22.8494C122.667 22.3332 122.368 21.5997 122.368 20.6487C122.368 19.3446 122.857 18.3665 123.808 17.7416C124.732 17.1167 126.307 16.7635 128.454 16.682L130.084 16.6277C130.383 16.6277 130.682 16.7363 130.899 16.9265C131.116 17.1167 131.225 17.4156 131.225 17.7144V18.4208C131.225 19.2631 131.089 19.9967 130.845 20.6487C130.6 21.2736 130.22 21.8442 129.731 22.3061C129.215 22.7679 128.617 23.1211 127.938 23.3657C127.286 23.6102 126.525 23.7189 125.71 23.7189C124.623 23.7189 123.781 23.42 123.237 22.8494ZM126.987 8.47681C126.932 8.47681 126.878 8.47681 126.824 8.47681C126.878 8.47681 126.932 8.47681 126.987 8.47681ZM126.226 8.53115C126.144 8.53115 126.09 8.55832 126.009 8.55832C126.09 8.53115 126.144 8.53115 126.226 8.53115ZM125.438 8.63982C125.357 8.63982 125.302 8.667 125.221 8.667C125.302 8.63983 125.384 8.63982 125.438 8.63982ZM124.623 8.80285C124.569 8.80285 124.514 8.83001 124.46 8.85717C124.541 8.83001 124.596 8.80285 124.623 8.80285Z" fill="#3A4145"/>
<path d="M89.6831 9.04736C89.3299 8.09643 88.7865 7.30852 88.1072 6.73796C86.7216 5.51533 84.6839 4.9176 81.9126 4.9176C80.7715 4.9176 79.5217 5.05345 78.0002 5.37949C76.9949 5.56967 76.0168 5.92288 75.2017 6.24891C74.93 6.35759 74.7127 6.57495 74.604 6.84664C74.4953 7.11834 74.4953 7.44438 74.6312 7.71607L75.2017 8.99302C75.3104 9.26472 75.5278 9.45491 75.7995 9.59075C76.0712 9.69943 76.37 9.69943 76.6146 9.59075C77.2394 9.3734 77.8915 9.12888 78.5979 8.88435C79.6575 8.58549 80.7171 8.42247 81.7496 8.42247C82.4288 8.42247 82.9994 8.50398 83.4884 8.667C84.0047 8.83002 84.385 9.07454 84.7111 9.42774C85.336 10.107 85.6348 11.0851 85.6348 12.4979V13.639L81.9126 13.7477C78.5708 13.8564 76.044 14.4813 74.3867 15.6224C72.7565 16.7363 71.9414 18.4208 71.9414 20.6487C71.9414 21.6812 72.1044 22.6049 72.4033 23.42C72.7021 24.2079 73.164 24.9143 73.7618 25.5121C74.3867 26.0826 75.0931 26.4902 75.9082 26.789C76.7504 27.0879 77.6742 27.2237 78.7338 27.2237C80.3639 27.2237 81.7224 26.9792 82.7549 26.5173C83.2711 26.3 83.7873 25.9468 84.3307 25.4849C84.8469 25.0502 85.3631 24.4796 85.9065 23.8276H86.0695L86.7759 26.0283C86.8846 26.4902 87.3465 26.789 87.8355 26.789H89.1125C89.4114 26.789 89.7102 26.6803 89.9276 26.4358C90.1178 26.2185 90.2536 25.9468 90.2536 25.6479V12.362C90.2265 11.0851 90.0363 9.97113 89.6831 9.04736ZM77.6742 22.8494C77.1036 22.3332 76.8047 21.5997 76.8047 20.6487C76.8047 19.3446 77.2938 18.3665 78.2447 17.7416C79.1685 17.1167 80.7443 16.7635 82.8907 16.682L84.5209 16.6277C84.8197 16.6277 85.1186 16.7363 85.336 16.9265C85.5533 17.1167 85.662 17.4156 85.662 17.7144V18.4208C85.662 19.2631 85.5261 19.9967 85.2816 20.6487C85.0371 21.2736 84.6567 21.8442 84.1677 22.3061C83.6514 22.7679 83.0537 23.1211 82.3745 23.3657C81.7224 23.6102 80.9617 23.7189 80.1466 23.7189C79.0598 23.7189 78.1904 23.42 77.6742 22.8494ZM81.4235 8.47681C81.3692 8.47681 81.3149 8.47681 81.2605 8.47681C81.3149 8.47681 81.3692 8.47681 81.4235 8.47681ZM80.6628 8.53115C80.5813 8.53115 80.527 8.55832 80.4454 8.55832C80.4998 8.53115 80.5813 8.53115 80.6628 8.53115ZM79.8749 8.63982C79.7934 8.63982 79.739 8.667 79.6575 8.667C79.739 8.63983 79.7934 8.63982 79.8749 8.63982ZM79.0598 8.80285C79.0055 8.80285 78.9511 8.83001 78.8968 8.85717C78.9511 8.83001 79.0055 8.80285 79.0598 8.80285Z" fill="#3A4145"/>
<path d="M171.708 5.65118C171.708 5.62401 171.708 5.59685 171.708 5.56968C171.708 5.40666 171.626 5.27081 171.517 5.1893C171.409 5.08062 171.219 4.99911 171.028 4.97194C170.566 4.91761 170.322 4.9176 169.751 4.9176C168.339 4.9176 167.143 5.29799 166.083 6.0859C164.888 6.87382 163.991 7.8519 163.312 9.12887H163.122L162.606 5.92288C162.551 5.56967 162.253 5.32514 161.899 5.32514H159.644C159.237 5.32514 158.938 5.62401 158.938 6.05872V26.2728C158.938 26.6804 159.237 27.0064 159.644 27.0064H162.823C163.231 27.0064 163.53 26.7075 163.53 26.2728V15.6767C163.53 14.7258 163.665 13.8292 163.964 13.0684C164.236 12.2805 164.671 11.6013 165.214 11.0307C166.301 9.83528 167.768 9.21039 169.588 9.21039C170.05 9.21039 170.485 9.26472 170.92 9.31906C171.083 9.34623 171.246 9.2919 171.382 9.21039C171.545 9.07454 171.68 8.88436 171.708 8.667V5.65118Z" fill="#3A4145"/>
<path d="M69.632 5.65118C69.632 5.62401 69.632 5.59685 69.632 5.56968C69.632 5.40666 69.5505 5.27081 69.4418 5.1893C69.3331 5.08062 69.1429 4.99911 68.9527 4.97194C68.4909 4.91761 68.2463 4.9176 67.6758 4.9176C66.263 4.9176 65.0675 5.29799 64.0079 6.0859C62.8124 6.87382 61.9159 7.8519 61.2366 9.12887H61.0464L60.5302 5.92288C60.4759 5.56967 60.177 5.32514 59.8238 5.32514H57.5687C57.1612 5.32514 56.8623 5.62401 56.8623 6.05872V26.2728C56.8623 26.6804 57.1612 27.0064 57.5687 27.0064H60.7476C61.1551 27.0064 61.454 26.7075 61.454 26.2728V15.6767C61.454 14.7258 61.5898 13.8292 61.8887 13.0684C62.1604 12.2805 62.5951 11.6013 63.1385 11.0307C64.2253 9.83528 65.6924 9.21039 67.5128 9.21039C67.9746 9.21039 68.4094 9.26472 68.8441 9.31906C69.0071 9.34623 69.1701 9.2919 69.3059 9.21039C69.469 9.07454 69.6048 8.88436 69.632 8.667V5.65118Z" fill="#3A4145"/>
<path d="M180.891 0.652074C180.375 0.217362 179.75 0 178.962 0C178.065 0 177.413 0.217362 176.978 0.652074C176.544 1.05962 176.326 1.71167 176.326 2.52676C176.326 3.2875 176.571 3.9124 176.978 4.34711C177.495 4.78183 178.147 4.99919 178.962 4.99919C179.858 4.99919 180.429 4.80899 180.891 4.34711C181.326 3.93957 181.543 3.2875 181.543 2.52676C181.57 1.65733 181.38 1.08679 180.891 0.652074Z" fill="#3A4145"/>
<path d="M3.8004 4.97206C4.09926 4.10263 8.28336 4.26565 9.56032 4.51017C12.4675 5.05356 14.7769 5.70564 17.8198 8.12372C20.5368 10.2973 23.0635 13.8836 22.5473 16.8723C22.4658 17.3885 22.33 17.9862 21.7322 18.5568C20.2923 19.8609 19.0696 20.3228 17.684 20.8662C15.5104 21.7356 13.1195 22.0888 12.4675 22.1703C11.1633 22.3062 8.6909 22.3062 8.39204 22.1432C7.82148 21.7356 9.28863 21.1922 10.1581 18.9643C10.9188 16.981 10.8645 14.5085 10.8101 13.8565C9.96787 6.60223 3.31135 6.33053 3.8004 4.97206Z" fill="#4AA9DA"/>
<path d="M0.0238301 23.7461C0.268355 23.3385 1.89852 24.3438 5.26754 24.8057C8.66372 25.2676 11.272 24.9959 12.8478 24.7513C19.45 23.8547 22.7103 21.0291 23.3624 21.9257C23.933 22.7408 21.7322 26.1098 18.6349 28.0117C14.2063 30.783 9.42446 29.7233 8.17467 29.4245C3.28417 28.1747 -0.329373 24.3981 0.0238301 23.7461Z" fill="#4AA9DA"/>
<path d="M153.558 23.2843C153.45 23.2028 153.314 23.1756 153.178 23.2028C152.254 23.4473 151.303 23.556 150.38 23.556C149.51 23.556 148.777 23.2843 148.342 22.7952C147.798 22.2518 147.527 21.4368 147.527 20.35V9.26482C147.527 9.04747 147.69 8.88446 147.907 8.88446H153.097C153.341 8.88446 153.531 8.69426 153.531 8.44974V5.89582C153.531 5.65129 153.341 5.4611 153.097 5.4611H147.907C147.69 5.4611 147.527 5.29809 147.527 5.08074V1.22267C147.527 0.978143 147.337 0.787964 147.092 0.787964H145.054C144.864 0.787964 144.674 0.923805 144.62 1.08682L143.234 5.16224C143.207 5.21658 143.18 5.27092 143.153 5.29809C143.125 5.32526 143.071 5.35242 143.017 5.37959L140.273 6.84675C140.164 6.95543 140.028 7.09128 140.028 7.25429V8.53126C140.028 8.77579 140.218 8.96597 140.463 8.96597H142.5C142.718 8.96597 142.881 9.12899 142.881 9.34634V20.4315C142.881 21.5454 143.017 22.5507 143.288 23.3929C143.56 24.2352 143.968 24.9416 144.484 25.5122C145.027 26.0827 145.706 26.5174 146.494 26.7891C147.309 27.0608 148.26 27.2238 149.32 27.2238C150.244 27.2238 151.032 27.1423 151.765 26.9793C152.309 26.8706 152.906 26.762 153.395 26.5718C153.586 26.5174 153.694 26.3273 153.694 26.1371V23.5831C153.721 23.4745 153.667 23.3658 153.558 23.2843Z" fill="#3A4145"/>
<path d="M206.512 11.3296C206.159 9.97117 205.588 8.77572 204.827 7.85196C203.36 5.92293 201.241 4.94482 198.578 4.94482C195.726 4.94482 193.552 6.0316 192.166 8.20516H191.949C191.813 7.44441 191.677 6.84669 191.569 6.35764C191.541 6.24896 191.514 6.1131 191.487 6.00442C191.378 5.56971 190.998 5.29802 190.591 5.29802H188.498C188.009 5.29802 187.602 5.70556 187.602 6.19461V35.4018C187.602 35.8908 188.009 36.2984 188.498 36.2984H191.297C191.786 36.2984 192.194 35.8908 192.194 35.4018V27.4955C192.194 27.1694 192.112 26.3544 191.976 25.0502C191.976 24.9415 191.949 24.8057 191.949 24.6698C191.922 24.5068 191.922 24.371 191.895 24.1808H192.166C192.927 25.1317 193.851 25.8653 194.883 26.3544C195.943 26.8434 197.166 27.0879 198.524 27.0879C199.882 27.0879 201.078 26.8434 202.11 26.3815C203.17 25.9196 204.067 25.1861 204.773 24.2351C205.534 23.257 206.104 22.0616 206.485 20.7031C206.865 19.3446 207.055 17.7688 207.055 16.03C207.055 14.2368 206.892 12.661 206.512 11.3296ZM200.236 22.3876C200.127 22.4691 200.045 22.5506 199.937 22.605C199.882 22.6321 199.855 22.6593 199.801 22.6865C199.747 22.7136 199.692 22.7408 199.638 22.768C199.04 23.094 198.334 23.257 197.546 23.257C196.595 23.257 195.78 23.1212 195.101 22.8223C194.421 22.5235 193.878 22.0888 193.498 21.5182C193.09 20.9476 192.791 20.1869 192.574 19.2631C192.384 18.3394 192.275 17.1982 192.275 15.8941V15.1877C192.275 14.1824 192.357 13.2858 192.492 12.5251V12.4979C192.52 12.3893 192.547 12.2806 192.547 12.1991C192.574 12.1176 192.601 12.0089 192.628 11.9274C192.628 11.9002 192.655 11.873 192.655 11.8459C192.71 11.6828 192.764 11.4927 192.818 11.3568C192.818 11.3296 192.846 11.3025 192.846 11.2753C192.9 11.1123 192.981 10.9764 193.036 10.8406C193.063 10.8134 193.063 10.7862 193.09 10.7591C193.144 10.6504 193.226 10.5146 193.307 10.4059C193.335 10.3787 193.362 10.3244 193.389 10.2972C193.416 10.2429 193.47 10.1885 193.498 10.1614C194.313 9.12892 195.644 8.58552 197.437 8.58552C198.252 8.58552 198.986 8.74854 199.638 9.04741C200.236 9.34627 200.779 9.78099 201.214 10.3787C202.056 11.5742 202.491 13.3945 202.491 15.8398C202.491 17.0352 202.382 18.0948 202.165 19.0186C201.947 19.9424 201.621 20.7303 201.187 21.3552C201.132 21.4095 201.105 21.4639 201.051 21.5182C201.024 21.5454 200.996 21.5997 200.969 21.6269C200.888 21.7355 200.779 21.8442 200.698 21.9529C200.67 21.9801 200.643 22.0072 200.616 22.0344C200.507 22.1431 200.426 22.2246 200.317 22.3061C200.29 22.3333 200.263 22.3605 200.236 22.3876Z" fill="#3A4145"/>
<path d="M51.673 11.3296C51.3198 9.97117 50.7492 8.77572 49.9885 7.85196C48.5213 5.92293 46.4021 4.94482 43.7395 4.94482C40.8867 4.94482 38.7132 6.0316 37.3275 8.20516H37.1102C36.9743 7.44441 36.8385 6.84669 36.7298 6.35764C36.7026 6.24896 36.6755 6.1131 36.6483 6.00442C36.5396 5.56971 36.1592 5.29802 35.7517 5.29802H33.6597C33.1706 5.29802 32.7631 5.70556 32.7631 6.19461V35.4018C32.7631 35.8908 33.1706 36.2984 33.6597 36.2984H36.4581C36.9472 36.2984 37.3547 35.8908 37.3547 35.4018V27.4955C37.3547 27.1694 37.2732 26.3544 37.1373 25.0502C37.1373 24.9415 37.1102 24.8057 37.1102 24.6698C37.083 24.5068 37.083 24.371 37.0558 24.1808H37.3275C38.0883 25.1317 39.012 25.8653 40.0445 26.3544C41.1041 26.8434 42.3267 27.0879 43.6852 27.0879C45.0437 27.0879 46.2391 26.8434 47.2716 26.3815C48.3312 25.9196 49.2278 25.1861 49.9342 24.2351C50.6949 23.257 51.2655 22.0616 51.6458 20.7031C52.0262 19.3446 52.2164 17.7688 52.2164 16.03C52.2164 14.2368 52.0262 12.661 51.673 11.3296ZM45.3697 22.3876C45.261 22.4691 45.1795 22.5506 45.0708 22.605C45.0165 22.6321 44.9893 22.6593 44.935 22.6865C44.8806 22.7136 44.8263 22.7408 44.772 22.768C44.1742 23.094 43.4678 23.257 42.6799 23.257C41.729 23.257 40.9139 23.1212 40.2347 22.8223C39.5554 22.5235 39.012 22.0888 38.6317 21.5182C38.2241 20.9476 37.9253 20.1869 37.7079 19.2631C37.5177 18.3394 37.409 17.1982 37.409 15.8941V15.1877C37.409 14.1824 37.4905 13.2858 37.6264 12.5251V12.4979C37.6536 12.3893 37.6807 12.2806 37.6807 12.1991C37.7079 12.1176 37.7351 12.0089 37.7622 11.9274C37.7622 11.9002 37.7894 11.873 37.7894 11.8459C37.8438 11.6828 37.8981 11.4927 37.9524 11.3568C37.9524 11.3296 37.9796 11.3025 37.9796 11.2753C38.0339 11.1123 38.1154 10.9764 38.1698 10.8406C38.197 10.8134 38.197 10.7862 38.2241 10.7591C38.2785 10.6504 38.36 10.5146 38.4415 10.4059C38.4686 10.3787 38.4958 10.3244 38.523 10.2972C38.5502 10.2429 38.6045 10.1885 38.6317 10.1614C39.4468 9.12892 40.7781 8.58552 42.5712 8.58552C43.3863 8.58552 44.1199 8.74854 44.772 9.04741C45.3697 9.34627 45.9131 9.78099 46.3478 10.3787C47.19 11.5742 47.6248 13.3945 47.6248 15.8398C47.6248 17.0352 47.5161 18.0948 47.2987 19.0186C47.0814 19.9424 46.7553 20.7303 46.3206 21.3552C46.2663 21.4095 46.2391 21.4639 46.1848 21.5182C46.1576 21.5454 46.1304 21.5997 46.1033 21.6269C46.0218 21.7355 45.9131 21.8442 45.8316 21.9529C45.8044 21.9801 45.7772 22.0072 45.7501 22.0344C45.6414 22.1431 45.5599 22.2246 45.4512 22.3061C45.424 22.3333 45.3969 22.3605 45.3697 22.3876Z" fill="#3A4145"/>
<path d="M105.903 6.24899C104.545 6.24899 103.322 6.5207 102.29 7.03691C101.339 7.52597 100.578 8.17803 100.007 9.02028C100.116 7.90633 100.116 7.4988 100.116 6.49353V3.88525V2.79847V1.73887C100.116 1.27699 99.7358 0.896606 99.2467 0.896606H96.4211C95.932 0.896606 95.5517 1.27699 95.5517 1.73887V2.79847V3.88525V26.0827C95.5517 26.5446 95.932 26.9249 96.4211 26.9249H99.2467C99.7358 26.9249 100.116 26.5446 100.116 26.0827V17.1711C100.116 14.8074 100.524 12.7968 101.312 11.7916C102.1 10.8135 103.322 10.3244 105.007 10.3244C106.256 10.3244 107.18 10.6776 107.751 11.3568C108.321 12.0361 108.62 13.4489 108.62 14.8889V26.0827C108.62 26.5446 109.001 26.9249 109.49 26.9249H112.342C112.831 26.9249 113.212 26.5446 113.212 26.0827V14.1825C113.157 9.37349 110.767 6.24899 105.903 6.24899Z" fill="#3A4145"/>
</svg>
