<svg fill="none" xmlns="http://www.w3.org/2000/svg" viewBox="0 0 25 25" width="25" height="25">
  <g clip-path="url(#a)">
    <path d="M22.314 0c-.05-.001-1.303 0-2.73.554-1.686.653-2.94 1.801-3.67 3.344l-4.263-.433a3.888 3.888 0 0 0-3.156 1.124l-7.35 7.32a3.91 3.91 0 0 0 .002 5.519l6.41 6.416A3.93 3.93 0 0 0 10.346 25c.992 0 1.982-.375 2.734-1.127a.976.976 0 1 0-1.38-1.381c-.754.753-1.992.74-2.76-.028l-6.41-6.416a1.954 1.954 0 0 1-.003-2.757L9.874 5.97a1.945 1.945 0 0 1 1.58-.563l4.97.505a.903.903 0 0 0 .042.004l2.415.246.15 1.487c-1.099.4-2.246.65-3.412.747a.976.976 0 0 0 .104 1.95 14.91 14.91 0 0 0 3.512-.7l.4 3.921a1.94 1.94 0 0 1-.56 1.576l-3.752 3.682a.976.976 0 1 0 1.368 1.394l3.755-3.686.006-.006a3.888 3.888 0 0 0 1.125-3.157l-.46-4.519c2.542-1.357 3.878-3.456 3.876-6.118v-.049A2.686 2.686 0 0 0 22.313 0Zm.727 2.734c0 1.655-.72 2.985-2.143 3.969l-.156-1.53a.976.976 0 0 0-.872-.873l-1.838-.187c.516-.763 1.253-1.338 2.2-1.716a6.318 6.318 0 0 1 2.077-.445c.403 0 .732.329.732.732v.05Z" fill="#49AADA"></path>
  </g>
  <defs>
    <clipPath id="a">
      <path fill="#fff" d="M0 0h25v25H0z"></path>
    </clipPath>
  </defs>
</svg>