<svg width="25" height="25" viewBox="0 0 25 25" fill="none" xmlns="http://www.w3.org/2000/svg">
  <g clip-path="url(#clip2)">
    <path d="M22.314 0c-.05-.001-1.303 0-2.73.554-1.686.653-2.94 1.801-3.67 3.344l-4.263-.433a3.888 3.888 0 00-3.156 1.124l-7.349 7.32a3.91 3.91 0 00.001 5.519l6.41 6.416A3.93 3.93 0 0010.346 25c.992 0 1.982-.375 2.734-1.127a.976.976 0 00-1.38-1.381c-.754.753-1.992.74-2.76-.028l-6.41-6.416a1.954 1.954 0 01-.003-2.757L9.874 5.97a1.945 1.945 0 011.58-.563l4.971.505a.921.921 0 00.041.004l2.415.246.151 1.487a13.19 13.19 0 01-3.413.747.976.976 0 00.104 1.95 14.913 14.913 0 003.512-.7l.4 3.921c.06.586-.144 1.16-.56 1.576l-3.752 3.682a.976.976 0 001.368 1.394l3.755-3.686.006-.006a3.889 3.889 0 001.125-3.157l-.46-4.519c2.542-1.357 3.878-3.456 3.876-6.118v-.049A2.686 2.686 0 0022.313 0zm.727 2.734c0 1.655-.719 2.985-2.143 3.969l-.156-1.53a.976.976 0 00-.872-.873l-1.838-.187c.516-.763 1.253-1.338 2.2-1.716a6.318 6.318 0 012.077-.445c.403 0 .732.329.732.732v.05z" fill="#49AADA"></path>
    <path d="M11.7 14.555l-1.398-.037.103-3.866 1.398.038c.559.014 1.02.211 1.382.59.363.377.537.843.522 1.395-.014.552-.213 1.007-.596 1.365-.382.358-.946.527-1.412.515zm1.613-4.562c-.458-.288-1.015-.395-1.48-.408l-2.05-.055c-.093-.002-.28-.007-.375.082-.096.09-.192.18-.194.271l-.005.184-.163 6.075-.652-.018c-.186-.005-.282.085-.378.174-.095.09-.193.271-.196.363-.005.184.086.279.177.373.09.095.274.192.367.195l.653.017-.032 1.196c-.005.184.085.279.176.373.09.095.275.192.368.195.093.002.282-.085.377-.175.096-.09.194-.27.196-.363l.032-1.196 1.678.045c.186.005.281-.085.377-.174.096-.09.194-.271.196-.363.005-.184-.085-.279-.176-.373-.09-.095-.275-.192-.368-.195l-1.677-.044.013-.46 1.397.037c.838.022 1.594-.326 2.26-.86a3.196 3.196 0 00.991-2.184c.015-.553-.156-1.11-.423-1.577-.175-.466-.63-.846-1.089-1.135z" fill="#49AADA" stroke="#49AADA" stroke-width=".4"></path>
  </g>
  <defs>
    <clipPath id="clip2">
      <path fill="#fff" d="M0 0h25v25H0z"></path>
    </clipPath>
  </defs>
</svg>