<svg width="1536" height="1536" viewBox="0 0 1536 1536" fill="none" xmlns="http://www.w3.org/2000/svg">
<path d="M896 1248V1056C896 1046.67 893 1039 887 1033C881 1027 873.333 1024 864 1024H672C662.667 1024 655 1027 649 1033C643 1039 640 1046.67 640 1056V1248C640 1257.33 643 1265 649 1271C655 1277 662.667 1280 672 1280H864C873.333 1280 881 1277 887 1271C893 1265 896 1257.33 896 1248ZM1152 576C1152 517.333 1133.5 463 1096.5 413C1059.5 363 1013.33 324.333 958 297C902.667 269.667 846 256 788 256C626 256 502.333 327 417 469C407 485 409.667 499 425 511L557 611C561.667 615 568 617 576 617C586.667 617 595 613 601 605C636.333 559.667 665 529 687 513C709.667 497 738.333 489 773 489C805 489 833.5 497.667 858.5 515C883.5 532.333 896 552 896 574C896 599.333 889.333 619.667 876 635C862.667 650.333 840 665.333 808 680C766 698.667 727.5 727.5 692.5 766.5C657.5 805.5 640 847.333 640 892V928C640 937.333 643 945 649 951C655 957 662.667 960 672 960H864C873.333 960 881 957 887 951C893 945 896 937.333 896 928C896 915.333 903.167 898.833 917.5 878.5C931.833 858.167 950 841.667 972 829C993.333 817 1009.67 807.5 1021 800.5C1032.33 793.5 1047.67 781.833 1067 765.5C1086.33 749.167 1101.17 733.167 1111.5 717.5C1121.83 701.833 1131.17 681.667 1139.5 657C1147.83 632.333 1152 605.333 1152 576ZM1536 768C1536 907.333 1501.67 1035.83 1433 1153.5C1364.33 1271.17 1271.17 1364.33 1153.5 1433C1035.83 1501.67 907.333 1536 768 1536C628.667 1536 500.167 1501.67 382.5 1433C264.833 1364.33 171.667 1271.17 103 1153.5C34.3333 1035.83 0 907.333 0 768C0 628.667 34.3333 500.167 103 382.5C171.667 264.833 264.833 171.667 382.5 103C500.167 34.3333 628.667 0 768 0C907.333 0 1035.83 34.3333 1153.5 103C1271.17 171.667 1364.33 264.833 1433 382.5C1501.67 500.167 1536 628.667 1536 768Z" fill="#49AADA"/>
</svg>
