<svg width="26" height="26" viewBox="0 0 26 26" fill="none" xmlns="http://www.w3.org/2000/svg">
  <path d="M18.637 10.664a1.016 1.016 0 102.03 0 1.016 1.016 0 00-2.03 0zm-8.836 0a1.016 1.016 0 112.031 0 1.016 1.016 0 01-2.031 0zm-4.418 0a1.016 1.016 0 112.031 0 1.016 1.016 0 01-2.031 0zm13.254 4.418a1.016 1.016 0 112.03 0 1.016 1.016 0 01-2.03 0zm1.015 3.402a1.016 1.016 0 110 2.032 1.016 1.016 0 010-2.032zm-5.433-7.82a1.016 1.016 0 112.03 0 1.016 1.016 0 01-2.03 0zm0 4.418a1.016 1.016 0 112.03 0 1.016 1.016 0 01-2.03 0zm1.015 3.402a1.016 1.016 0 110 2.032 1.016 1.016 0 010-2.032zM0 19.855A6.151 6.151 0 006.145 26a6.151 6.151 0 006.144-6.145 6.152 6.152 0 00-6.144-6.144A6.151 6.151 0 000 19.855zm2.031 0a4.118 4.118 0 014.114-4.113 4.118 4.118 0 014.113 4.113 4.118 4.118 0 01-4.113 4.114 4.118 4.118 0 01-4.114-4.114zm2.64-1.015h.458v-1.067a1.016 1.016 0 112.031 0v2.082c0 .561-.455 1.016-1.015 1.016H4.672a1.016 1.016 0 110-2.031zM4.063 2.03h1.32V1.016a1.016 1.016 0 112.032 0V2.03h4.621V1.016a1.016 1.016 0 112.031 0V2.03h4.57V1.016a1.016 1.016 0 112.032 0V2.03h1.27A4.067 4.067 0 0126 6.094v15.843A4.067 4.067 0 0121.937 26h-7.769a1.016 1.016 0 110-2.031h7.77c1.12 0 2.03-.912 2.03-2.032V6.095c0-1.12-.91-2.032-2.03-2.032h-1.27v1.016a1.016 1.016 0 11-2.031 0V4.062h-4.57v1.016a1.016 1.016 0 11-2.032 0V4.062h-4.62v1.016a1.016 1.016 0 11-2.032 0V4.062h-1.32c-1.12 0-2.032.912-2.032 2.032v5.789a1.016 1.016 0 01-2.031 0v-5.79a4.067 4.067 0 014.063-4.062z" fill="#49AADA"></path>
</svg>