<svg
  width="8"
  height="5"
  viewBox="0 0 8 5"
  fill="none"
  xmlns="http://www.w3.org/2000/svg"
>
  <path
    d="M3.95049 3.00777L0.973283 0.366865C0.891496 0.29414 0.784357 0.256442 0.671766 0.260625C0.559113 0.26481 0.455129 0.310352 0.378839 0.38895L0.135985 0.639075C0.0595658 0.717557 0.0197056 0.820156 0.0237034 0.927762C0.0277012 1.03537 0.07506 1.13461 0.157095 1.20726L3.70173 4.35169C3.7839 4.42464 3.89147 4.46226 4.00417 4.45777C4.1174 4.45386 4.22177 4.40843 4.29836 4.32952L7.5967 0.933915C7.67311 0.855373 7.71298 0.752894 7.70898 0.645229C7.70498 0.537622 7.65762 0.438384 7.57558 0.365669L7.31484 0.134313C7.14514 -0.0162303 6.87834 -0.00631836 6.72034 0.1564L3.95049 3.00777Z"
    fill="#AAAAAA"
  ></path>
</svg>