<svg width="16" height="16" viewBox="0 0 16 16" fill="none" xmlns="http://www.w3.org/2000/svg">
<path d="M4.12274 15.7022C3.77021 15.7022 3.41768 15.5905 3.11009 15.367C2.4949 14.9201 2.24921 14.164 2.48421 13.4408L3.47215 10.4002C3.53571 10.2047 3.46662 9.99214 3.30031 9.87129L0.713838 7.9921C0.0974317 7.54423 -0.147881 6.78379 0.0889942 6.05476C0.324932 5.3286 0.967744 4.85935 1.72656 4.85935H4.92359C5.13559 4.85935 5.31221 4.73732 5.37356 4.54845L6.36112 1.48935C6.59646 0.765042 7.23965 0.297729 8.00006 0.297729C8.76046 0.297729 9.40362 0.765011 9.63862 1.48823L10.6269 4.54957C10.6879 4.73732 10.8645 4.85935 11.0765 4.85935H14.2734C15.0322 4.85935 15.675 5.32857 15.911 6.05476C16.1479 6.78376 15.9026 7.54423 15.2861 7.9921L13.5225 9.27345C13.2433 9.47623 12.8525 9.41438 12.6497 9.1352C12.4468 8.85598 12.5087 8.46523 12.7879 8.26232L14.5515 6.98098C14.8115 6.7921 14.748 6.51989 14.7224 6.44095C14.6971 6.36307 14.59 6.1091 14.2734 6.1091H11.0764C10.3246 6.1091 9.66615 5.63714 9.43787 4.93464L8.44956 1.87332C8.35137 1.57107 8.08059 1.54751 7.99996 1.54751C7.91934 1.54751 7.64856 1.57107 7.54999 1.87445L6.56243 4.93354C6.33378 5.63717 5.67534 6.10914 4.92349 6.10914H1.72649C1.40996 6.10914 1.30284 6.3631 1.27753 6.44098C1.25187 6.51989 1.1884 6.79214 1.4484 6.98101L4.03487 8.8602C4.64059 9.30026 4.89212 10.0743 4.66071 10.7864L3.67278 13.8269C3.57424 14.1303 3.7794 14.3085 3.84465 14.3559C3.90987 14.4033 4.14274 14.5434 4.40084 14.3559L6.98728 12.4768C7.59299 12.0367 8.40693 12.0367 9.01262 12.4768L11.5991 14.3559C11.8571 14.5434 12.09 14.4033 12.1552 14.3559C12.2205 14.3085 12.4257 14.1303 12.3271 13.8269L11.6508 11.7454C11.5442 11.4172 11.7238 11.0647 12.0521 10.958C12.3802 10.8514 12.7328 11.031 12.8394 11.3593L13.5157 13.4408C13.7507 14.1639 13.5051 14.9201 12.8899 15.367C12.2747 15.814 11.4797 15.8139 10.8645 15.367L8.27809 13.4879C8.11174 13.3669 7.88821 13.367 7.72193 13.4878L5.13546 15.367C4.82787 15.5905 4.47531 15.7022 4.12274 15.7022Z" fill="#1D96D5"/>
</svg>
