<svg width="25" height="25" fill="none" xmlns="http://www.w3.org/2000/svg" viewBox="-1 -1 27 27">
  <path d="M6.442 24.07a2.683 2.683 0 01-1.582-.524 2.652 2.652 0 01-.978-3.01l1.543-4.75a.737.737 0 00-.268-.827l-4.042-2.936A2.666 2.666 0 01.14 8.995a2.655 2.655 0 012.559-1.867h4.995c.331 0 .607-.191.703-.486l1.543-4.78A2.653 2.653 0 0112.5 0c1.188 0 2.193.73 2.56 1.86l1.545 4.784c.095.293.37.484.702.484h4.995c1.186 0 2.19.733 2.559 1.867a2.665 2.665 0 01-.976 3.028l-2.756 2.002a.976.976 0 01-1.148-1.58l2.756-2.002c.406-.295.307-.72.267-.844-.04-.122-.207-.519-.702-.519h-4.995a2.673 2.673 0 01-2.56-1.835l-1.545-4.783a.717.717 0 00-.702-.51.717.717 0 00-.703.512l-1.543 4.78A2.674 2.674 0 017.693 9.08H2.698c-.495 0-.662.397-.702.519-.04.123-.14.549.267.844l4.041 2.936a2.685 2.685 0 01.978 3.01l-1.543 4.75a.718.718 0 00.268.827.717.717 0 00.87 0l4.04-2.936a2.685 2.685 0 013.165 0l4.041 2.936a.717.717 0 00.87 0 .718.718 0 00.268-.827l-1.057-3.252a.976.976 0 011.858-.603l1.056 3.252a2.652 2.652 0 01-.978 3.01 2.652 2.652 0 01-3.164 0l-4.041-2.936a.737.737 0 00-.87 0l-4.04 2.936a2.689 2.689 0 01-1.583.524z" fill="#49AADA"></path>
</svg>