<svg viewBox="0 0 23 23" xmlns="http://www.w3.org/2000/svg">
  <path d="M5.148 22.535a1.223 1.223 0 01-1.191-1.495l1.48-6.518-5.019-4.4a1.221 1.221 0 01.693-2.14l6.64-.603 2.625-6.143a1.222 1.222 0 012.248 0l2.625 6.143 6.638.603a1.222 1.222 0 01.695 2.14l-5.018 4.4 1.48 6.517a1.222 1.222 0 01-1.819 1.32L11.5 18.94 5.775 22.36c-.194.115-.41.174-.627.174zm6.352-5.07c.217 0 .433.058.627.173l5.403 3.231-1.396-6.152c-.1-.437.049-.895.387-1.19l4.738-4.156-6.269-.57a1.22 1.22 0 01-1.016-.74L11.5 2.264 9.023 8.062A1.218 1.218 0 018.01 8.8l-6.27.569 4.738 4.155c.34.297.488.754.387 1.193L5.47 20.868l5.403-3.23c.194-.115.41-.174.627-.174zM7.7 7.497L7.7 7.5l.001-.002zm7.598-.003v0z"></path>
</svg>