<svg width="25" height="25" viewBox="0 0 25 25" fill="none" xmlns="http://www.w3.org/2000/svg">
  <path d="M24.0234 11.5234H23.0039C22.9238 10.668 22.7386 9.82378 22.4506 9.004C22.0292 7.80444 21.4077 6.71182 20.6197 5.76138L21.3389 5.04224C21.7203 4.66084 21.7203 4.04248 21.3389 3.66113C20.9575 3.27979 20.3391 3.27974 19.9578 3.66113L19.2381 4.38086C18.5809 3.8374 17.8528 3.37036 17.0642 2.9918C15.9179 2.4416 14.7058 2.1085 13.4766 1.9936V0.976562C13.4766 0.437207 13.0394 0 12.5 0C11.9606 0 11.5234 0.437207 11.5234 0.976562V1.99438C10.6744 2.07485 9.82935 2.25942 9.004 2.54941C7.80444 2.97085 6.71182 3.59233 5.76138 4.38027L5.04228 3.66113C4.66089 3.27974 4.04253 3.27974 3.66118 3.66113C3.27983 4.04253 3.27979 4.66089 3.66118 5.04224L4.38086 5.76196C3.83745 6.41919 3.37041 7.14727 2.99185 7.93589C2.4416 9.08213 2.1085 10.2942 1.9936 11.5234H0.976562C0.437207 11.5234 0 11.9606 0 12.5C0 13.0394 0.437207 13.4766 0.976562 13.4766H1.99438C2.0748 14.3256 2.25942 15.1707 2.54941 15.996C2.97085 17.1956 3.59233 18.2882 4.38027 19.2386L3.66113 19.9577C3.27974 20.3391 3.27974 20.9575 3.66113 21.3388C3.85181 21.5295 4.10176 21.6248 4.35171 21.6248C4.60166 21.6248 4.85156 21.5295 5.04228 21.3388L5.76196 20.6191C6.41919 21.1625 7.14727 21.6296 7.93589 22.0082C9.08223 22.5584 10.2942 22.8914 11.5234 23.0063V24.0234C11.5234 24.5628 11.9606 25 12.5 25C13.0394 25 13.4766 24.5628 13.4766 24.0234V23.0052C14.3256 22.9247 15.1707 22.7405 15.996 22.4506C17.1901 22.0311 18.2837 21.4081 19.2366 20.6176L19.9578 21.3388C20.1484 21.5295 20.3984 21.6248 20.6483 21.6248C20.8983 21.6248 21.1482 21.5295 21.3389 21.3388C21.7203 20.9574 21.7203 20.3391 21.3389 19.9577L20.6172 19.236C21.075 18.6835 21.4789 18.0817 21.8204 17.4366C22.0727 16.96 21.8908 16.369 21.4142 16.1166C20.9375 15.8643 20.3466 16.0462 20.0942 16.5228C19.8449 16.9938 19.5547 17.4366 19.2288 17.8475L15.9709 14.5898C16.1774 14.2483 16.3343 13.8738 16.433 13.4766H24.0234C24.5628 13.4766 25 13.0394 25 12.5C25 11.9606 24.5628 11.5234 24.0234 11.5234ZM20.6079 9.65142C20.8224 10.2619 20.9669 10.8887 21.0401 11.5234H16.4331C16.3344 11.1262 16.1774 10.7517 15.971 10.4102L19.2306 7.15054C19.8185 7.89136 20.2852 8.73286 20.6079 9.65142ZM12.5 14.5996C11.3423 14.5996 10.4004 13.6577 10.4004 12.5C10.4004 11.3423 11.3423 10.4004 12.5 10.4004C13.6577 10.4004 14.5996 11.3423 14.5996 12.5C14.5996 13.6577 13.6577 14.5996 12.5 14.5996ZM16.2189 4.75259C16.8055 5.03413 17.3509 5.37583 17.8489 5.77002L14.5898 9.02905C14.2483 8.82261 13.8738 8.66567 13.4766 8.56699V3.95811C14.4161 4.06626 15.3412 4.33125 16.2189 4.75259ZM9.65142 4.39209C10.2653 4.17642 10.8925 4.03232 11.5234 3.95894V8.56694C11.1262 8.66563 10.7517 8.82261 10.4102 9.029L7.15054 5.76934C7.89136 5.18154 8.73286 4.71484 9.65142 4.39209ZM4.75259 8.7811C5.03418 8.19453 5.37583 7.64912 5.77002 7.15112L9.02905 10.4102C8.82261 10.7517 8.66567 11.1262 8.56699 11.5234H3.95811C4.06626 10.5839 4.3313 9.65884 4.75259 8.7811ZM4.39209 15.3486C4.17642 14.7347 4.03232 14.1074 3.95898 13.4766H8.56699C8.66567 13.8738 8.82266 14.2483 9.02905 14.5898L5.76943 17.8495C5.18154 17.1086 4.71484 16.2671 4.39209 15.3486ZM8.7811 20.2474C8.19453 19.9659 7.64907 19.6242 7.15112 19.23L10.4102 15.9709C10.7517 16.1774 11.1262 16.3343 11.5234 16.433V21.0419C10.5839 20.9337 9.65884 20.6687 8.7811 20.2474ZM15.3486 20.6079C14.7347 20.8236 14.1075 20.9677 13.4766 21.041V16.4331C13.8738 16.3344 14.2483 16.1774 14.5898 15.971L17.8478 19.229C17.1052 19.8188 16.2631 20.2866 15.3486 20.6079Z" fill="#49AADA"></path>
</svg>