<svg width="26" height="27" viewBox="0 0 26 27" fill="none" xmlns="http://www.w3.org/2000/svg">
  <path d="M22.54 3.616h-3.487c-1.2 0-2.4-.007-3.6-.007-1 .007-1.313.314-1.313 1.33-.007 3.06-.007 6.108-.007 9.162v5.44c0 .181.007.361-.013.542-.073.528-.48.896-.98.889-.473-.007-.867-.368-.94-.869-.027-.174-.02-.36-.02-.535 0-4.972 0-9.95.007-14.923 0-1.758 1.22-2.98 2.973-2.98 2.78-.008 5.553-.014 8.333.006 1.387.006 2.194 1.35 1.5 2.526-.206.354-.586.615-.906.902-.307.274-.62.548-.947.796-.293.22-.287.414-.027.648.534.481 1.047.976 1.58 1.457.547.494.62 1.116.44 1.777-.173.662-.666 1.003-1.313 1.11-.247.04-.5.06-.747.06-1.846.007-3.693.007-5.533 0-.287 0-.573-.027-.853-.08-.474-.094-.694-.421-.727-.882-.027-.468.193-.809.633-.95.267-.086.56-.12.847-.12 1.487-.013 2.973-.006 4.46-.013.187 0 .38-.02.627-.154-.38-.367-.76-.735-1.14-1.096-.26-.247-.54-.474-.794-.728-.453-.468-.473-.963-.006-1.417.46-.455.96-.856 1.446-1.283.187-.16.374-.321.56-.475-.013-.053-.033-.093-.053-.133z" fill="#49AADA"></path>
  <path d="M3.273 22.328c3.254 2.072 16.747 2.019 19.787-.04-.613-.2-1.127-.434-1.673-.541-1.334-.254-2.68-.454-4.02-.675-.247-.04-.5-.06-.74-.127-.487-.14-.814-.655-.727-1.116.093-.495.52-.835 1.067-.789 2.086.18 4.166.441 6.16 1.15.366.133.706.347 1.04.548.68.4 1.106.969 1.04 1.804-.06.836-.634 1.31-1.3 1.658-1.487.775-3.12 1.062-4.754 1.276a45.52 45.52 0 01-9 .268c-2.04-.134-4.073-.288-6.04-.91a11.013 11.013 0 01-1.92-.808c-.653-.354-1.12-.889-1.086-1.718.033-.822.533-1.316 1.18-1.677 1.353-.755 2.866-1.003 4.36-1.27.806-.14 1.626-.187 2.446-.267.687-.067 1.12.214 1.2.782.08.548-.253 1.029-.893 1.13-.987.16-1.993.226-2.973.4-.827.147-1.634.388-2.447.608-.22.06-.42.18-.707.314z" fill="#49AADA"></path>
</svg>