<svg fill="none" xmlns="http://www.w3.org/2000/svg" viewBox="0 0 18 19"><path d="M12.832 18.97a4.714 4.714 0 01-1.707-.324c-2.462-.95-4.747-2.498-6.608-4.475A19.522 19.522 0 01.305 7.15a5.555 5.555 0 01.608-4.87A5.191 5.191 0 012.656.633 4.74 4.74 0 015.036 0c.263 0 .49.195.546.469l.875 4.342a.618.618 0 01-.15.543L4.81 6.944c1.411 2.982 3.702 5.416 6.509 6.916l1.496-1.59a.537.537 0 01.511-.16l4.087.93c.257.058.441.3.441.58 0 .898-.2 1.749-.595 2.529A5.3 5.3 0 0115.708 18a4.89 4.89 0 01-2.156.914c-.24.037-.48.056-.72.056zM4.59 1.212c-1.115.13-2.106.752-2.763 1.749a4.299 4.299 0 00-.473 3.784c1.719 5.029 5.42 8.96 10.152 10.787 1.208.466 2.506.283 3.561-.503.939-.698 1.524-1.75 1.647-2.936l-3.325-.757-1.562 1.66a.534.534 0 01-.632.118c-3.32-1.657-6.006-4.512-7.566-8.038a.62.62 0 01.11-.672l1.564-1.66-.713-3.532zM17.296 10.078c-.308 0-.558-.265-.558-.592 0-4.577-3.503-8.3-7.81-8.3-.308 0-.558-.265-.558-.592 0-.328.25-.593.558-.593 2.384 0 4.626.986 6.312 2.778 1.686 1.791 2.614 4.173 2.614 6.707 0 .327-.25.592-.558.592z" fill="#FFFFFF"/><path d="M15.065 10.078c-.308 0-.558-.265-.558-.593 0-3.268-2.503-5.928-5.58-5.928-.307 0-.557-.265-.557-.592 0-.328.25-.593.558-.593 3.691 0 6.695 3.19 6.695 7.113 0 .328-.25.593-.558.593z" fill="#FFFFFF"/><path d="M12.833 10.078c-.308 0-.558-.266-.558-.593 0-1.961-1.502-3.557-3.347-3.557-.308 0-.558-.265-.558-.593 0-.327.25-.592.558-.592 2.46 0 4.463 2.127 4.463 4.742 0 .327-.25.593-.558.593z" fill="#FFFFFF"/></svg>