<svg
  class="header-social-list__social-svg"
  fill="none"
  xmlns="http://www.w3.org/2000/svg"
  viewBox="0 0 26 27"
>
  <path
    d="M13 26.74h.01c7.171 0 12.99-5.819 12.99-12.99v-.01c0-7.181-5.819-13-13-13s-13 5.819-13 13v.01c.01 7.181 5.819 12.99 13 12.99Z"
    fill="#59B8E9"
  ></path>
  <path
    d="M18 8.001c-.177.009-.341.064-.485.128-.136.06-.652.301-1.467.682l-3.044 1.425-6.215 2.915c-.05.024-.224.084-.408.241-.185.157-.381.483-.381.846 0 .292.128.583.289.756.16.174.331.26.477.324l2.48 1.106c.11.364.704 2.346.841 2.831.091.32.178.521.29.68.057.08.122.15.201.205a.611.611 0 0 0 .102.054l.002.001c.008.004.015.01.023.013.016.006.026.006.047.011a.747.747 0 0 0 .24.048c.317 0 .51-.19.51-.19l.012-.01 1.63-1.537 1.978 2.039c.028.043.287.431.86.431.34 0 .61-.186.783-.384.173-.198.28-.406.326-.668.043-.248 1.865-10.445 1.865-10.445l-.003.013c.054-.265.068-.512.009-.756a1.03 1.03 0 0 0-.407-.603A.911.911 0 0 0 18 8Zm-.102 1.234c-.003.017.002.009-.003.029v.007l-.002.007s-1.8 10.067-1.866 10.45c.005-.029-.017.029-.04.063-.032-.024-.098-.055-.098-.055l-.01-.013-2.701-2.785-1.91 1.8.568-2.48s3.551-4.007 3.765-4.24c.172-.187.208-.252.208-.316 0-.086-.04-.149-.133-.149-.083 0-.194.088-.254.13-.776.539-4.184 2.704-5.711 3.672l-2.5-1.115.007-.004 6.213-2.915c1.151-.54 2.23-1.045 3.045-1.425.801-.375 1.358-.633 1.422-.661Z"
    fill="#fff"
  ></path>
</svg>