<svg width="20" height="20" viewBox="0 0 20 20" fill="none" xmlns="http://www.w3.org/2000/svg">
<path d="M16.3229 4.17334C17.0258 4.17334 17.2108 4.70501 17.0029 5.95334C16.765 7.38084 16.0796 12.1071 15.5329 15.0492C15.3237 16.175 14.9467 16.6604 14.3979 16.6604C14.0962 16.6604 13.7429 16.5138 13.3371 16.2458C12.7871 15.8825 10.0104 14.0463 9.4075 13.615C8.8575 13.2221 8.09875 12.7492 9.05041 11.8183C9.38916 11.4867 11.6087 9.36709 13.3379 7.71751C13.5225 7.54126 13.3679 7.27251 13.1629 7.27251C13.1112 7.27322 13.0609 7.28932 13.0183 7.31876C10.6875 8.86459 7.45541 11.01 7.04416 11.2896C6.63291 11.5688 6.23208 11.7479 5.69791 11.7479C5.425 11.7479 5.11708 11.7013 4.755 11.5971C3.94541 11.3646 3.155 11.0875 2.84708 10.9817C1.66166 10.575 1.94291 10.0479 3.09416 9.54126C7.71 7.51084 13.6829 5.03501 14.5075 4.69251C15.3108 4.35876 15.9075 4.17334 16.3229 4.17334ZM16.3229 2.92334C15.7529 2.92334 15.0667 3.10709 14.0287 3.53751L13.9042 3.58917C9.47291 5.42917 5.455 7.13667 2.59083 8.39667C2.14333 8.59376 0.78208 9.19251 0.834997 10.445C0.857497 10.9854 1.155 11.7221 2.44166 12.1633L2.53666 12.1958C2.89583 12.3196 3.64375 12.5775 4.41041 12.7979C4.87708 12.9321 5.29875 12.9971 5.69833 12.9971C6.2762 12.999 6.84475 12.8515 7.34875 12.5688C7.34667 12.6392 7.34834 12.7097 7.35375 12.78C7.42958 13.7433 8.17458 14.2717 8.61958 14.5875L8.68166 14.6317C9.33875 15.1017 12.3125 17.0663 12.6492 17.2883C13.2829 17.7067 13.855 17.9096 14.3987 17.9096C15.2537 17.9096 16.3583 17.4529 16.7625 15.2771C17.1462 13.2133 17.5896 10.3304 17.9133 8.22542C18.0512 7.32709 18.1646 6.59042 18.2367 6.15834C18.3821 5.28584 18.4487 4.29751 17.8417 3.58126C17.5867 3.28126 17.1167 2.92334 16.3229 2.92334Z" fill="white"/>
</svg>
