<svg width="8307" height="1306" viewBox="0 0 8307 1306" fill="none" xmlns="http://www.w3.org/2000/svg">
<path d="M3018.88 987.689C3007.49 987.689 2997.43 980.242 2994.1 969.341L2970.27 891.263C2969.73 889.487 2968.09 888.275 2966.23 888.275C2964.95 888.275 2963.72 888.87 2962.92 889.878C2928.91 932.472 2894.69 961.633 2860.26 977.36C2825.4 992.854 2780.64 1000.6 2725.99 1000.6C2655.84 1000.6 2600.97 981.664 2561.37 943.792C2522.21 905.92 2502.63 852.339 2502.63 783.05C2502.63 709.458 2529.95 653.941 2584.61 616.499C2639.27 579.057 2722.54 558.615 2834.44 555.172L2932.64 552.087C2946.63 551.647 2957.74 540.182 2957.74 526.187V513.211C2957.74 467.592 2946.98 433.593 2925.46 411.214C2904.37 388.405 2871.45 377 2826.69 377C2790.11 377 2755.04 382.38 2721.47 393.139C2696.48 401.149 2672.2 410.233 2648.64 420.389C2635.35 426.12 2619.75 420.418 2613.78 407.228L2585.67 345.087C2580 332.565 2585.07 317.731 2597.56 312.002C2630.2 297.035 2665.26 285.348 2702.75 276.94C2748.8 266.181 2792.26 260.802 2833.15 260.802C2923.95 260.802 2992.38 280.598 3038.43 320.192C3084.91 359.786 3108.15 421.974 3108.15 506.756V961.777C3108.15 976.088 3096.55 987.689 3082.24 987.689H3018.88ZM2773.76 884.401C2828.84 884.401 2872.96 869.123 2906.09 838.568C2939.66 807.581 2956.45 764.329 2956.45 708.812V673.87C2956.45 659.13 2944.17 647.358 2929.44 647.981L2864.78 650.713C2793.34 653.295 2741.26 665.345 2708.56 686.864C2676.28 707.952 2660.14 740.444 2660.14 784.341C2660.14 816.188 2669.61 840.935 2688.54 858.58C2707.48 875.794 2735.88 884.401 2773.76 884.401Z" fill="#3A4145"/>
<path d="M3484.82 961.777C3484.82 976.088 3473.21 987.689 3458.9 987.689H3359.02C3344.71 987.689 3333.11 976.088 3333.11 961.777V299.625C3333.11 285.314 3344.71 273.713 3359.02 273.713H3458.9C3473.21 273.713 3484.82 285.314 3484.82 299.625V961.777ZM3324.07 84.5669C3324.07 57.4538 3331.39 36.5811 3346.02 21.9486C3361.09 7.31622 3382.39 0 3409.93 0C3436.62 0 3457.27 7.31622 3471.9 21.9486C3486.97 36.5811 3494.5 57.4538 3494.5 84.5669C3494.5 110.389 3486.97 130.831 3471.9 145.894C3457.27 160.526 3436.62 167.843 3409.93 167.843C3382.39 167.843 3361.09 160.526 3346.02 145.894C3331.39 130.831 3324.07 110.389 3324.07 84.5669Z" fill="#3A4145"/>
<path d="M5044.34 987.689C5032.25 987.689 5021.76 979.321 5019.08 967.527L5003.38 898.56C5002.78 895.942 5000.46 894.085 4997.77 894.085C4995.81 894.085 4993.98 895.093 4992.9 896.735C4971.91 928.614 4942.35 953.768 4904.24 972.196C4865.51 991.132 4821.18 1000.6 4771.26 1000.6C4684.75 1000.6 4620.2 979.082 4577.59 936.045C4534.98 893.009 4513.68 827.808 4513.68 740.444V299.625C4513.68 285.314 4525.28 273.713 4539.59 273.713H4640.76C4655.08 273.713 4666.68 285.314 4666.68 299.625V713.977C4666.68 768.633 4677.87 809.733 4700.25 837.276C4722.62 864.389 4757.7 877.946 4805.47 877.946C4869.16 877.946 4915.86 859.01 4945.55 821.138C4975.68 782.835 4990.74 718.926 4990.74 629.41V299.625C4990.74 285.314 5002.34 273.713 5016.65 273.713H5117.18C5131.49 273.713 5143.09 285.314 5143.09 299.625V961.777C5143.09 976.088 5131.49 987.689 5117.18 987.689H5044.34Z" fill="#3A4145"/>
<path d="M5278.4 309.278C5271.56 292.253 5284.1 273.713 5302.44 273.713H5411.15C5422.08 273.713 5431.84 280.579 5435.54 290.873L5574.63 678.471C5596.21 735.166 5610.71 788.533 5618.15 838.573C5618.37 840.053 5619.64 841.15 5621.13 841.15C5622.61 841.15 5623.86 840.083 5624.11 838.629C5628.07 815.456 5635.03 787.677 5644.99 755.292C5655.11 721.992 5707.75 567.315 5802.91 291.261C5806.51 280.81 5816.38 273.713 5827.44 273.713H5935.45C5953.57 273.713 5966.09 291.827 5959.69 308.776L5667.59 1082.58C5612.07 1231.06 5519.54 1305.3 5390 1305.3C5363.5 1305.3 5337.52 1303.02 5312.09 1298.46C5300.21 1296.32 5291.88 1285.77 5291.88 1273.69V1206.69C5291.88 1190.07 5307.34 1177.71 5323.86 1179.57C5338.22 1181.19 5353.6 1182 5369.99 1182C5443.15 1182 5494.58 1139.61 5524.27 1054.83L5546.96 997.28C5549.39 991.121 5549.37 984.266 5546.9 978.123L5278.4 309.278Z" fill="#3A4145"/>
<path d="M7055.07 260.802C7074.87 260.802 7092.41 261.705 7107.69 263.512C7120.82 265.064 7129.55 277.208 7128.17 290.351L7118.84 379.246C7117.2 394.815 7102.23 405.304 7086.7 403.296C7074.28 401.689 7061.58 400.886 7048.61 400.886C6987.93 400.886 6938.66 420.682 6900.78 460.276C6863.34 499.87 6844.62 551.298 6844.62 614.562V961.777C6844.62 976.088 6833.02 987.689 6818.71 987.689H6718.83C6704.52 987.689 6692.92 976.088 6692.92 961.777V299.625C6692.92 285.314 6704.52 273.713 6718.83 273.713H6789.58C6802.32 273.713 6813.17 282.974 6815.17 295.556L6830.99 395.066C6831.41 397.674 6833.66 399.595 6836.3 399.595C6838.25 399.595 6840.04 398.533 6841.01 396.836C6864.46 355.528 6894.72 322.664 6931.77 298.243C6970.07 273.282 7011.17 260.802 7055.07 260.802Z" fill="#3A4145"/>
<path d="M7428.51 961.777C7428.51 976.088 7416.91 987.689 7402.6 987.689H7302.72C7288.41 987.689 7276.8 976.088 7276.8 961.777V299.625C7276.8 285.314 7288.41 273.713 7302.72 273.713H7402.6C7416.91 273.713 7428.51 285.314 7428.51 299.625V961.777ZM7267.77 84.5669C7267.77 57.4538 7275.08 36.5811 7289.71 21.9486C7304.78 7.31622 7326.08 0 7353.62 0C7380.31 0 7400.96 7.31622 7415.6 21.9486C7430.66 36.5811 7438.19 57.4538 7438.19 84.5669C7438.19 110.389 7430.66 130.831 7415.6 145.894C7400.96 160.526 7380.31 167.843 7353.62 167.843C7326.08 167.843 7304.78 160.526 7289.71 145.894C7275.08 130.831 7267.77 110.389 7267.77 84.5669Z" fill="#3A4145"/>
<path d="M8021.43 1000.6C7932.08 1000.6 7862.51 968.844 7812.7 905.331C7811.61 903.949 7809.95 903.122 7808.19 903.122C7804.85 903.122 7802.23 906.019 7802.56 909.349C7808.18 965.9 7810.98 1000.41 7810.98 1012.87V1279.39C7810.98 1293.7 7799.38 1305.3 7785.07 1305.3H7685.19C7670.88 1305.3 7659.28 1293.7 7659.28 1279.39V299.625C7659.28 285.314 7670.88 273.713 7685.19 273.713H7761.86C7773.68 273.713 7783.96 281.706 7786.6 293.225C7790.34 309.563 7795.56 333.391 7802.26 364.711C7802.83 367.36 7805.17 369.254 7807.88 369.254C7809.82 369.254 7811.62 368.265 7812.7 366.657C7860.04 296.087 7930.47 260.802 8024.01 260.802C8113.1 260.802 8182.39 293.079 8231.88 357.634C8281.8 422.189 8306.76 512.781 8306.76 629.41C8306.76 746.039 8281.37 837.061 8230.59 902.477C8180.24 967.892 8110.52 1000.6 8021.43 1000.6ZM7984.63 384.747C7924.38 384.747 7880.27 402.392 7852.3 437.682C7824.75 472.972 7810.98 529.35 7810.98 606.816V629.41C7810.98 716.344 7824.75 779.392 7852.3 818.556C7879.84 857.288 7924.81 876.655 7987.22 876.655C8039.72 876.655 8080.18 855.137 8108.58 812.1C8136.98 769.063 8151.19 707.736 8151.19 628.119C8151.19 548.071 8136.98 487.604 8108.58 446.72C8080.61 405.404 8039.29 384.747 7984.63 384.747Z" fill="#3A4145"/>
<path d="M6425.35 878.036C6450.99 878.036 6476.64 875.247 6502.28 869.668C6519.38 865.949 6536.38 878.405 6536.38 895.901V957.896C6536.38 968.204 6530.31 977.641 6520.53 980.908C6506.58 985.57 6490.13 989.582 6471.18 992.943C6444.93 998.108 6417.6 1000.69 6389.2 1000.69C6245.46 1000.69 6173.59 924.946 6173.59 773.458V414.624C6173.59 400.313 6161.99 388.712 6147.68 388.712H6102.02C6087.71 388.712 6076.11 377.111 6076.11 362.8V337.156C6076.11 327.569 6081.4 318.765 6089.87 314.269L6171.63 270.864C6177.45 267.776 6181.87 262.59 6184 256.359L6226.34 132.53C6229.92 122.045 6239.78 115 6250.86 115H6300.02C6314.33 115 6325.94 126.601 6325.94 140.912V247.892C6325.94 262.203 6337.54 273.804 6351.85 273.804H6503.37C6517.68 273.804 6529.28 285.406 6529.28 299.717V362.8C6529.28 377.111 6517.68 388.712 6503.37 388.712H6351.85C6337.54 388.712 6325.94 400.313 6325.94 414.624V770.875C6325.94 807.456 6334.97 834.569 6353.05 852.214C6371.55 869.429 6395.65 878.036 6425.35 878.036Z" fill="#3A4145"/>
<path d="M4273.76 368.572C4223.92 304.273 4154.13 271.671 4066.23 271.671C4006.41 271.671 3955.66 286.161 3913.97 314.235C3898.57 325.102 3877.72 321.48 3865.94 305.179C3861.41 299.745 3859.6 292.5 3860.5 284.35C3861.41 275.294 3861.41 267.143 3861.41 258.993V130.396C3861.41 122.245 3854.16 115 3846 115H3722.75C3714.6 115 3707.35 122.245 3707.35 130.396V972.616C3707.35 980.767 3714.6 988.011 3722.75 988.011H3816.1C3822.44 988.011 3828.79 983.484 3830.6 977.144L3837.85 952.693C3839.66 946.353 3842.38 941.825 3846.91 938.203C3854.16 932.769 3862.32 929.147 3870.47 929.147C3878.63 929.147 3887.69 931.863 3894.04 938.203C3938.44 979.861 3997.35 1000.69 4068.04 1000.69C4155.94 1000.69 4224.82 968.088 4273.76 904.695C4322.7 841.302 4348.07 751.646 4348.07 637.539C4348.98 523.432 4323.6 432.87 4273.76 368.572ZM4150.51 816.851C4123.32 857.603 4083.44 876.621 4029.07 876.621C3969.26 876.621 3924.85 859.414 3897.66 825.907C3870.47 792.399 3855.97 736.251 3855.07 660.18V639.35C3855.07 552.411 3869.57 489.018 3897.66 452.794C3925.76 416.569 3970.16 397.552 4030.88 397.552C4082.54 397.552 4121.51 418.381 4149.6 460.039C4177.69 501.697 4191.29 562.373 4191.29 640.256C4191.29 717.233 4177.69 776.098 4150.51 816.851Z" fill="#3A4145"/>
<path d="M2083.78 297.131C2037.56 297.131 1995.95 306.376 1960.82 323.942C1928.46 340.583 1902.58 362.772 1883.16 391.432C1886.86 353.526 1886.86 339.659 1886.86 305.451V143.66C1886.86 127.944 1873.92 115 1857.28 115H1761.13C1744.49 115 1731.54 127.944 1731.54 143.66V972.03C1731.54 987.747 1744.49 1000.69 1761.13 1000.69H1857.28C1873.92 1000.69 1886.86 987.747 1886.86 972.03V668.788C1886.86 588.354 1900.73 519.94 1927.54 485.733C1954.35 452.45 1995.95 435.809 2053.27 435.809C2095.8 435.809 2127.24 447.827 2146.65 470.94C2166.07 494.053 2176.24 542.128 2176.24 591.128V972.03C2176.24 987.747 2189.18 1000.69 2205.82 1000.69H2302.9C2319.54 1000.69 2332.48 987.747 2332.48 972.03V567.09C2330.63 403.45 2249.27 297.131 2083.78 297.131Z" fill="#3A4145"/>
<path d="M1432.98 878.036C1458.62 878.036 1484.27 875.247 1509.91 869.668C1527.01 865.949 1544.01 878.405 1544.01 895.901V957.896C1544.01 968.204 1537.94 977.641 1528.16 980.908C1514.2 985.57 1497.76 989.582 1478.81 992.943C1452.56 998.108 1425.23 1000.69 1396.83 1000.69C1253.09 1000.69 1181.21 924.946 1181.21 773.458V414.624C1181.21 400.313 1169.61 388.712 1155.3 388.712H1109.65C1095.34 388.712 1083.74 377.111 1083.74 362.8V337.156C1083.74 327.569 1089.03 318.765 1097.5 314.269L1179.26 270.864C1185.08 267.776 1189.5 262.59 1191.63 256.359L1233.97 132.53C1237.55 122.045 1247.4 115 1258.48 115H1307.65C1321.96 115 1333.56 126.601 1333.56 140.912V247.892C1333.56 262.203 1345.16 273.804 1359.48 273.804H1511C1525.31 273.804 1536.91 285.406 1536.91 299.717V362.8C1536.91 377.111 1525.31 388.712 1511 388.712H1359.48C1345.16 388.712 1333.56 400.313 1333.56 414.624V770.875C1333.56 807.456 1342.6 834.569 1360.68 852.214C1379.18 869.429 1403.28 878.036 1432.98 878.036Z" fill="#3A4145"/>
<path d="M125.226 180.632C135.074 151.984 272.943 157.356 315.02 165.413C410.812 183.318 486.909 204.804 587.177 284.482C676.703 356.102 759.961 474.275 742.951 572.753C740.266 589.763 735.789 609.459 716.094 628.259C668.645 671.231 628.359 686.451 582.701 704.356C511.081 733.004 432.298 744.642 410.812 747.328C367.84 751.804 286.372 751.804 276.524 746.433C257.724 733.004 306.068 715.099 334.716 641.688C359.783 576.334 357.992 494.866 356.202 473.38C328.449 234.348 109.112 225.395 125.226 180.632Z" fill="#4AA9DA"/>
<path d="M0.785219 799.25C8.8425 785.821 62.5577 818.945 173.569 834.165C285.476 849.384 371.42 840.431 423.345 832.374C640.892 802.831 748.322 709.725 769.808 739.268C788.608 766.126 716.093 877.137 614.034 939.804C468.108 1031.12 310.543 996.205 269.361 986.358C108.216 945.176 -10.8531 820.736 0.785219 799.25Z" fill="#4AA9DA"/>
</svg>
