<svg xmlns="http://www.w3.org/2000/svg" viewBox="0 0 35 35">
  <path d="M23.926 27.474a1.367 1.367 0 100-2.735 1.367 1.367 0 000 2.735zM18.457 15.169h-9.57a1.367 1.367 0 100 2.734h9.57a1.367 1.367 0 100-2.734zM15.176 19.954h-6.29a1.367 1.367 0 100 2.734h6.29a1.367 1.367 0 100-2.734z"></path>
  <path d="M33.905 19.311A1.367 1.367 0 0035 17.971v-3.486a5.475 5.475 0 00-5.469-5.469H5.47c-.396 0-.782.044-1.154.124.175-.08.361-.144.556-.188l21.378-4.79a2.41 2.41 0 012.706 1.374 1.367 1.367 0 002.501-1.105 5.154 5.154 0 00-5.8-2.938L4.273 6.284c-1.208.271-2.3.952-3.073 1.919A5.488 5.488 0 000 11.62v6.35c0 .651.458 1.211 1.095 1.34a2.056 2.056 0 011.64 2.01c0 .972-.69 1.817-1.64 2.01C.458 23.46 0 24.02 0 24.67v3.486a5.475 5.475 0 005.469 5.469H29.53A5.475 5.475 0 0035 28.157v-3.486c0-.65-.458-1.21-1.095-1.34a2.056 2.056 0 01-1.64-2.01c0-.971.69-1.817 1.64-2.01zm-1.64-2.313a4.805 4.805 0 00-2.734 4.323c0 1.873 1.1 3.546 2.735 4.324v2.512a2.737 2.737 0 01-2.735 2.735h-4.238a1.367 1.367 0 10-2.734 0H5.469a2.737 2.737 0 01-2.735-2.735v-2.512A4.805 4.805 0 005.47 21.32c0-1.873-1.1-3.545-2.735-4.323v-2.513a2.738 2.738 0 012.735-2.734h17.09a1.367 1.367 0 102.734 0h4.238a2.738 2.738 0 012.735 2.734v2.513z"></path>
  <path d="M23.926 17.903a1.367 1.367 0 100-2.734 1.367 1.367 0 000 2.734zM23.926 22.688a1.367 1.367 0 100-2.734 1.367 1.367 0 000 2.734z"></path>
</svg>