<svg width="29" height="24" fill="none" xmlns="http://www.w3.org/2000/svg" viewBox="0 0 29 24">
  <g clip-path="url(#clip101)" fill="#49AADA">
    <path d="M10 11.6v2.6H8.1V7.1h2.3c1.9 0 2.9.7 2.9 2.1 0 .8-.4 1.5-1.2 1.9l2.1 3.1H12l-1.5-2.6H10zm0-1.4h.4c.7 0 1-.3 1-.9 0-.5-.3-.7-1-.7H10v1.6zm10.9-3.1v4.3c0 .9-.3 1.7-.8 2.2-.5.5-1.3.8-2.3.8-1 0-1.7-.2-2.2-.7-.5-.5-.8-1.2-.8-2.1V7.3h1.9v4.2c0 .5.1.9.3 1.1.2.2.5.3.8.3.4 0 .7-.1.9-.3.2-.2.3-.6.3-1.1V7.3h1.9v-.2z"></path>
    <path d="M22.6 0H6.1c-3.3 0-6 2.7-6 6v8.8c0 2.6 1.7 4.9 4.2 5.6L7 23.1c.2.2.5.3.8.3.3 0 .6-.1.8-.3l2.5-2.5h11.6c3.3 0 6-2.7 6-6V5.8C28.5 2.6 25.9 0 22.6 0zm0 18.5H10.5c-.3 0-.6.1-.8.3l-2 2-2.2-2.2c-.1-.1-.3-.2-.5-.3-1.7-.4-2.9-1.9-2.9-3.6V5.9c0-2.1 1.7-3.8 3.9-3.8h16.5c2.1 0 3.9 1.7 3.9 3.8v8.8c0 2.1-1.7 3.8-3.8 3.8z"></path>
  </g>
  <defs>
    <clipPath id="clip101">
      <path fill="#fff" d="M0 0h28.5v23.5H0z"></path>
    </clipPath>
  </defs>
</svg>