<svg width="26" height="27" viewBox="0 0 26 27" fill="none" xmlns="http://www.w3.org/2000/svg">
<g clip-path="url(#clip0_22_6)">
<path d="M13 26.74H13.01C20.181 26.74 26 20.919 26 13.745V13.735C26 6.55999 20.181 0.73999 13 0.73999C5.819 0.73999 0 6.56099 0 13.745V13.755C0.01 20.93 5.819 26.74 13 26.74Z" fill="#312D2D"/>
<path fill-rule="evenodd" clip-rule="evenodd" d="M12.31 19.688H13.325C13.325 19.688 13.632 19.655 13.791 19.48C13.939 19.316 13.928 19.022 13.928 19.022C13.928 19.022 13.908 17.613 14.542 17.406C15.166 17.199 15.971 18.77 16.817 19.371C17.463 19.829 17.95 19.731 17.95 19.731L20.225 19.698C20.225 19.698 21.41 19.622 20.849 18.661C20.807 18.585 20.521 17.951 19.156 16.641C17.727 15.277 17.918 15.496 19.643 13.138C20.691 11.697 21.103 10.823 20.976 10.441C20.849 10.081 20.087 10.179 20.087 10.179L17.527 10.201C17.527 10.201 17.336 10.179 17.198 10.267C17.061 10.354 16.976 10.551 16.976 10.551C16.976 10.551 16.574 11.664 16.034 12.614C14.891 14.611 14.436 14.721 14.256 14.59C13.822 14.306 13.928 13.432 13.928 12.81C13.928 10.878 14.214 10.07 13.378 9.86301C13.103 9.79701 12.891 9.74301 12.182 9.74301C11.272 9.73201 10.499 9.74301 10.055 9.97201C9.75897 10.114 9.53597 10.452 9.67397 10.463C9.84397 10.485 10.224 10.573 10.425 10.856C10.69 11.227 10.679 12.046 10.679 12.046C10.679 12.046 10.828 14.328 10.33 14.611C9.97997 14.808 9.51497 14.404 8.49997 12.591C7.97997 11.664 7.58997 10.638 7.58997 10.638C7.58997 10.638 7.51497 10.441 7.37797 10.343C7.21797 10.223 6.98597 10.179 6.98597 10.179L4.55197 10.19C4.55197 10.19 4.18197 10.201 4.05497 10.365C3.93797 10.507 4.04497 10.813 4.04497 10.813C4.04497 10.813 5.94897 15.408 8.10797 17.723C10.066 19.829 12.309 19.688 12.309 19.688H12.31Z" fill="white"/>
</g>
<defs>
<clipPath id="clip0_22_6">
<rect width="26" height="27" fill="white"/>
</clipPath>
</defs>
</svg>
