<svg width="28" height="28" fill="none" xmlns="http://www.w3.org/2000/svg" viewBox="0 0 28 28"><path d="M14 28h.011C21.734 28 28 21.731 28 14.005v-.01C28 6.269 21.734 0 14 0S0 6.269 0 14.005v.012C.011 21.742 6.266 28 14 28z" fill="#727272"></path><path fill-rule="evenodd" clip-rule="evenodd" d="M13.255 20.406h1.094s.33-.036.502-.224c.16-.176.148-.493.148-.493s-.023-1.517.661-1.74c.672-.224 1.538 1.47 2.45 2.116.695.493 1.22.388 1.22.388l2.45-.036s1.276-.082.672-1.116c-.045-.083-.353-.764-1.823-2.175-1.539-1.47-1.334-1.235.524-3.774 1.129-1.552 1.573-2.492 1.436-2.904-.137-.388-.957-.282-.957-.282l-2.758.024s-.205-.024-.354.07c-.148.094-.239.306-.239.306s-.433 1.199-1.014 2.222c-1.23 2.151-1.721 2.269-1.915 2.128-.467-.306-.353-1.247-.353-1.917 0-2.08.308-2.95-.593-3.174-.296-.07-.524-.129-1.288-.129-.98-.012-1.812 0-2.29.247-.32.153-.559.517-.41.529.182.023.592.117.809.423.285.4.273 1.282.273 1.282s.16 2.457-.376 2.762c-.376.212-.878-.223-1.972-2.175-.558-.999-.98-2.104-.98-2.104s-.08-.212-.228-.317a1.165 1.165 0 00-.421-.177l-2.622.012s-.398.012-.535.188c-.126.153-.012.482-.012.482s2.052 4.95 4.377 7.442c2.108 2.268 4.524 2.116 4.524 2.116z" fill="#fff"></path></svg>