<svg
  fill="none"
  xmlns="http://www.w3.org/2000/svg"
  viewBox="0 0 26 27"
>
  <path
    d="M13 26.74h.01c7.171 0 12.99-5.821 12.99-12.995v-.01C26 6.56 20.181.74 13 .74S0 6.561 0 13.745v.01C.01 20.93 5.819 26.74 13 26.74Z"
    fill="#59B8E9"
  ></path>
  <path
    fill-rule="evenodd"
    clip-rule="evenodd"
    d="M12.31 19.688h1.015s.307-.033.466-.208c.148-.164.137-.458.137-.458s-.02-1.409.614-1.616c.624-.207 1.429 1.364 2.275 1.965.646.458 1.133.36 1.133.36l2.275-.033s1.185-.076.624-1.037c-.042-.076-.328-.71-1.693-2.02-1.429-1.364-1.238-1.145.487-3.503 1.048-1.441 1.46-2.315 1.333-2.697-.127-.36-.889-.262-.889-.262l-2.56.022s-.191-.022-.329.066c-.137.087-.222.284-.222.284s-.402 1.113-.942 2.063c-1.143 1.997-1.598 2.107-1.778 1.976-.434-.284-.328-1.158-.328-1.78 0-1.932.286-2.74-.55-2.947-.275-.066-.487-.12-1.196-.12-.91-.011-1.683 0-2.127.229-.296.142-.519.48-.381.491.17.022.55.11.751.393.265.371.254 1.19.254 1.19s.149 2.282-.349 2.565c-.35.197-.815-.207-1.83-2.02-.52-.927-.91-1.953-.91-1.953s-.075-.197-.212-.295c-.16-.12-.392-.164-.392-.164l-2.434.011s-.37.011-.497.175c-.117.142-.01.448-.01.448s1.904 4.595 4.063 6.91c1.958 2.106 4.201 1.965 4.201 1.965Z"
    fill="#fff"
  ></path>
</svg>