<svg fill="#312d2d" xmlns="http://www.w3.org/2000/svg" viewBox="0 0 1024 1024">
  <path d="M925.889 1024c27.477 0 49.81-22.349 49.81-49.806v-618.404c0-27.469-22.353-49.818-49.81-49.818h-97.101c-2.433-7.871-6.504-15.165-12.493-21.13l-269.877-269.897c-19.924-19.924-52.333-19.924-72.237 0l-269.873 269.853c-5.985 5.985-10.088 13.279-12.505 21.15h-93.686c-27.489 0-49.818 22.353-49.818 49.822v618.401c0 27.457 22.349 49.81 49.818 49.81l827.775 0.020zM510.293 65.521l240.451 240.451h-480.902l240.451-240.451zM109.601 367.272h804.813v595.427h-804.813v-595.427zM532.621 515.004h-18.116c-16.006 0-31.371 12.229-34.959 27.819l-30.633 132.98-27.548-132.661c-3.273-15.786-18.45-28.157-34.57-28.157h-20.234c-16.163 0-31.261 12.41-34.382 28.294l-25.402 129.411-29.953-129.891c-3.604-15.605-18.969-27.815-34.991-27.815h-20.616c-8.598 0-16.222 3.568-20.942 9.777-4.7 6.244-6.075 14.568-3.741 22.867l67.427 237.786c4.311 15.204 20.026 27.1 35.851 27.1h12.913c16.143 0 31.32-12.355 34.551-28.161l29.116-140.941 29.124 140.941c3.222 15.806 18.411 28.18 34.554 28.18h14.587c15.794 0 31.529-11.915 35.8-27.139l66.869-237.767c2.358-8.3 0.979-16.623-3.749-22.867-4.724-6.209-12.343-9.758-20.957-9.758zM701.833 579.618c17.303 0 29.776 4.728 38.095 14.469 2.535 2.955 4.908 6.924 7.085 11.754 5.608 12.689 20.474 21.889 35.321 21.889h17.039c9.16 0 17.704-4.154 22.891-11.074 4.728-6.347 6.142-14.426 3.847-22.132-3.391-11.475-9.062-23.087-16.882-34.562-23.268-33.324-60.145-50.226-109.597-50.226-37.156 0-68.288 12.552-92.471 37.278-27.477 28.078-41.424 68.103-41.424 119.009 0 47.075 12.249 84.895 36.398 112.407 24.482 27.74 58.349 41.809 100.653 41.809 34.401 0 63.136-10.457 85.37-31.092 16.981-15.766 29.175-35.36 36.201-58.286 2.472-7.942 1.199-16.163-3.533-22.529-4.971-6.743-12.992-10.614-22.011-10.614h-16.662c-14.906 0-29.835 9.718-35.443 23.068-2.212 5.344-4.688 9.679-7.364 13.011-8.421 10.756-20.675 15.982-37.396 15.982-16.289 0-29.336-6.343-39.95-19.413-10.999-13.569-16.588-34.904-16.588-63.423 0-28.813 5.411-51.083 16.006-66.232 9.962-14.186 23.174-21.091 40.414-21.091z"></path>
</svg>