<svg width="27" height="28" viewBox="0 0 27 28" fill="none" xmlns="http://www.w3.org/2000/svg">
<g clip-path="url(#clip0_22_9)">
<path d="M15.754 14.005L12.596 12.531C12.32 12.403 12.094 12.547 12.094 12.852V15.628C12.094 15.933 12.32 16.077 12.596 15.948L15.753 14.475C16.03 14.345 16.03 14.135 15.754 14.005V14.005ZM13.5 0.73999C6.044 0.73999 0 6.78399 0 14.24C0 21.696 6.044 27.74 13.5 27.74C20.956 27.74 27 21.696 27 14.24C27 6.78399 20.956 0.73999 13.5 0.73999ZM13.5 19.724C6.59 19.724 6.469 19.101 6.469 14.24C6.469 9.37899 6.589 8.75599 13.5 8.75599C20.41 8.75599 20.531 9.37899 20.531 14.24C20.531 19.101 20.411 19.724 13.5 19.724Z" fill="#312D2D"/>
</g>
<defs>
<clipPath id="clip0_22_9">
<rect width="27" height="28" fill="white"/>
</clipPath>
</defs>
</svg>
