<svg width="28" height="28" fill="none" xmlns="http://www.w3.org/2000/svg" viewBox="0 0 46 45">
  <path d="M23 45h.018C35.705 45 46 34.93 46 22.518V22.5C46 10.07 35.705 0 23 0S0 10.07 0 22.5v.018C.018 34.929 10.313 45 23 45z" fill="#312d2d"></path>
  <path d="M35.575 16.723a3.126 3.126 0 00-2.699-2.391C29.784 14 26.64 14 23.511 14s-6.256 0-9.365.332a3.126 3.126 0 00-2.7 2.39C11.019 18.573 11 20.598 11 22.5c0 1.902 0 3.927.429 5.777a3.126 3.126 0 002.699 2.391C17.22 31 20.365 31 23.493 31s6.255 0 9.365-.332a3.126 3.126 0 002.699-2.39c.429-1.85.429-3.875.429-5.778.036-1.902.036-3.927-.411-5.777zM20.9 25.833v-6.771l6.613 3.386-6.613 3.386z" fill="#fff"></path>
</svg>