<svg width="10" height="16" viewBox="0 0 10 16" fill="none" xmlns="http://www.w3.org/2000/svg">
<path d="M6.63963 7.99662L0.271795 13.9824C0.0964567 14.1469 -8.10887e-07 14.3667 -8.31379e-07 14.6011C-8.51883e-07 14.8356 0.0964566 15.0553 0.271795 15.22L0.82978 15.7443C1.00484 15.9092 1.23886 16 1.48824 16C1.73761 16 1.97135 15.9092 2.14655 15.7443L9.72848 8.61763C9.90437 8.45242 10.0007 8.23168 10 7.99701C10.0007 7.7613 9.90451 7.54081 9.72848 7.37548L2.15361 0.25574C1.97841 0.0907967 1.74467 2.3197e-07 1.49516 2.10157e-07C1.24578 1.88356e-07 1.01204 0.0907966 0.836701 0.25574L0.278855 0.779967C-0.0841395 1.12117 -0.0841395 1.67662 0.278855 2.01769L6.63963 7.99662Z" fill="white"/>
</svg>
