<svg width="250" height="250" viewBox="0 0 250 250" fill="none" xmlns="http://www.w3.org/2000/svg">
<path d="M62.26 203.41C62.26 203.41 119.26 131.41 123.41 106.84C127.56 82.27 157.83 20.62 157.83 20.62L160.58 22.18L163.28 17.69L155.6 12.43L147.19 6.43L144 10.72L146 12.51C146 12.51 96.46 61.51 74.49 73.67C66.2 78.25 22.89 130.11 6 163C23.14 178.7 62.26 203.41 62.26 203.41Z" stroke="#49AADA" stroke-width="7" stroke-linecap="round" stroke-linejoin="round"/>
<path d="M116.13 43.9L118.6 62.89L139.53 60.65M48.51 102.85L105.67 142.7M28.53 129.19L86.48 170.7M162.95 53.07L241.99 43.49M243.34 43.79V115.09M161.37 53.07V124.38M202.65 49.12V120.43M147.9 166.46L167.35 151C168.082 150.413 168.964 150.043 169.896 149.933C170.828 149.824 171.772 149.978 172.62 150.38C173.468 150.782 174.186 151.414 174.692 152.204C175.198 152.995 175.471 153.912 175.48 154.85L175.89 179.66C175.901 180.474 176.111 181.273 176.502 181.988C176.892 182.702 177.451 183.311 178.13 183.76L198.8 197.49C199.585 198.004 200.209 198.728 200.601 199.58C200.994 200.431 201.139 201.376 201.02 202.307C200.901 203.237 200.523 204.115 199.929 204.841C199.335 205.566 198.549 206.11 197.66 206.41L174.18 214.46C172.62 215 171.42 216.27 169.98 218.86L163.31 242.76C163.19 245.76 157.97 246.76 155.47 243.43L140.55 223.59C140.063 222.94 139.426 222.418 138.692 222.069C137.959 221.721 137.151 221.556 136.34 221.59L111.54 222.59C110.604 222.634 109.674 222.414 108.857 221.954C108.039 221.495 107.368 220.815 106.918 219.992C106.469 219.17 106.26 218.237 106.315 217.302C106.37 216.366 106.687 215.464 107.23 214.7L121.48 194.38C121.948 193.716 122.246 192.949 122.351 192.144C122.456 191.339 122.363 190.521 122.08 189.76L113.42 166.49C113.091 165.614 113.015 164.662 113.2 163.745C113.385 162.827 113.824 161.98 114.467 161.299C115.11 160.619 115.931 160.133 116.837 159.896C117.742 159.659 118.696 159.681 119.59 159.96L143.32 167.24C144.09 167.49 144.908 167.55 145.706 167.414C146.504 167.278 147.257 166.951 147.9 166.46V166.46Z" stroke="#49AADA" stroke-width="7" stroke-linecap="round" stroke-linejoin="round"/>
<path d="M235.037 126.837C241.714 125.471 246.315 120.395 245.313 115.498C244.312 110.601 238.087 107.739 231.41 109.104C224.733 110.47 220.132 115.547 221.134 120.444C222.136 125.34 228.36 128.203 235.037 126.837Z" fill="#49AADA"/>
<path d="M194.047 131.624C200.724 130.259 205.324 125.182 204.323 120.285C203.321 115.388 197.096 112.526 190.419 113.892C183.743 115.257 179.142 120.334 180.143 125.231C181.145 130.128 187.37 132.99 194.047 131.624Z" fill="#49AADA"/>
<path d="M152.738 136.484C159.415 135.118 164.016 130.041 163.014 125.145C162.013 120.248 155.788 117.385 149.111 118.751C142.434 120.117 137.834 125.194 138.835 130.09C139.837 134.987 146.061 137.85 152.738 136.484Z" fill="#49AADA"/>
</svg>
