<svg width="250" height="250" viewBox="0 0 250 250" fill="none" xmlns="http://www.w3.org/2000/svg">
<path d="M196.86 221.77V30.24C196.86 16.941 186.079 6.16 172.78 6.16L74.79 6.16C61.491 6.16 50.71 16.941 50.71 30.24V221.77C50.71 235.069 61.491 245.85 74.79 245.85H172.78C186.079 245.85 196.86 235.069 196.86 221.77Z" stroke="#49AADA" stroke-width="7" stroke-miterlimit="10"/>
<path d="M83.16 77.59H153.16M82.2 141.72H152.2M83.16 109.71H165.43" stroke="#49AADA" stroke-width="7" stroke-linecap="round" stroke-linejoin="round"/>
<path d="M131.61 174.54C130.46 177.22 136.8 176.08 141.75 183.14C146.48 189.89 143.75 201.99 140.35 205.65C140.27 205.734 140.21 205.835 140.174 205.946C140.139 206.057 140.13 206.174 140.148 206.289C140.165 206.404 140.208 206.514 140.275 206.609C140.341 206.705 140.428 206.784 140.53 206.84C144.8 208.96 168.44 204.04 166.73 194.47C164.86 184.03 156.6 178.67 149.22 175.47C141.84 172.27 132.1 173.4 131.61 174.54V174.54ZM168 206.17C170.53 207.31 162.17 219.68 149.2 221.01C138.77 222.09 127.44 215.58 126.39 211.85C125.34 208.12 130.61 211.71 139.85 211.93C156.67 212.33 166.32 205.44 168 206.17V206.17ZM89.21 46.71H81V32.43H89.22V34.92H84V38.05H88.84V40.53H84V44.21H89.2L89.21 46.71ZM91 42.57V40.13H96.24V42.57H91ZM104.13 46.71H101.13V35H97.23V32.43H108V35H104.12L104.13 46.71ZM110.21 46.71V32.43H113.21V46.71H110.21ZM122.89 34.75C122.357 34.738 121.829 34.8546 121.35 35.09C120.898 35.323 120.513 35.6671 120.23 36.09C119.91 36.5543 119.676 37.0726 119.54 37.62C119.191 39.1433 119.24 40.7306 119.68 42.23C119.89 42.8825 120.299 43.4527 120.85 43.86C121.444 44.2453 122.142 44.4406 122.85 44.42C123.436 44.4177 124.019 44.3506 124.59 44.22C125.234 44.0756 125.868 43.892 126.49 43.67V46.2C125.892 46.4553 125.268 46.6463 124.63 46.77C123.95 46.8875 123.26 46.9444 122.57 46.94C121.315 46.9726 120.076 46.6465 119 46C118.049 45.3928 117.313 44.5002 116.9 43.45C116.417 42.2253 116.182 40.9164 116.21 39.6C116.197 38.5831 116.346 37.5705 116.65 36.6C116.92 35.7448 117.358 34.9525 117.94 34.27C118.515 33.6098 119.233 33.0899 120.04 32.75C120.949 32.375 121.926 32.1912 122.91 32.21C123.628 32.2111 124.344 32.3018 125.04 32.48C125.731 32.6562 126.401 32.9042 127.04 33.22L126.04 35.68C125.517 35.4253 124.979 35.2015 124.43 35.01C123.934 34.8391 123.414 34.7513 122.89 34.75V34.75ZM141.05 46.71H137.62L133.88 40.71L132.6 41.62V46.72H129.6V32.43H132.6V39L133.19 38.16L133.79 37.32L137.66 32.46H141L136 38.78L141.05 46.71ZM151.07 46.71H142.85V32.43H151.07V34.92H145.88V38.05H150.71V40.53H145.88V44.21H151.07V46.71ZM159.56 46.71H156.56V35H152.69V32.43H163.47V35H159.59L159.56 46.71Z" fill="#49AADA"/>
</svg>
