<svg width="46" height="28" viewBox="0 0 46 28" fill="none"
    xmlns="http://www.w3.org/2000/svg">
    <g clip-path="">
        <path
            d="M3.22001 14.28H15.64C16.192 14.28 16.652 13.9067 16.652 13.3467C16.652 12.7867 16.192 12.4133 15.64 12.4133H3.22001C2.66801 12.4133 2.20801 12.7867 2.20801 13.3467C2.20801 13.9067 2.66801 14.28 3.22001 14.28Z"
            fill="white"></path>
        <path
            d="M30.912 20.3467C31.004 20.2533 31.096 20.16 31.096 20.0667C31.096 19.9733 31.188 19.88 31.188 19.7867C31.188 19.32 30.728 18.9467 30.176 18.9467H1.10404C0.55204 18.9467 0.092041 19.32 0.092041 19.7867C0.092041 20.2533 0.55204 20.6267 1.10404 20.6267H30.176C30.452 20.6267 30.728 20.5333 30.912 20.3467Z"
            fill="white"></path>
        <path
            d="M22.2642 14.28H26.1282C26.7722 14.28 27.2322 13.9067 27.2322 13.3467C27.2322 12.7867 26.7722 12.4133 26.1282 12.4133H22.2642C21.6202 12.4133 21.1602 12.7867 21.1602 13.3467C21.1602 13.9067 21.7122 14.28 22.2642 14.28Z"
            fill="white"></path>
        <path
            d="M17.8482 25.2H9.47615C9.20015 25.2 9.01615 25.2933 8.83215 25.48C8.64815 25.6666 8.55615 25.8533 8.55615 26.1333C8.55615 26.6 9.01615 27.0666 9.47615 27.0666H17.8482C18.1242 27.0666 18.3081 26.9733 18.4921 26.7866C18.6761 26.6 18.7682 26.4133 18.7682 26.1333C18.7682 25.6666 18.4002 25.2 17.8482 25.2Z"
            fill="white"></path>
        <path
            d="M45.7242 20.3466C45.6322 20.16 45.5402 20.0666 45.3562 19.9733C45.1722 19.88 45.0802 19.7866 44.8962 19.7866C42.8722 19.6 41.0322 18.9466 39.3762 17.8266C37.7202 16.7066 36.3402 15.2133 35.5122 13.3466C34.7762 11.76 34.3162 10.08 34.3162 8.30664C34.3162 5.97331 35.0522 3.63998 36.4322 1.77331C36.5242 1.58664 36.6162 1.49331 36.6162 1.30664C36.6162 1.11998 36.6162 0.933311 36.5242 0.746644C36.4322 0.559977 36.3402 0.466643 36.1562 0.373309C35.9722 0.279976 35.7882 0.186646 35.6962 0.186646C35.3282 0.186646 35.0522 0.186646 34.6842 0.186646C28.7042 0.186646 23.3682 4.19998 21.7122 9.89331H23.8282C24.4722 8.02665 25.5762 6.34664 27.1402 5.03998C28.6122 3.73331 30.4522 2.79998 32.4762 2.42664L33.8562 2.14664L33.3042 3.45331C32.6602 5.03998 32.3842 6.71997 32.3842 8.39997C32.3842 10.4533 32.8442 12.5066 33.7642 14.28C34.5922 15.96 35.6962 17.36 37.0762 18.5733C38.4562 19.7866 40.0202 20.6266 41.7682 21.1866L43.0562 21.56L41.9522 22.4C40.2042 23.8 38.0882 24.7333 35.8802 24.92C33.6722 25.2 31.4642 24.7333 29.4402 23.7066H25.8522C28.3362 25.8533 31.3722 26.9733 34.6842 26.9733V27.16V26.9733C36.8002 26.9733 39.0082 26.4133 40.9402 25.48C42.8722 24.4533 44.5282 23.0533 45.8162 21.28C45.9082 21.0933 46.0002 21 46.0002 20.8133C45.9082 20.6266 45.8162 20.44 45.7242 20.3466Z"
            fill="white"></path>
    </g>
    <defs>
        <clipPath id="clip0">
            <rect width="46" height="28" fill="white"></rect>
        </clipPath>
    </defs>
</svg>
