<svg width="200" height="38" viewBox="0 0 200 38" fill="none" xmlns="http://www.w3.org/2000/svg">
<path d="M54.1358 10.1618C53.7943 9.13708 53.2819 8.25468 52.5988 7.54307C51.3179 6.23371 49.3538 5.57903 46.4505 5.46517C44.9134 5.40824 43.5756 5.69289 42.2377 6.3191C40.8999 6.94532 39.9606 7.77079 39.3059 8.82397H39.0782L38.5373 6.46142C38.4804 6.09139 38.1673 5.83521 37.7973 5.83521H35.3493C34.9224 5.83521 34.6093 6.14832 34.6093 6.60375V27.8382C34.6093 28.2652 34.9224 28.6067 35.3493 28.6067H38.6227C39.0497 28.6067 39.3628 28.2936 39.3628 27.8382V17.2494C39.3628 14.4884 39.8467 12.439 40.7576 11.215C41.213 10.6172 41.8108 10.1618 42.5793 9.84869C43.3194 9.53558 44.2018 9.39326 45.2265 9.39326C46.7351 9.39326 47.8452 9.82023 48.5568 10.6742C49.24 11.5566 49.5815 12.8659 49.5815 14.5738V27.7813C49.5815 28.2082 49.8947 28.5498 50.3216 28.5498H53.6235C53.8227 28.5498 54.022 28.4644 54.2212 28.3221C54.4205 28.1798 54.5628 28.009 54.6197 27.9236V13.8337C54.6482 12.439 54.4774 11.1865 54.1358 10.1618Z" fill="#3A4145"/>
<path d="M172.178 8.397C172.035 8.28315 171.836 8.19775 171.665 8.19775H168.278C168.05 8.19775 167.88 8.25468 167.737 8.36854C167.595 8.4824 167.51 8.65318 167.51 8.82397V27.639C167.51 27.7813 167.595 27.9521 167.737 28.0659C167.88 28.1798 168.079 28.2652 168.25 28.2652H171.637C171.836 28.2652 172.007 28.2082 172.149 28.0944C172.292 27.9805 172.377 27.8097 172.377 27.639V8.82397C172.406 8.68165 172.32 8.53933 172.178 8.397Z" fill="#3A4145"/>
<path d="M78.8998 11.1011C78.4729 9.87716 77.8466 8.79551 76.9927 7.85619C76.1388 6.97379 75.1425 6.29065 73.9755 5.83522C72.8084 5.37978 71.4706 5.15207 70.0189 5.15207C68.4249 5.15207 67.0017 5.43671 65.7493 5.97754C64.5253 6.51836 63.4152 7.31537 62.5043 8.34009C60.6826 10.418 59.7717 13.3498 59.7717 17.0502C59.7717 18.8435 60.0279 20.4659 60.5118 21.8891C60.9957 23.2839 61.7358 24.5079 62.7036 25.5326C64.6676 27.5536 67.4002 28.6067 70.8159 28.6067C72.2676 28.6067 73.5485 28.4929 74.9148 28.3506C76.0818 28.0659 77.0781 27.7528 77.932 27.3828C78.2451 27.212 78.4159 26.8989 78.4159 26.5573V24.4794C78.4159 24.1948 78.2736 23.9386 78.0744 23.7963C77.8466 23.6255 77.5335 23.5685 77.2489 23.6824C76.4519 23.9955 75.6264 24.2517 74.7155 24.4794C73.5485 24.7356 72.353 24.8494 71.0152 24.8494C70.0189 24.8494 69.1365 24.7071 68.3395 24.394C67.571 24.1094 66.8878 23.6539 66.347 23.0846C65.3792 22.0599 64.8384 20.7221 64.6676 18.9858C64.6391 18.7296 64.7245 18.5019 64.8669 18.3026C65.0377 18.1318 65.2369 18.018 65.4931 18.018H78.6152C79.0991 18.018 79.4976 17.6479 79.4976 17.1356V15.3708C79.526 13.7768 79.3268 12.3251 78.8998 11.1011ZM64.8384 13.4637C65.0661 12.1259 65.55 11.1011 66.2901 10.3041C66.7455 9.82023 67.2579 9.4502 67.8841 9.19402C68.4818 8.93784 69.165 8.82398 69.9051 8.82398C70.6451 8.82398 71.3283 8.93784 71.926 9.19402C72.5238 9.4502 73.0646 9.79177 73.52 10.3041C74.2317 11.0157 74.6586 12.1259 74.7725 13.5206C74.8009 13.7768 74.7155 14.0045 74.5732 14.2038C74.4024 14.3745 74.2032 14.4884 73.947 14.4884H65.6639C65.4077 14.4884 65.1515 14.3745 65.0092 14.1753C64.8953 14.033 64.8384 13.8337 64.8384 13.6629C64.8099 13.5775 64.8099 13.5206 64.8384 13.4637Z" fill="#3A4145"/>
<path d="M103.379 5.80674C103.237 5.57902 102.981 5.46516 102.724 5.46516H99.3088C98.9672 5.46516 98.6825 5.66442 98.5687 5.97752L94.1567 18.5588C93.3028 21.3198 92.8758 22.9423 92.7619 23.8532H92.6196C92.5058 22.5723 92.0503 20.8359 91.2248 18.5588L86.8413 5.97752C86.7275 5.66442 86.4144 5.46516 86.1013 5.46516H82.7425C82.4863 5.46516 82.2301 5.57902 82.0878 5.80674C81.9455 6.03445 81.917 6.29063 82.0024 6.51835L89.9155 27.4397C89.9724 27.6105 90.0863 27.7243 90.2001 27.8097C90.3425 27.8951 90.4848 27.9521 90.6556 27.9521H94.726C95.0676 27.9521 95.3522 27.7528 95.4661 27.4397L103.465 6.51835C103.493 6.43295 103.521 6.34756 103.521 6.26217C103.521 6.11985 103.465 5.94906 103.379 5.80674Z" fill="#3A4145"/>
<path d="M124.215 9.47865C123.845 8.48239 123.276 7.65692 122.564 7.05917C121.113 5.77827 118.978 5.15205 116.074 5.15205C114.879 5.15205 113.569 5.29438 111.975 5.63595C110.922 5.8352 109.898 6.20524 109.044 6.54681C108.759 6.66067 108.531 6.88838 108.417 7.17303C108.304 7.45767 108.304 7.79924 108.446 8.08389L109.044 9.42171C109.158 9.70636 109.385 9.90561 109.67 10.0479C109.955 10.1618 110.268 10.1618 110.524 10.0479C111.178 9.82022 111.862 9.56404 112.602 9.30786C113.712 8.99475 114.822 8.82396 115.904 8.82396C116.615 8.82396 117.213 8.90936 117.725 9.08014C118.266 9.25093 118.665 9.50711 119.006 9.87715C119.661 10.5888 119.974 11.6135 119.974 13.0936V14.2891L116.074 14.403C112.573 14.5168 109.926 15.1715 108.19 16.367C106.482 17.5341 105.628 19.2989 105.628 21.633C105.628 22.7146 105.799 23.6824 106.112 24.5363C106.425 25.3618 106.909 26.1019 107.535 26.7281C108.19 27.3258 108.93 27.7528 109.784 28.0659C110.666 28.379 111.634 28.5213 112.744 28.5213C114.452 28.5213 115.875 28.2652 116.957 27.7813C117.498 27.5536 118.038 27.1835 118.608 26.6996C119.149 26.2442 119.689 25.6464 120.259 24.9633H120.429L121.169 27.2689C121.283 27.7528 121.767 28.0659 122.28 28.0659H123.617C123.931 28.0659 124.244 27.9521 124.471 27.6959C124.671 27.4682 124.813 27.1835 124.813 26.8704V12.8659C124.756 11.6419 124.585 10.4749 124.215 9.47865ZM111.634 23.967C111.036 23.4262 110.723 22.6577 110.723 21.6614C110.723 20.2951 111.235 19.2704 112.232 18.6157C113.199 17.961 114.85 17.591 117.099 17.5056L118.807 17.4487C119.12 17.4487 119.433 17.5625 119.661 17.7618C119.889 17.961 120.002 18.2742 120.002 18.5873V19.3273C120.002 20.2097 119.86 20.9783 119.604 21.6614C119.348 22.3161 118.949 22.9139 118.437 23.3977C117.896 23.8816 117.27 24.2517 116.558 24.5079C115.875 24.764 115.078 24.8779 114.224 24.8779C113.057 24.8779 112.175 24.5648 111.634 23.967ZM115.562 8.88089C115.505 8.88089 115.448 8.88089 115.391 8.88089C115.42 8.88089 115.477 8.88089 115.562 8.88089ZM114.737 8.93782C114.651 8.93782 114.594 8.96629 114.509 8.96629C114.594 8.96629 114.68 8.93782 114.737 8.93782ZM113.911 9.05168C113.826 9.05168 113.769 9.08014 113.683 9.08014C113.769 9.08014 113.854 9.05168 113.911 9.05168ZM113.086 9.22247C113.029 9.22247 112.972 9.25093 112.915 9.27939C112.972 9.25093 113.029 9.25093 113.086 9.22247Z" fill="#3A4145"/>
<path d="M162.386 5.92061C162.386 5.89215 162.386 5.86368 162.386 5.83522C162.386 5.66443 162.301 5.52211 162.187 5.43671C162.073 5.32286 161.874 5.23746 161.674 5.209C161.19 5.15207 160.934 5.15207 160.337 5.15207C158.856 5.15207 157.604 5.55057 156.494 6.37604C155.241 7.20151 154.302 8.22622 153.59 9.56405H153.391L152.85 6.20525C152.793 5.83522 152.48 5.57904 152.11 5.57904H149.748C149.321 5.57904 149.008 5.89215 149.008 6.34758V27.5251C149.008 27.9521 149.321 28.2936 149.748 28.2936H153.078C153.505 28.2936 153.818 27.9805 153.818 27.5251V16.424C153.818 15.4277 153.96 14.4884 154.274 13.6914C154.558 12.8659 155.014 12.1543 155.583 11.5566C156.722 10.3041 158.259 9.64945 160.166 9.64945C160.65 9.64945 161.105 9.70638 161.561 9.76331C161.731 9.79177 161.902 9.73484 162.044 9.64945C162.215 9.50712 162.358 9.30787 162.386 9.08016V5.92061Z" fill="#3A4145"/>
<path d="M172.007 0.683144C171.466 0.227714 170.811 0 169.986 0C169.047 0 168.363 0.227714 167.908 0.683144C167.453 1.11011 167.225 1.79326 167.225 2.64719C167.225 3.44419 167.481 4.09888 167.908 4.55431C168.449 5.00974 169.132 5.23745 169.986 5.23745C170.925 5.23745 171.523 5.0382 172.007 4.55431C172.462 4.12734 172.69 3.44419 172.69 2.64719C172.718 1.73633 172.519 1.16704 172.007 0.683144Z" fill="#3A4145"/>
<path d="M3.98146 5.23746C4.29457 4.3266 8.67809 4.49739 10.0159 4.75357C13.0616 5.32285 15.4811 6.006 18.6691 8.53933C21.5155 10.8165 24.1627 14.5738 23.6219 17.7049C23.5365 18.2457 23.3942 18.8719 22.768 19.4697C21.2594 20.836 19.9785 21.3199 18.5268 21.8891C16.2496 22.8 13.7448 23.17 13.0616 23.2554C11.6953 23.3978 9.10505 23.3978 8.79195 23.227C8.19419 22.8 9.73127 22.2307 10.6421 19.8966C11.4391 17.8187 11.3822 15.2285 11.3253 14.5453C10.4429 6.94532 3.4691 6.63222 3.98146 5.23746Z" fill="#49AADA"/>
<path d="M0.0249659 24.8779C0.281146 24.4509 1.98901 25.5041 5.5186 25.988C9.07665 26.4719 11.8092 26.1873 13.4602 25.9311C20.377 24.9918 23.7928 22.0315 24.4759 22.9708C25.0737 23.8247 22.768 27.3543 19.5231 29.3468C14.8834 32.2502 9.87365 31.1401 8.56429 30.827C3.4407 29.5176 -0.345072 25.561 0.0249659 24.8779Z" fill="#49AADA"/>
<path d="M143.372 24.394C143.258 24.3086 143.116 24.2801 142.973 24.3086C142.006 24.5648 141.009 24.6786 140.041 24.6786C139.131 24.6786 138.362 24.394 137.907 23.8816C137.337 23.3124 137.053 22.4584 137.053 21.3198V9.73483C137.053 9.50711 137.224 9.33633 137.451 9.33633H142.888C143.144 9.33633 143.343 9.13707 143.343 8.88089V6.20524C143.343 5.94906 143.144 5.74981 142.888 5.74981H137.451C137.224 5.74981 137.053 5.57902 137.053 5.3513V1.30936C137.053 1.05318 136.853 0.853928 136.597 0.853928H134.462C134.263 0.853928 134.064 0.996249 134.007 1.16704L132.555 5.4367C132.527 5.49363 132.498 5.55056 132.47 5.57902C132.441 5.60749 132.385 5.63595 132.328 5.66441L129.453 7.20149C129.339 7.31535 129.197 7.45767 129.197 7.62846V8.96629C129.197 9.22247 129.396 9.42171 129.652 9.42171H131.787C132.015 9.42171 132.185 9.5925 132.185 9.82022V21.4337C132.185 22.6007 132.328 23.6539 132.612 24.5363C132.897 25.4187 133.324 26.1588 133.865 26.7565C134.434 27.3543 135.146 27.8097 135.971 28.0944C136.825 28.379 137.821 28.5498 138.931 28.5498C139.899 28.5498 140.725 28.4644 141.493 28.2936C142.062 28.1798 142.689 28.0659 143.201 27.8667C143.4 27.8097 143.514 27.6105 143.514 27.4112V24.7356C143.543 24.6217 143.486 24.4794 143.372 24.394Z" fill="#3A4145"/>
<path d="M198.849 11.8697C198.479 10.4464 197.881 9.19401 197.084 8.22622C195.547 6.20525 193.327 5.18053 190.537 5.18053C187.549 5.18053 185.272 6.3191 183.82 8.59626H183.592C183.45 7.79925 183.308 7.17304 183.194 6.66068C183.165 6.54682 183.137 6.4045 183.108 6.29064C182.994 5.83521 182.596 5.55057 182.169 5.55057H179.977C179.465 5.55057 179.038 5.97753 179.038 6.48989V37.0607C179.038 37.573 179.465 38 179.977 38H182.909C183.421 38 183.848 37.573 183.848 37.0607V28.7775C183.848 28.436 183.763 27.582 183.621 26.2157C183.621 26.1019 183.592 25.9596 183.592 25.8172C183.564 25.6464 183.564 25.5041 183.535 25.3049H183.82C184.617 26.3011 185.585 27.0697 186.666 27.582C187.776 28.0944 189.057 28.3506 190.481 28.3506C191.904 28.3506 193.156 28.0944 194.238 27.6105C195.348 27.1266 196.287 26.3581 197.027 25.3618C197.824 24.3371 198.422 23.0846 198.821 21.6614C199.219 20.2382 199.418 18.5873 199.418 16.7655C199.418 14.9154 199.248 13.2929 198.849 11.8697ZM192.274 23.4547C192.16 23.5401 192.075 23.6255 191.961 23.6824C191.904 23.7109 191.875 23.7393 191.818 23.7678C191.761 23.7963 191.705 23.8247 191.648 23.8532C191.021 24.1948 190.281 24.3655 189.456 24.3655C188.46 24.3655 187.606 24.2232 186.894 23.9101C186.182 23.597 185.613 23.1416 185.215 22.5438C184.788 21.9461 184.475 21.1491 184.247 20.1813C184.048 19.2135 183.934 18.018 183.934 16.6517V15.9116C183.934 14.8584 184.019 13.9191 184.161 13.1221V13.0936C184.19 12.9798 184.218 12.8659 184.218 12.7805C184.247 12.6951 184.275 12.5813 184.304 12.4959C184.304 12.4674 184.332 12.439 184.332 12.4105C184.389 12.2397 184.446 12.0405 184.503 11.8981C184.503 11.8697 184.531 11.8412 184.531 11.8127C184.588 11.642 184.674 11.4996 184.731 11.3573C184.759 11.3288 184.759 11.3004 184.788 11.2719C184.845 11.1581 184.93 11.0157 185.015 10.9019C185.044 10.8734 185.072 10.8165 185.101 10.788C185.129 10.7311 185.186 10.6742 185.215 10.6457C186.069 9.56405 187.463 8.99476 189.342 8.99476C190.196 8.99476 190.964 9.16555 191.648 9.47866C192.274 9.79176 192.843 10.2472 193.299 10.8734C194.181 12.1258 194.636 14.033 194.636 16.5948C194.636 17.8472 194.522 18.9573 194.295 19.9251C194.067 20.8929 193.725 21.7184 193.27 22.373C193.213 22.43 193.185 22.4869 193.128 22.5438C193.099 22.5723 193.071 22.6292 193.042 22.6577C192.957 22.7715 192.843 22.8854 192.758 22.9993C192.729 23.0277 192.701 23.0562 192.672 23.0846C192.558 23.1985 192.473 23.2839 192.359 23.3693C192.331 23.3978 192.302 23.4262 192.274 23.4547Z" fill="#3A4145"/>
</svg>
