<svg width="18" height="19" viewBox="0 0 18 19" fill="none" xmlns="http://www.w3.org/2000/svg">
<path d="M12.8317 18.9703C12.2554 18.9703 11.6839 18.862 11.1251 18.6463C8.66338 17.6961 6.37835 16.1485 4.517 14.1709C2.65564 12.1932 1.19913 9.76528 0.304887 7.14964C0.0175243 6.30906 -0.0672793 5.44135 0.0529173 4.57053C0.165512 3.75485 0.462883 2.96298 0.912914 2.28052C1.36493 1.59507 1.96755 1.02494 2.65561 0.63181C3.38934 0.212592 4.1902 0 5.036 0C5.29906 0 5.52641 0.195289 5.58154 0.468568L6.45727 4.81076C6.49691 5.00739 6.44004 5.21198 6.30624 5.35417L4.80987 6.94405C6.22148 9.92604 8.51201 12.3598 11.3186 13.8596L12.8149 12.2697C12.9487 12.1275 13.1413 12.0672 13.3263 12.1092L17.413 13.0397C17.6703 13.0983 17.854 13.3398 17.854 13.6193C17.854 14.518 17.654 15.369 17.2594 16.1486C16.8894 16.8796 16.3528 17.5199 15.7077 18.0002C15.0654 18.4784 14.3201 18.7943 13.5524 18.914C13.3118 18.9515 13.0713 18.9702 12.8317 18.9703V18.9703ZM4.59023 1.21153C3.47456 1.34239 2.48433 1.96371 1.82675 2.96091C1.0873 4.08222 0.914867 5.46139 1.35367 6.74487C3.0729 11.7735 6.77333 15.7052 11.5061 17.5319C12.714 17.9982 14.0121 17.815 15.0674 17.0293C16.0059 16.3306 16.5907 15.2785 16.7139 14.0931L13.3893 13.3361L11.8266 14.9966C11.6603 15.1732 11.4076 15.2202 11.1949 15.1139C7.8756 13.4571 5.1888 10.6023 3.62942 7.07554C3.52945 6.84943 3.57359 6.58096 3.73989 6.40431L5.30262 4.74389L4.59023 1.21153Z" fill="#DCDCDC"/>
<path d="M17.2964 10.0784C16.9883 10.0784 16.7385 9.81297 16.7385 9.4856C16.7385 4.90944 13.2346 1.18645 8.92767 1.18645C8.61956 1.18645 8.36975 0.92103 8.36975 0.593658C8.36975 0.266287 8.61956 0.000862122 8.92767 0.000862122C11.3121 0.000862122 13.5538 0.987423 15.2398 2.77885C16.9259 4.57028 17.8544 6.9521 17.8544 9.4856C17.8544 9.81297 17.6046 10.0784 17.2964 10.0784Z" fill="#DCDCDC"/>
<path d="M15.0648 10.078C14.7567 10.078 14.5069 9.81262 14.5069 9.48525C14.5069 6.21657 12.004 3.55729 8.92767 3.55729C8.61956 3.55729 8.36975 3.29186 8.36975 2.96449C8.36975 2.63712 8.61956 2.3717 8.92767 2.3717C12.6193 2.3717 15.6227 5.56283 15.6227 9.48525C15.6227 9.81262 15.3729 10.078 15.0648 10.078Z" fill="#DCDCDC"/>
<path d="M12.8331 10.0777C12.525 10.0777 12.2752 9.81226 12.2752 9.48489C12.2752 7.52366 10.7735 5.92812 8.92767 5.92812C8.61956 5.92812 8.36975 5.66269 8.36975 5.33532C8.36975 5.00795 8.61956 4.74252 8.92767 4.74252C11.3888 4.74252 13.391 6.86992 13.391 9.48489C13.391 9.81226 13.1412 10.0777 12.8331 10.0777Z" fill="#DCDCDC"/>
</svg>
